AcariSans-Bold.ufo
<glyph name="exclam" format="2">
  <advance width="635"/>
  <unicode hex="0021"/>
  <outline>
    <contour>
      <point x="410" y="428" type="line"/>
      <point x="225" y="428" type="line"/>
      <point x="197" y="1434" type="line"/>
      <point x="438" y="1434" type="line"/>
    </contour>
    <contour>
      <point x="451" y="0" type="line"/>
      <point x="184" y="0" type="line"/>
      <point x="184" y="264" type="line"/>
      <point x="451" y="264" type="line"/>
    </contour>
  </outline>
</glyph>
<glyph name="quotedbl" format="2">
  <advance width="958"/>
  <unicode hex="0022"/>
  <outline>
    <contour>
      <point x="408" y="866" type="line"/>
      <point x="203" y="866" type="line"/>
      <point x="203" y="1413" type="line"/>
      <point x="408" y="1413" type="line"/>
    </contour>
    <contour>
      <point x="756" y="866" type="line"/>
      <point x="551" y="866" type="line"/>
      <point x="551" y="1413" type="line"/>
      <point x="756" y="1413" type="line"/>
    </contour>
  </outline>
</glyph>
<glyph name="quotesingle" format="2">
  <advance width="610"/>
  <unicode hex="0027"/>
  <outline>
    <contour>
      <point x="408" y="895" type="line"/>
      <point x="203" y="895" type="line"/>
      <point x="203" y="1442" type="line"/>
      <point x="408" y="1442" type="line"/>
    </contour>
  </outline>
</glyph>
<glyph name="period" format="2">
  <advance width="647"/>
  <unicode hex="002E"/>
  <outline>
    <contour>
      <point x="446" y="0" type="line"/>
      <point x="201" y="0" type="line"/>
      <point x="201" y="264" type="line"/>
      <point x="446" y="264" type="line"/>
    </contour>
  </outline>
</glyph>
<glyph name="zero" format="2">
  <advance width="1200"/>
  <unicode hex="0030"/>
  <outline>
    <contour>
      <point x="609" y="-20" type="qcurve" smooth="yes"/>
      <point x="405" y="-20"/>
      <point x="148" y="206"/>
      <point x="36" y="538"/>
      <point x="36" y="707" type="qcurve" smooth="yes"/>
      <point x="36" y="877"/>
      <point x="145" y="1210"/>
      <point x="395" y="1436"/>
      <point x="595" y="1436" type="qcurve" smooth="yes"/>
      <point x="780" y="1436"/>
      <point x="909" y="1331" type="qcurve"/>
      <point x="1044" y="1217"/>
      <point x="1167" y="881"/>
      <point x="1167" y="705" type="qcurve" smooth="yes"/>
      <point x="1167" y="529"/>
      <point x="1047" y="197"/>
      <point x="916" y="85" type="qcurve"/>
      <point x="789" y="-20"/>
    </contour>
    <contour>
      <point x="603" y="219" type="qcurve" smooth="yes"/>
      <point x="704" y="219"/>
      <point x="772" y="292" type="qcurve"/>
      <point x="842" y="370"/>
      <point x="904" y="594"/>
      <point x="904" y="709" type="qcurve" smooth="yes"/>
      <point x="904" y="795"/>
      <point x="869" y="967"/>
      <point x="795" y="1107"/>
      <point x="678" y="1192"/>
      <point x="595" y="1192" type="qcurve" smooth="yes"/>
      <point x="491" y="1192"/>
      <point x="421" y="1121" type="qcurve" smooth="yes"/>
      <point x="348" y="1045"/>
      <point x="286" y="823"/>
      <point x="286" y="707" type="qcurve" smooth="yes"/>
      <point x="286" y="591"/>
      <point x="349" y="368"/>
      <point x="424" y="291" type="qcurve" smooth="yes"/>
      <point x="495" y="219"/>
    </contour>
  </outline>
</glyph>
<glyph name="one" format="2">
  <advance width="1200"/>
  <unicode hex="0031"/>
  <outline>
    <contour>
      <point x="811" y="0" type="line"/>
      <point x="561" y="0" type="line"/>
      <point x="561" y="1030" type="line"/>
      <point x="187" y="1030" type="line"/>
      <point x="187" y="1223" type="line"/>
      <point x="420" y="1223" type="line" smooth="yes"/>
      <point x="489" y="1223"/>
      <point x="571" y="1298"/>
      <point x="571" y="1374" type="qcurve" smooth="yes"/>
      <point x="571" y="1413" type="line"/>
      <point x="811" y="1413" type="line"/>
    </contour>
  </outline>
</glyph>
<glyph name="two" format="2">
  <advance width="1200"/>
  <unicode hex="0032"/>
  <outline>
    <contour>
      <point x="1123" y="0" type="line"/>
      <point x="52" y="0" type="line"/>
      <point x="52" y="201" type="line"/>
      <point x="135" y="252" type="line" smooth="yes"/>
      <point x="223" y="306"/>
      <point x="472" y="497"/>
      <point x="574" y="596" type="qcurve" smooth="yes"/>
      <point x="682" y="701"/>
      <point x="800" y="899"/>
      <point x="800" y="999" type="qcurve" smooth="yes"/>
      <point x="800" y="1057"/>
      <point x="758" y="1150"/>
      <point x="670" y="1204"/>
      <point x="601" y="1204" type="qcurve" smooth="yes"/>
      <point x="475" y="1204"/>
      <point x="360" y="1027"/>
      <point x="355" y="899" type="qcurve"/>
      <point x="107" y="915" type="line"/>
      <point x="107" y="1043"/>
      <point x="221" y="1281"/>
      <point x="338" y="1360" type="qcurve"/>
      <point x="450" y="1432"/>
      <point x="599" y="1432" type="qcurve" smooth="yes"/>
      <point x="735" y="1432"/>
      <point x="940" y="1319"/>
      <point x="1054" y="1129"/>
      <point x="1054" y="1014" type="qcurve" smooth="yes"/>
      <point x="1054" y="746"/>
      <point x="730" y="434" type="qcurve"/>
      <point x="584" y="298"/>
      <point x="470" y="229" type="qcurve"/>
      <point x="1123" y="229" type="line"/>
    </contour>
  </outline>
</glyph>
<glyph name="four" format="2">
  <advance width="1200"/>
  <unicode hex="0034"/>
  <outline>
    <contour>
      <point x="917" y="0" type="line"/>
      <point x="668" y="0" type="line"/>
      <point x="668" y="332" type="line"/>
      <point x="14" y="332" type="line"/>
      <point x="14" y="479" type="line"/>
      <point x="704" y="1413" type="line"/>
      <point x="917" y="1413" type="line"/>
      <point x="917" y="563" type="line"/>
      <point x="1143" y="563" type="line"/>
      <point x="1143" y="332" type="line"/>
      <point x="917" y="332" type="line"/>
    </contour>
    <contour>
      <point x="668" y="563" type="line"/>
      <point x="668" y="1024" type="line"/>
      <point x="340" y="563" type="line"/>
    </contour>
  </outline>
</glyph>
<glyph name="six" format="2">
  <advance width="1200"/>
  <unicode hex="0036"/>
  <outline>
    <contour>
      <point x="601" y="-20" type="qcurve" smooth="yes"/>
      <point x="454" y="-20"/>
      <point x="223" y="114"/>
      <point x="87" y="334"/>
      <point x="87" y="467" type="qcurve" smooth="yes"/>
      <point x="87" y="605"/>
      <point x="163" y="717" type="qcurve"/>
      <point x="587" y="1413" type="line"/>
      <point x="878" y="1413" type="line"/>
      <point x="573" y="948" type="line"/>
      <point x="603" y="948" type="line" smooth="yes"/>
      <point x="745" y="948"/>
      <point x="977" y="826"/>
      <point x="1117" y="609"/>
      <point x="1117" y="475" type="qcurve" smooth="yes"/>
      <point x="1117" y="344"/>
      <point x="983" y="118"/>
      <point x="750" y="-20"/>
    </contour>
    <contour>
      <point x="603" y="217" type="qcurve" smooth="yes"/>
      <point x="681" y="217"/>
      <point x="802" y="290"/>
      <point x="870" y="407"/>
      <point x="870" y="473" type="qcurve" smooth="yes"/>
      <point x="870" y="548"/>
      <point x="794" y="663"/>
      <point x="672" y="729"/>
      <point x="603" y="729" type="qcurve" smooth="yes"/>
      <point x="524" y="729"/>
      <point x="403" y="656"/>
      <point x="335" y="539"/>
      <point x="335" y="473" type="qcurve" smooth="yes"/>
      <point x="335" y="398"/>
      <point x="412" y="282"/>
      <point x="534" y="217"/>
    </contour>
  </outline>
</glyph>
<glyph name="seven" format="2">
  <advance width="1200"/>
  <unicode hex="0037"/>
  <outline>
    <contour>
      <point x="490" y="0" type="line"/>
      <point x="210" y="0" type="line"/>
      <point x="810" y="1182" type="line"/>
      <point x="97" y="1182" type="line"/>
      <point x="97" y="1413" type="line"/>
      <point x="1117" y="1413" type="line"/>
      <point x="1117" y="1284" type="line"/>
    </contour>
  </outline>
</glyph>
<glyph name="eight" format="2">
  <advance width="1200"/>
  <unicode hex="0038"/>
  <outline>
    <contour>
      <point x="600" y="-20" type="qcurve" smooth="yes"/>
      <point x="467" y="-20"/>
      <point x="228" y="73"/>
      <point x="150" y="173" type="qcurve"/>
      <point x="78" y="269"/>
      <point x="78" y="406" type="qcurve" smooth="yes"/>
      <point x="78" y="528"/>
      <point x="190" y="709"/>
      <point x="283" y="764" type="qcurve"/>
      <point x="215" y="821"/>
      <point x="149" y="967"/>
      <point x="149" y="1049" type="qcurve" smooth="yes"/>
      <point x="149" y="1172"/>
      <point x="277" y="1344"/>
      <point x="484" y="1434"/>
      <point x="600" y="1434" type="qcurve" smooth="yes"/>
      <point x="713" y="1434"/>
      <point x="920" y="1345"/>
      <point x="988" y="1254" type="qcurve"/>
      <point x="1051" y="1167"/>
      <point x="1051" y="1051" type="qcurve" smooth="yes"/>
      <point x="1051" y="961"/>
      <point x="978" y="816"/>
      <point x="917" y="764" type="qcurve"/>
      <point x="1020" y="704"/>
      <point x="1122" y="520"/>
      <point x="1122" y="408" type="qcurve" smooth="yes"/>
      <point x="1122" y="301"/>
      <point x="1037" y="140"/>
      <point x="890" y="33"/>
      <point x="703" y="-20"/>
    </contour>
    <contour>
      <point x="604" y="858" type="qcurve" smooth="yes"/>
      <point x="691" y="858"/>
      <point x="809" y="951"/>
      <point x="809" y="1040" type="qcurve" smooth="yes"/>
      <point x="809" y="1130"/>
      <point x="690" y="1223"/>
      <point x="604" y="1223" type="qcurve" smooth="yes"/>
      <point x="548" y="1223"/>
      <point x="454" y="1183"/>
      <point x="399" y="1104"/>
      <point x="399" y="1044" type="qcurve" smooth="yes"/>
      <point x="399" y="960"/>
      <point x="510" y="858"/>
    </contour>
    <contour>
      <point x="598" y="197" type="qcurve" smooth="yes"/>
      <point x="671" y="197"/>
      <point x="795" y="244"/>
      <point x="870" y="342"/>
      <point x="870" y="418" type="qcurve" smooth="yes"/>
      <point x="870" y="490"/>
      <point x="799" y="591"/>
      <point x="676" y="643"/>
      <point x="598" y="643" type="qcurve" smooth="yes"/>
      <point x="521" y="643"/>
      <point x="398" y="593"/>
      <point x="326" y="494"/>
      <point x="326" y="420" type="qcurve" smooth="yes"/>
      <point x="326" y="345"/>
      <point x="400" y="246"/>
      <point x="523" y="197"/>
    </contour>
  </outline>
</glyph>
<glyph name="nine" format="2">
  <advance width="1200"/>
  <unicode hex="0039"/>
  <outline>
    <contour>
      <point x="613" y="0" type="line"/>
      <point x="322" y="0" type="line"/>
      <point x="627" y="465" type="line"/>
      <point x="596" y="465" type="line" smooth="yes"/>
      <point x="454" y="465"/>
      <point x="221" y="588"/>
      <point x="82" y="804"/>
      <point x="82" y="938" type="qcurve" smooth="yes"/>
      <point x="82" y="1067"/>
      <point x="213" y="1294"/>
      <point x="335" y="1366" type="qcurve"/>
      <point x="453" y="1434"/>
      <point x="598" y="1434" type="qcurve" smooth="yes"/>
      <point x="745" y="1434"/>
      <point x="976" y="1300"/>
      <point x="1112" y="1079"/>
      <point x="1112" y="946" type="qcurve" smooth="yes"/>
      <point x="1112" y="805"/>
      <point x="1036" y="696" type="qcurve"/>
    </contour>
    <contour>
      <point x="596" y="684" type="qcurve" smooth="yes"/>
      <point x="675" y="684"/>
      <point x="796" y="757"/>
      <point x="864" y="873"/>
      <point x="864" y="940" type="qcurve" smooth="yes"/>
      <point x="864" y="1014"/>
      <point x="789" y="1130"/>
      <point x="666" y="1196"/>
      <point x="596" y="1196" type="qcurve" smooth="yes"/>
      <point x="518" y="1196"/>
      <point x="398" y="1123"/>
      <point x="330" y="1006"/>
      <point x="330" y="940" type="qcurve" smooth="yes"/>
      <point x="330" y="865"/>
      <point x="406" y="749"/>
      <point x="528" y="684"/>
    </contour>
  </outline>
</glyph>
<glyph name="semicolon" format="2">
  <advance width="662"/>
  <unicode hex="003B"/>
  <outline>
    <contour>
      <point x="471" y="690" type="line"/>
      <point x="205" y="690" type="line"/>
      <point x="205" y="954" type="line"/>
      <point x="471" y="954" type="line"/>
    </contour>
    <contour>
      <point x="270" y="-304" type="line"/>
      <point x="108" y="-304" type="line"/>
      <point x="244" y="264" type="line"/>
      <point x="525" y="264" type="line"/>
    </contour>
  </outline>
</glyph>
<glyph name="equal" format="2">
  <advance width="1268"/>
  <unicode hex="003D"/>
  <outline>
    <contour>
      <point x="1049" y="752" type="line"/>
      <point x="219" y="752" type="line"/>
      <point x="219" y="958" type="line"/>
      <point x="1049" y="958" type="line"/>
    </contour>
    <contour>
      <point x="1049" y="385" type="line"/>
      <point x="219" y="385" type="line"/>
      <point x="219" y="592" type="line"/>
      <point x="1049" y="592" type="line"/>
    </contour>
  </outline>
</glyph>
<glyph name="question" format="2">
  <advance width="997"/>
  <unicode hex="003F"/>
  <outline>
    <contour>
      <point x="594" y="424" type="line"/>
      <point x="387" y="424" type="line"/>
      <point x="387" y="569" type="line" smooth="yes"/>
      <point x="387" y="652"/>
      <point x="438" y="759"/>
      <point x="514" y="817"/>
      <point x="575" y="850" type="qcurve" smooth="yes"/>
      <point x="624" y="876"/>
      <point x="683" y="921"/>
      <point x="721" y="987"/>
      <point x="721" y="1038" type="qcurve" smooth="yes"/>
      <point x="721" y="1140"/>
      <point x="592" y="1231"/>
      <point x="489" y="1231" type="qcurve" smooth="yes"/>
      <point x="260" y="1231"/>
      <point x="260" y="991" type="qcurve"/>
      <point x="45" y="991" type="line"/>
      <point x="45" y="1133"/>
      <point x="155" y="1331"/>
      <point x="352" y="1434"/>
      <point x="481" y="1434" type="qcurve" smooth="yes"/>
      <point x="599" y="1434"/>
      <point x="806" y="1345"/>
      <point x="934" y="1167"/>
      <point x="934" y="1034" type="qcurve" smooth="yes"/>
      <point x="934" y="854"/>
      <point x="822" y="759" type="qcurve" smooth="yes"/>
      <point x="776" y="720"/>
      <point x="705" y="682" type="qcurve" smooth="yes"/>
      <point x="646" y="650"/>
      <point x="594" y="601"/>
      <point x="594" y="567" type="qcurve" smooth="yes"/>
    </contour>
    <contour>
      <point x="627" y="0" type="line"/>
      <point x="360" y="0" type="line"/>
      <point x="360" y="264" type="line"/>
      <point x="627" y="264" type="line"/>
    </contour>
  </outline>
</glyph>
<glyph name="A" format="2">
  <advance width="1343"/>
  <unicode hex="0041"/>
  <outline>
    <contour>
      <point x="1331" y="0" type="line"/>
      <point x="1057" y="0" type="line"/>
      <point x="948" y="307" type="line"/>
      <point x="399" y="307" type="line"/>
      <point x="289" y="0" type="line"/>
      <point x="12" y="0" type="line"/>
      <point x="578" y="1413" type="line"/>
      <point x="768" y="1413" type="line"/>
    </contour>
    <contour>
      <point x="862" y="524" type="line"/>
      <point x="674" y="1040" type="line"/>
      <point x="485" y="524" type="line"/>
    </contour>
  </outline>
</glyph>
<glyph name="B" format="2">
  <advance width="1274"/>
  <unicode hex="0042"/>
  <outline>
    <contour>
      <point x="733" y="0" type="qcurve" smooth="yes"/>
      <point x="182" y="0" type="line"/>
      <point x="182" y="1413" type="line"/>
      <point x="672" y="1413" type="line" smooth="yes"/>
      <point x="757" y="1413"/>
      <point x="919" y="1372"/>
      <point x="1048" y="1281"/>
      <point x="1124" y="1136"/>
      <point x="1124" y="1032" type="qcurve" smooth="yes"/>
      <point x="1124" y="937"/>
      <point x="1031" y="791"/>
      <point x="967" y="756" type="qcurve"/>
      <point x="1069" y="712"/>
      <point x="1194" y="512"/>
      <point x="1194" y="410" type="qcurve" smooth="yes"/>
      <point x="1194" y="277"/>
      <point x="1063" y="94"/>
      <point x="852" y="0"/>
    </contour>
    <contour>
      <point x="696" y="844" type="line" smooth="yes"/>
      <point x="891" y="844"/>
      <point x="891" y="1018" type="qcurve" smooth="yes"/>
      <point x="891" y="1074"/>
      <point x="834" y="1147"/>
      <point x="737" y="1184"/>
      <point x="676" y="1184" type="qcurve" smooth="yes"/>
      <point x="436" y="1184" type="line"/>
      <point x="436" y="844" type="line"/>
    </contour>
    <contour>
      <point x="737" y="242" type="line" smooth="yes"/>
      <point x="832" y="242"/>
      <point x="944" y="335"/>
      <point x="944" y="438" type="qcurve" smooth="yes"/>
      <point x="944" y="515"/>
      <point x="826" y="625"/>
      <point x="727" y="625" type="qcurve" smooth="yes"/>
      <point x="436" y="625" type="line"/>
      <point x="436" y="242" type="line"/>
    </contour>
  </outline>
</glyph>
<glyph name="D" format="2">
  <advance width="1409"/>
  <unicode hex="0044"/>
  <outline>
    <contour>
      <point x="590" y="0" type="qcurve" smooth="yes"/>
      <point x="182" y="0" type="line"/>
      <point x="182" y="1413" type="line"/>
      <point x="592" y="1413" type="line" smooth="yes"/>
      <point x="840" y="1413"/>
      <point x="1164" y="1241"/>
      <point x="1244" y="1086" type="qcurve" smooth="yes"/>
      <point x="1327" y="926"/>
      <point x="1327" y="696" type="qcurve" smooth="yes"/>
      <point x="1327" y="360"/>
      <point x="941" y="0"/>
    </contour>
    <contour>
      <point x="565" y="233" type="line" smooth="yes"/>
      <point x="812" y="233"/>
      <point x="1073" y="453"/>
      <point x="1073" y="707" type="qcurve" smooth="yes"/>
      <point x="1073" y="884"/>
      <point x="970" y="1087"/>
      <point x="869" y="1132" type="qcurve" smooth="yes"/>
      <point x="763" y="1180"/>
      <point x="588" y="1180" type="qcurve" smooth="yes"/>
      <point x="436" y="1180" type="line"/>
      <point x="436" y="233" type="line"/>
    </contour>
  </outline>
</glyph>
<glyph name="F" format="2">
  <advance width="1235"/>
  <unicode hex="0046"/>
  <outline>
    <contour>
      <point x="436" y="0" type="line"/>
      <point x="182" y="0" type="line"/>
      <point x="182" y="1413" type="line"/>
      <point x="1184" y="1413" type="line"/>
      <point x="1184" y="1180" type="line"/>
      <point x="436" y="1180" type="line"/>
      <point x="436" y="823" type="line"/>
      <point x="1096" y="823" type="line"/>
      <point x="1096" y="590" type="line"/>
      <point x="436" y="590" type="line"/>
    </contour>
  </outline>
</glyph>
<glyph name="G" format="2">
  <advance width="1534"/>
  <unicode hex="0047"/>
  <outline>
    <contour>
      <point x="766" y="-20" type="qcurve" smooth="yes"/>
      <point x="542" y="-20"/>
      <point x="388" y="78" type="qcurve" smooth="yes"/>
      <point x="281" y="147"/>
      <point x="145" y="344"/>
      <point x="82" y="580"/>
      <point x="82" y="707" type="qcurve" smooth="yes"/>
      <point x="82" y="835"/>
      <point x="145" y="1071"/>
      <point x="279" y="1267"/>
      <point x="387" y="1337" type="qcurve" smooth="yes"/>
      <point x="540" y="1436"/>
      <point x="764" y="1436" type="qcurve" smooth="yes"/>
      <point x="964" y="1436"/>
      <point x="1288" y="1236"/>
      <point x="1380" y="1030" type="qcurve"/>
      <point x="1155" y="936" type="line"/>
      <point x="1104" y="1082"/>
      <point x="895" y="1214"/>
      <point x="762" y="1214" type="qcurve" smooth="yes"/>
      <point x="615" y="1214"/>
      <point x="426" y="1078"/>
      <point x="334" y="852"/>
      <point x="334" y="717" type="qcurve" smooth="yes"/>
      <point x="334" y="576"/>
      <point x="423" y="345"/>
      <point x="614" y="207"/>
      <point x="766" y="207" type="qcurve" smooth="yes"/>
      <point x="924" y="207"/>
      <point x="1138" y="401"/>
      <point x="1161" y="559" type="qcurve"/>
      <point x="840" y="559" type="line"/>
      <point x="840" y="764" type="line"/>
      <point x="1407" y="764" type="line"/>
      <point x="1407" y="0" type="line"/>
      <point x="1206" y="0" type="line"/>
      <point x="1184" y="199" type="line"/>
      <point x="1127" y="100"/>
      <point x="911" y="-20"/>
    </contour>
  </outline>
</glyph>
<glyph name="H" format="2">
  <advance width="1491"/>
  <unicode hex="0048"/>
  <outline>
    <contour>
      <point x="1309" y="0" type="line"/>
      <point x="1055" y="0" type="line"/>
      <point x="1055" y="590" type="line"/>
      <point x="436" y="590" type="line"/>
      <point x="436" y="0" type="line"/>
      <point x="182" y="0" type="line"/>
      <point x="182" y="1413" type="line"/>
      <point x="436" y="1413" type="line"/>
      <point x="436" y="823" type="line"/>
      <point x="1055" y="823" type="line"/>
      <point x="1055" y="1413" type="line"/>
      <point x="1309" y="1413" type="line"/>
    </contour>
  </outline>
</glyph>
<glyph name="L" format="2">
  <advance width="1063"/>
  <unicode hex="004C"/>
  <outline>
    <contour>
      <point x="1040" y="0" type="line"/>
      <point x="182" y="0" type="line"/>
      <point x="182" y="1413" type="line"/>
      <point x="436" y="1413" type="line"/>
      <point x="436" y="240" type="line"/>
      <point x="1040" y="240" type="line"/>
    </contour>
  </outline>
</glyph>
<glyph name="M" format="2">
  <advance width="1798"/>
  <unicode hex="004D"/>
  <outline>
    <contour>
      <point x="1616" y="0" type="line"/>
      <point x="1372" y="0" type="line"/>
      <point x="1372" y="1057" type="line"/>
      <point x="1022" y="123" type="line"/>
      <point x="776" y="123" type="line"/>
      <point x="426" y="1057" type="line"/>
      <point x="426" y="0" type="line"/>
      <point x="182" y="0" type="line"/>
      <point x="182" y="1413" type="line"/>
      <point x="524" y="1413" type="line"/>
      <point x="899" y="408" type="line"/>
      <point x="1274" y="1413" type="line"/>
      <point x="1616" y="1413" type="line"/>
    </contour>
  </outline>
</glyph>
<glyph name="Q" format="2">
  <advance width="1573"/>
  <unicode hex="0051"/>
  <outline>
    <contour>
      <point x="1346" y="-119" type="line"/>
      <point x="1143" y="84" type="line"/>
      <point x="985" y="-20"/>
      <point x="764" y="-20" type="qcurve" smooth="yes"/>
      <point x="540" y="-20"/>
      <point x="387" y="79" type="qcurve" smooth="yes"/>
      <point x="279" y="148"/>
      <point x="145" y="344"/>
      <point x="82" y="580"/>
      <point x="82" y="707" type="qcurve" smooth="yes"/>
      <point x="82" y="834"/>
      <point x="145" y="1070"/>
      <point x="279" y="1266"/>
      <point x="387" y="1336" type="qcurve" smooth="yes"/>
      <point x="540" y="1434"/>
      <point x="764" y="1434" type="qcurve" smooth="yes"/>
      <point x="988" y="1434"/>
      <point x="1142" y="1335" type="qcurve" smooth="yes"/>
      <point x="1249" y="1265"/>
      <point x="1383" y="1068"/>
      <point x="1446" y="832"/>
      <point x="1446" y="705" type="qcurve" smooth="yes"/>
      <point x="1446" y="573"/>
      <point x="1376" y="324"/>
      <point x="1307" y="227" type="qcurve"/>
      <point x="1509" y="35" type="line"/>
    </contour>
    <contour>
      <point x="764" y="219" type="qcurve" smooth="yes"/>
      <point x="874" y="219"/>
      <point x="963" y="260" type="qcurve"/>
      <point x="770" y="436" type="line"/>
      <point x="934" y="586" type="line"/>
      <point x="1122" y="412" type="line"/>
      <point x="1192" y="538"/>
      <point x="1192" y="707" type="qcurve" smooth="yes"/>
      <point x="1192" y="844"/>
      <point x="1103" y="1064"/>
      <point x="914" y="1194"/>
      <point x="764" y="1194" type="qcurve" smooth="yes"/>
      <point x="616" y="1194"/>
      <point x="427" y="1066"/>
      <point x="336" y="845"/>
      <point x="336" y="707" type="qcurve" smooth="yes"/>
      <point x="336" y="573"/>
      <point x="424" y="351"/>
      <point x="612" y="219"/>
    </contour>
  </outline>
</glyph>
<glyph name="V" format="2">
  <advance width="1343"/>
  <unicode hex="0056"/>
  <outline>
    <contour>
      <point x="768" y="0" type="line"/>
      <point x="578" y="0" type="line"/>
      <point x="12" y="1413" type="line"/>
      <point x="293" y="1413" type="line"/>
      <point x="674" y="412" type="line"/>
      <point x="1053" y="1413" type="line"/>
      <point x="1331" y="1413" type="line"/>
    </contour>
  </outline>
</glyph>
<glyph name="Y" format="2">
  <advance width="1319"/>
  <unicode hex="0059"/>
  <outline>
    <contour>
      <point x="793" y="0" type="line"/>
      <point x="528" y="0" type="line"/>
      <point x="528" y="551" type="line"/>
      <point x="-2" y="1413" type="line"/>
      <point x="305" y="1413" type="line"/>
      <point x="657" y="795" type="line"/>
      <point x="1012" y="1413" type="line"/>
      <point x="1321" y="1413" type="line"/>
      <point x="793" y="551" type="line"/>
    </contour>
  </outline>
</glyph>
<glyph name="bracketleft" format="2">
  <advance width="641"/>
  <unicode hex="005B"/>
  <outline>
    <contour>
      <point x="608" y="-164" type="line"/>
      <point x="176" y="-164" type="line"/>
      <point x="176" y="1573" type="line"/>
      <point x="608" y="1573" type="line"/>
      <point x="608" y="1411" type="line"/>
      <point x="373" y="1411" type="line"/>
      <point x="373" y="0" type="line"/>
      <point x="608" y="0" type="line"/>
    </contour>
  </outline>
</glyph>
<glyph name="bracketright" format="2">
  <advance width="641"/>
  <unicode hex="005D"/>
  <outline>
    <contour>
      <point x="465" y="-164" type="line"/>
      <point x="33" y="-164" type="line"/>
      <point x="33" y="0" type="line"/>
      <point x="268" y="0" type="line"/>
      <point x="268" y="1411" type="line"/>
      <point x="33" y="1411" type="line"/>
      <point x="33" y="1573" type="line"/>
      <point x="465" y="1573" type="line"/>
    </contour>
  </outline>
</glyph>
<glyph name="underscore" format="2">
  <advance width="1247"/>
  <unicode hex="005F"/>
  <outline>
    <contour>
      <point x="1049" y="-184" type="line"/>
      <point x="199" y="-184" type="line"/>
      <point x="199" y="0" type="line"/>
      <point x="1049" y="0" type="line"/>
    </contour>
  </outline>
</glyph>
<glyph name="a" format="2">
  <advance width="1061"/>
  <unicode hex="0061"/>
  <outline>
    <contour>
      <point x="418" y="-20" type="qcurve" smooth="yes"/>
      <point x="318" y="-20"/>
      <point x="147" y="55"/>
      <point x="43" y="201"/>
      <point x="43" y="307" type="qcurve" smooth="yes"/>
      <point x="43" y="460"/>
      <point x="268" y="596"/>
      <point x="453" y="596" type="qcurve" smooth="yes"/>
      <point x="713" y="596" type="line"/>
      <point x="713" y="688"/>
      <point x="616" y="803"/>
      <point x="516" y="803" type="qcurve" smooth="yes"/>
      <point x="433" y="803"/>
      <point x="316" y="726"/>
      <point x="281" y="666" type="qcurve"/>
      <point x="94" y="801" type="line"/>
      <point x="172" y="909"/>
      <point x="377" y="1016"/>
      <point x="512" y="1016" type="qcurve" smooth="yes"/>
      <point x="652" y="1016"/>
      <point x="846" y="911"/>
      <point x="946" y="726"/>
      <point x="946" y="606" type="qcurve" smooth="yes"/>
      <point x="946" y="0" type="line"/>
      <point x="745" y="0" type="line"/>
      <point x="729" y="143" type="line"/>
      <point x="671" y="58"/>
      <point x="518" y="-20"/>
    </contour>
    <contour>
      <point x="453" y="186" type="qcurve" smooth="yes"/>
      <point x="525" y="186"/>
      <point x="641" y="253"/>
      <point x="710" y="359"/>
      <point x="713" y="420" type="qcurve"/>
      <point x="467" y="420" type="line" smooth="yes"/>
      <point x="383" y="420"/>
      <point x="293" y="346"/>
      <point x="293" y="299" type="qcurve" smooth="yes"/>
      <point x="293" y="248"/>
      <point x="383" y="186"/>
    </contour>
  </outline>
</glyph>
<glyph name="b" format="2">
  <advance width="1176"/>
  <unicode hex="0062"/>
  <outline>
    <contour>
      <point x="684" y="-20" type="qcurve" smooth="yes"/>
      <point x="604" y="-20"/>
      <point x="453" y="37"/>
      <point x="399" y="100" type="qcurve"/>
      <point x="399" y="0" type="line"/>
      <point x="147" y="0" type="line"/>
      <point x="147" y="1411" type="line"/>
      <point x="399" y="1411" type="line"/>
      <point x="399" y="899" type="line"/>
      <point x="452" y="963"/>
      <point x="599" y="1020"/>
      <point x="680" y="1020" type="qcurve" smooth="yes"/>
      <point x="820" y="1020"/>
      <point x="1013" y="877"/>
      <point x="1112" y="640"/>
      <point x="1112" y="500" type="qcurve" smooth="yes"/>
      <point x="1112" y="365"/>
      <point x="1015" y="126"/>
      <point x="915" y="51" type="qcurve"/>
      <point x="818" y="-20"/>
    </contour>
    <contour>
      <point x="623" y="205" type="qcurve" smooth="yes"/>
      <point x="744" y="205"/>
      <point x="866" y="368"/>
      <point x="866" y="500" type="qcurve" smooth="yes"/>
      <point x="866" y="632"/>
      <point x="743" y="799"/>
      <point x="623" y="799" type="qcurve" smooth="yes"/>
      <point x="502" y="799"/>
      <point x="377" y="633"/>
      <point x="377" y="500" type="qcurve" smooth="yes"/>
      <point x="377" y="416"/>
      <point x="429" y="283"/>
      <point x="538" y="205"/>
    </contour>
  </outline>
</glyph>
<glyph name="i" format="2">
  <advance width="532"/>
  <unicode hex="0069"/>
  <outline>
    <contour>
      <point x="395" y="1188" type="line"/>
      <point x="139" y="1188" type="line"/>
      <point x="139" y="1413" type="line"/>
      <point x="395" y="1413" type="line"/>
    </contour>
    <contour>
      <point x="387" y="0" type="line"/>
      <point x="145" y="0" type="line"/>
      <point x="145" y="999" type="line"/>
      <point x="387" y="999" type="line"/>
    </contour>
  </outline>
</glyph>
<glyph name="j" format="2">
  <advance width="543"/>
  <unicode hex="006A"/>
  <outline>
    <contour>
      <point x="406" y="1167" type="line"/>
      <point x="150" y="1167" type="line"/>
      <point x="150" y="1413" type="line"/>
      <point x="406" y="1413" type="line"/>
    </contour>
    <contour>
      <point x="104" y="-438" type="qcurve" smooth="yes"/>
      <point x="60" y="-438"/>
      <point x="-36" y="-419"/>
      <point x="-70" y="-406" type="qcurve"/>
      <point x="-8" y="-195" type="line"/>
      <point x="47" y="-217"/>
      <point x="80" y="-217" type="qcurve" smooth="yes"/>
      <point x="150" y="-217"/>
      <point x="150" y="-123" type="qcurve" smooth="yes"/>
      <point x="150" y="999" type="line"/>
      <point x="395" y="999" type="line"/>
      <point x="395" y="-104" type="line" smooth="yes"/>
      <point x="395" y="-193"/>
      <point x="335" y="-345"/>
      <point x="207" y="-438"/>
    </contour>
  </outline>
</glyph>
<glyph name="k" format="2">
  <advance width="1118"/>
  <unicode hex="006B"/>
  <outline>
    <contour>
      <point x="1126" y="0" type="line"/>
      <point x="838" y="0" type="line"/>
      <point x="545" y="463" type="line"/>
      <point x="391" y="293" type="line"/>
      <point x="391" y="0" type="line"/>
      <point x="147" y="0" type="line"/>
      <point x="147" y="1413" type="line"/>
      <point x="391" y="1413" type="line"/>
      <point x="391" y="584" type="line"/>
      <point x="768" y="999" type="line"/>
      <point x="1085" y="999" type="line"/>
      <point x="711" y="612" type="line"/>
    </contour>
  </outline>
</glyph>
<glyph name="o" format="2">
  <advance width="1128"/>
  <unicode hex="006F"/>
  <outline>
    <contour>
      <point x="563" y="-20" type="qcurve" smooth="yes"/>
      <point x="404" y="-20"/>
      <point x="175" y="123"/>
      <point x="51" y="357"/>
      <point x="51" y="496" type="qcurve" smooth="yes"/>
      <point x="51" y="631"/>
      <point x="174" y="868"/>
      <point x="296" y="943" type="qcurve"/>
      <point x="412" y="1012"/>
      <point x="563" y="1012" type="qcurve" smooth="yes"/>
      <point x="721" y="1012"/>
      <point x="951" y="869"/>
      <point x="1075" y="634"/>
      <point x="1075" y="496" type="qcurve" smooth="yes"/>
      <point x="1075" y="360"/>
      <point x="952" y="123"/>
      <point x="831" y="49" type="qcurve"/>
      <point x="714" y="-20"/>
    </contour>
    <contour>
      <point x="563" y="190" type="qcurve" smooth="yes"/>
      <point x="694" y="190"/>
      <point x="821" y="362"/>
      <point x="821" y="496" type="qcurve" smooth="yes"/>
      <point x="821" y="629"/>
      <point x="694" y="801"/>
      <point x="563" y="801" type="qcurve" smooth="yes"/>
      <point x="473" y="801"/>
      <point x="359" y="719"/>
      <point x="305" y="580"/>
      <point x="305" y="496" type="qcurve" smooth="yes"/>
      <point x="305" y="362"/>
      <point x="433" y="190"/>
    </contour>
  </outline>
</glyph>
<glyph name="p" format="2">
  <advance width="1171"/>
  <unicode hex="0070"/>
  <outline>
    <contour>
      <point x="395" y="-438" type="line"/>
      <point x="147" y="-438" type="line"/>
      <point x="147" y="999" type="line"/>
      <point x="395" y="999" type="line"/>
      <point x="395" y="899" type="line"/>
      <point x="448" y="963"/>
      <point x="595" y="1020"/>
      <point x="676" y="1020" type="qcurve" smooth="yes"/>
      <point x="816" y="1020"/>
      <point x="1009" y="876"/>
      <point x="1108" y="639"/>
      <point x="1108" y="500" type="qcurve" smooth="yes"/>
      <point x="1108" y="365"/>
      <point x="1011" y="126"/>
      <point x="910" y="51" type="qcurve" smooth="yes"/>
      <point x="813" y="-20"/>
      <point x="680" y="-20" type="qcurve" smooth="yes"/>
      <point x="600" y="-20"/>
      <point x="449" y="37"/>
      <point x="395" y="100" type="qcurve"/>
    </contour>
    <contour>
      <point x="616" y="205" type="qcurve" smooth="yes"/>
      <point x="701" y="205"/>
      <point x="808" y="282"/>
      <point x="860" y="415"/>
      <point x="860" y="500" type="qcurve" smooth="yes"/>
      <point x="860" y="633"/>
      <point x="736" y="801"/>
      <point x="616" y="801" type="qcurve" smooth="yes"/>
      <point x="496" y="801"/>
      <point x="373" y="633"/>
      <point x="373" y="500" type="qcurve" smooth="yes"/>
      <point x="373" y="415"/>
      <point x="425" y="282"/>
      <point x="532" y="205"/>
    </contour>
  </outline>
</glyph>
<glyph name="v" format="2">
  <advance width="999"/>
  <unicode hex="0076"/>
  <outline>
    <contour>
      <point x="600" y="0" type="line"/>
      <point x="399" y="0" type="line"/>
      <point x="-8" y="999" type="line"/>
      <point x="258" y="999" type="line"/>
      <point x="500" y="315" type="line"/>
      <point x="743" y="999" type="line"/>
      <point x="1008" y="999" type="line"/>
    </contour>
  </outline>
</glyph>
<glyph name="y" format="2">
  <advance width="1032"/>
  <unicode hex="0079"/>
  <outline>
    <contour>
      <point x="467" y="-430" type="line"/>
      <point x="201" y="-430" type="line"/>
      <point x="385" y="27" type="line"/>
      <point x="-6" y="999" type="line"/>
      <point x="262" y="999" type="line"/>
      <point x="514" y="305" type="line"/>
      <point x="770" y="999" type="line"/>
      <point x="1038" y="999" type="line"/>
    </contour>
  </outline>
</glyph>
<glyph name="z" format="2">
  <advance width="1004"/>
  <unicode hex="007A"/>
  <outline>
    <contour>
      <point x="934" y="0" type="line"/>
      <point x="53" y="0" type="line"/>
      <point x="53" y="162" type="line"/>
      <point x="618" y="795" type="line"/>
      <point x="82" y="795" type="line"/>
      <point x="82" y="999" type="line"/>
      <point x="934" y="999" type="line"/>
      <point x="934" y="825" type="line"/>
      <point x="392" y="205" type="line"/>
      <point x="934" y="205" type="line"/>
    </contour>
  </outline>
</glyph>
<glyph name="bar" format="2">
  <advance width="623"/>
  <unicode hex="007C"/>
  <outline>
    <contour>
      <point x="401" y="-512" type="line"/>
      <point x="221" y="-512" type="line"/>
      <point x="221" y="1534" type="line"/>
      <point x="401" y="1534" type="line"/>
    </contour>
  </outline>
</glyph>
<glyph name="cent" format="2">
  <advance width="1116"/>
  <unicode hex="00A2"/>
  <outline>
    <contour>
      <point x="674" y="-205" type="line"/>
      <point x="494" y="-205" type="line"/>
      <point x="494" y="-20" type="line"/>
      <point x="365" y="5"/>
      <point x="197" y="156"/>
      <point x="115" y="375"/>
      <point x="115" y="498" type="qcurve" smooth="yes"/>
      <point x="115" y="615"/>
      <point x="195" y="834"/>
      <point x="363" y="990"/>
      <point x="494" y="1016" type="qcurve"/>
      <point x="494" y="1200" type="line"/>
      <point x="674" y="1200" type="line"/>
      <point x="674" y="1016" type="line"/>
      <point x="908" y="982"/>
      <point x="1022" y="723" type="qcurve"/>
      <point x="805" y="639" type="line"/>
      <point x="777" y="737"/>
      <point x="671" y="823"/>
      <point x="586" y="823" type="qcurve" smooth="yes"/>
      <point x="501" y="823"/>
      <point x="393" y="733"/>
      <point x="342" y="586"/>
      <point x="342" y="498" type="qcurve" smooth="yes"/>
      <point x="342" y="358"/>
      <point x="461" y="172"/>
      <point x="586" y="172" type="qcurve" smooth="yes"/>
      <point x="672" y="172"/>
      <point x="777" y="260"/>
      <point x="805" y="356" type="qcurve"/>
      <point x="1008" y="276" type="line"/>
      <point x="918" y="21"/>
      <point x="674" y="-20" type="qcurve"/>
    </contour>
  </outline>
</glyph>
<glyph name="currency" format="2">
  <advance width="1348"/>
  <unicode hex="00A4"/>
  <outline>
    <contour>
      <point x="1044" y="129" type="line"/>
      <point x="936" y="238" type="line"/>
      <point x="810" y="156"/>
      <point x="673" y="156" type="qcurve" smooth="yes"/>
      <point x="538" y="156"/>
      <point x="410" y="238" type="qcurve"/>
      <point x="303" y="129" type="line"/>
      <point x="174" y="264" type="line"/>
      <point x="281" y="369" type="line"/>
      <point x="240" y="428"/>
      <point x="200" y="562"/>
      <point x="200" y="629" type="qcurve" smooth="yes"/>
      <point x="200" y="775"/>
      <point x="281" y="893" type="qcurve"/>
      <point x="176" y="995" type="line"/>
      <point x="305" y="1130" type="line"/>
      <point x="412" y="1022" type="line"/>
      <point x="529" y="1104"/>
      <point x="678" y="1104" type="qcurve" smooth="yes"/>
      <point x="821" y="1104"/>
      <point x="936" y="1024" type="qcurve"/>
      <point x="1042" y="1128" type="line"/>
      <point x="1174" y="999" type="line"/>
      <point x="1067" y="895" type="line"/>
      <point x="1149" y="778"/>
      <point x="1149" y="631" type="qcurve" smooth="yes"/>
      <point x="1149" y="486"/>
      <point x="1067" y="367" type="qcurve"/>
      <point x="1174" y="264" type="line"/>
    </contour>
    <contour>
      <point x="673" y="338" type="qcurve" smooth="yes"/>
      <point x="792" y="338"/>
      <point x="964" y="512"/>
      <point x="964" y="633" type="qcurve" smooth="yes"/>
      <point x="964" y="752"/>
      <point x="793" y="920"/>
      <point x="674" y="920" type="qcurve" smooth="yes"/>
      <point x="589" y="920"/>
      <point x="441" y="825"/>
      <point x="405" y="738" type="qcurve" smooth="yes"/>
      <point x="383" y="684"/>
      <point x="383" y="627" type="qcurve" smooth="yes"/>
      <point x="383" y="572"/>
      <point x="424" y="468"/>
      <point x="465" y="426" type="qcurve"/>
      <point x="556" y="338"/>
    </contour>
  </outline>
</glyph>
<glyph name="yen" format="2">
  <advance width="1323"/>
  <unicode hex="00A5"/>
  <outline>
    <contour>
      <point x="766" y="0" type="line"/>
      <point x="557" y="0" type="line"/>
      <point x="557" y="195" type="line"/>
      <point x="258" y="195" type="line"/>
      <point x="258" y="379" type="line"/>
      <point x="557" y="379" type="line"/>
      <point x="557" y="496" type="line"/>
      <point x="258" y="496" type="line"/>
      <point x="258" y="682" type="line"/>
      <point x="471" y="682" type="line"/>
      <point x="-2" y="1413" type="line"/>
      <point x="248" y="1413" type="line"/>
      <point x="662" y="743" type="line"/>
      <point x="1075" y="1413" type="line"/>
      <point x="1325" y="1413" type="line"/>
      <point x="852" y="680" type="line"/>
      <point x="1065" y="680" type="line"/>
      <point x="1065" y="496" type="line"/>
      <point x="766" y="496" type="line"/>
      <point x="766" y="379" type="line"/>
      <point x="1065" y="379" type="line"/>
      <point x="1065" y="195" type="line"/>
      <point x="766" y="195" type="line"/>
    </contour>
  </outline>
</glyph>
<glyph name="brokenbar" format="2">
  <advance width="643"/>
  <unicode hex="00A6"/>
  <outline>
    <contour>
      <point x="422" y="731" type="line"/>
      <point x="221" y="731" type="line"/>
      <point x="221" y="1475" type="line"/>
      <point x="422" y="1475" type="line"/>
    </contour>
    <contour>
      <point x="422" y="-307" type="line"/>
      <point x="221" y="-307" type="line"/>
      <point x="221" y="420" type="line"/>
      <point x="422" y="420" type="line"/>
    </contour>
  </outline>
</glyph>
<glyph name="section" format="2">
  <advance width="1112"/>
  <unicode hex="00A7"/>
  <outline>
    <contour>
      <point x="561" y="-18" type="qcurve" smooth="yes"/>
      <point x="458" y="-18"/>
      <point x="273" y="43"/>
      <point x="145" y="174"/>
      <point x="123" y="276" type="qcurve"/>
      <point x="356" y="346" type="line"/>
      <point x="374" y="261"/>
      <point x="479" y="178"/>
      <point x="578" y="178" type="qcurve" smooth="yes"/>
      <point x="660" y="178"/>
      <point x="768" y="233"/>
      <point x="768" y="291" type="qcurve" smooth="yes"/>
      <point x="768" y="334"/>
      <point x="707" y="387"/>
      <point x="614" y="416"/>
      <point x="532" y="434" type="qcurve" smooth="yes"/>
      <point x="414" y="459"/>
      <point x="269" y="518"/>
      <point x="222" y="572" type="qcurve"/>
      <point x="170" y="629"/>
      <point x="170" y="727" type="qcurve" smooth="yes"/>
      <point x="170" y="840"/>
      <point x="256" y="934" type="qcurve"/>
      <point x="172" y="1010"/>
      <point x="172" y="1124" type="qcurve" smooth="yes"/>
      <point x="172" y="1225"/>
      <point x="284" y="1363"/>
      <point x="462" y="1434"/>
      <point x="561" y="1434" type="qcurve" smooth="yes"/>
      <point x="697" y="1434"/>
      <point x="897" y="1323"/>
      <point x="940" y="1243" type="qcurve"/>
      <point x="745" y="1130" type="line"/>
      <point x="728" y="1182"/>
      <point x="630" y="1245"/>
      <point x="553" y="1245" type="qcurve" smooth="yes"/>
      <point x="493" y="1245"/>
      <point x="414" y="1208"/>
      <point x="375" y="1150"/>
      <point x="375" y="1120" type="qcurve" smooth="yes"/>
      <point x="375" y="1081"/>
      <point x="433" y="1035"/>
      <point x="521" y="1009"/>
      <point x="598" y="993" type="qcurve" smooth="yes"/>
      <point x="716" y="967"/>
      <point x="865" y="913"/>
      <point x="973" y="792"/>
      <point x="973" y="688" type="qcurve" smooth="yes"/>
      <point x="973" y="570"/>
      <point x="893" y="483" type="qcurve"/>
      <point x="973" y="409"/>
      <point x="973" y="291" type="qcurve" smooth="yes"/>
      <point x="973" y="185"/>
      <point x="914" y="116" type="qcurve"/>
      <point x="850" y="44"/>
      <point x="662" y="-18"/>
    </contour>
    <contour>
      <point x="684" y="571" type="qcurve"/>
      <point x="725" y="586"/>
      <point x="768" y="645"/>
      <point x="768" y="682" type="qcurve" smooth="yes"/>
      <point x="768" y="773"/>
      <point x="645" y="810" type="qcurve"/>
      <point x="582" y="830"/>
      <point x="457" y="858" type="qcurve"/>
      <point x="415" y="837"/>
      <point x="375" y="768"/>
      <point x="375" y="735" type="qcurve" smooth="yes"/>
      <point x="375" y="655"/>
      <point x="495" y="619" type="qcurve"/>
      <point x="556" y="599"/>
    </contour>
  </outline>
</glyph>
<glyph name="copyright" format="2">
  <advance width="1739"/>
  <unicode hex="00A9"/>
  <outline>
    <contour>
      <point x="870" y="-49" type="qcurve" smooth="yes"/>
      <point x="721" y="-49"/>
      <point x="461" y="47"/>
      <point x="256" y="216"/>
      <point x="188" y="328" type="qcurve" smooth="yes"/>
      <point x="82" y="501"/>
      <point x="82" y="707" type="qcurve" smooth="yes"/>
      <point x="82" y="850"/>
      <point x="183" y="1099"/>
      <point x="359" y="1295"/>
      <point x="475" y="1361" type="qcurve" smooth="yes"/>
      <point x="656" y="1462"/>
      <point x="870" y="1462" type="qcurve" smooth="yes"/>
      <point x="1019" y="1462"/>
      <point x="1279" y="1366"/>
      <point x="1483" y="1197"/>
      <point x="1551" y="1086" type="qcurve" smooth="yes"/>
      <point x="1657" y="912"/>
      <point x="1657" y="707" type="qcurve" smooth="yes"/>
      <point x="1657" y="563"/>
      <point x="1557" y="314"/>
      <point x="1380" y="118"/>
      <point x="1265" y="53" type="qcurve" smooth="yes"/>
      <point x="1084" y="-49"/>
    </contour>
    <contour>
      <point x="870" y="139" type="qcurve" smooth="yes"/>
      <point x="1037" y="139"/>
      <point x="1307" y="298"/>
      <point x="1387" y="425" type="qcurve" smooth="yes"/>
      <point x="1468" y="556"/>
      <point x="1468" y="707" type="qcurve" smooth="yes"/>
      <point x="1468" y="865"/>
      <point x="1301" y="1121"/>
      <point x="1167" y="1197" type="qcurve" smooth="yes"/>
      <point x="1029" y="1274"/>
      <point x="870" y="1274" type="qcurve" smooth="yes"/>
      <point x="702" y="1274"/>
      <point x="433" y="1115"/>
      <point x="354" y="989" type="qcurve" smooth="yes"/>
      <point x="272" y="858"/>
      <point x="272" y="707" type="qcurve" smooth="yes"/>
      <point x="272" y="549"/>
      <point x="439" y="292"/>
      <point x="573" y="217" type="qcurve" smooth="yes"/>
      <point x="710" y="139"/>
    </contour>
    <contour>
      <point x="887" y="264" type="qcurve" smooth="yes"/>
      <point x="757" y="264"/>
      <point x="585" y="386"/>
      <point x="498" y="587"/>
      <point x="498" y="705" type="qcurve" smooth="yes"/>
      <point x="498" y="791"/>
      <point x="545" y="949"/>
      <point x="641" y="1072"/>
      <point x="788" y="1145"/>
      <point x="887" y="1145" type="qcurve" smooth="yes"/>
      <point x="1007" y="1145"/>
      <point x="1182" y="1028"/>
      <point x="1241" y="901" type="qcurve"/>
      <point x="1067" y="827" type="line"/>
      <point x="1034" y="897"/>
      <point x="952" y="954"/>
      <point x="887" y="954" type="qcurve" smooth="yes"/>
      <point x="816" y="954"/>
      <point x="726" y="888"/>
      <point x="684" y="776"/>
      <point x="684" y="705" type="qcurve" smooth="yes"/>
      <point x="684" y="634"/>
      <point x="725" y="522"/>
      <point x="814" y="457"/>
      <point x="885" y="457" type="qcurve" smooth="yes"/>
      <point x="952" y="457"/>
      <point x="1032" y="515"/>
      <point x="1065" y="584" type="qcurve"/>
      <point x="1241" y="510" type="line"/>
      <point x="1181" y="380"/>
      <point x="1006" y="264"/>
    </contour>
  </outline>
</glyph>
<glyph name="sfthyphen" format="2">
  <advance width="1010"/>
  <unicode hex="00AD"/>
  <outline>
    <contour>
      <point x="868" y="508" type="line"/>
      <point x="141" y="508" type="line"/>
      <point x="141" y="692" type="line"/>
      <point x="868" y="692" type="line"/>
    </contour>
  </outline>
</glyph>
<glyph name="threesuperior" format="2">
  <advance width="868"/>
  <unicode hex="00B3"/>
  <outline>
    <contour>
      <point x="424" y="462" type="qcurve" smooth="yes"/>
      <point x="322" y="462"/>
      <point x="144" y="531"/>
      <point x="34" y="673"/>
      <point x="34" y="783" type="qcurve"/>
      <point x="216" y="792" type="line"/>
      <point x="216" y="719"/>
      <point x="336" y="638"/>
      <point x="425" y="638" type="qcurve" smooth="yes"/>
      <point x="480" y="638"/>
      <point x="572" y="669"/>
      <point x="628" y="730"/>
      <point x="628" y="776" type="qcurve" smooth="yes"/>
      <point x="628" y="836"/>
      <point x="534" y="905"/>
      <point x="451" y="905" type="qcurve" smooth="yes"/>
      <point x="332" y="905" type="line"/>
      <point x="332" y="1066" type="line"/>
      <point x="450" y="1066" type="line" smooth="yes"/>
      <point x="513" y="1066"/>
      <point x="570" y="1123"/>
      <point x="570" y="1165" type="qcurve" smooth="yes"/>
      <point x="570" y="1220"/>
      <point x="485" y="1274"/>
      <point x="423" y="1274" type="qcurve" smooth="yes"/>
      <point x="356" y="1274"/>
      <point x="267" y="1211"/>
      <point x="265" y="1152" type="qcurve"/>
      <point x="86" y="1162" type="line"/>
      <point x="86" y="1254"/>
      <point x="178" y="1384"/>
      <point x="329" y="1452"/>
      <point x="419" y="1452" type="qcurve" smooth="yes"/>
      <point x="504" y="1452"/>
      <point x="657" y="1390"/>
      <point x="753" y="1273"/>
      <point x="753" y="1190" type="qcurve" smooth="yes"/>
      <point x="753" y="1075"/>
      <point x="660" y="999" type="qcurve"/>
      <point x="807" y="922"/>
      <point x="810" y="763" type="qcurve"/>
      <point x="810" y="663"/>
      <point x="703" y="529"/>
      <point x="527" y="462"/>
    </contour>
  </outline>
</glyph>
<glyph name="periodcentered" format="2">
  <advance width="616"/>
  <unicode hex="00B7"/>
  <outline>
    <contour>
      <point x="307" y="651" type="qcurve" smooth="yes"/>
      <point x="244" y="651"/>
      <point x="160" y="740"/>
      <point x="160" y="801" type="qcurve" smooth="yes"/>
      <point x="160" y="863"/>
      <point x="246" y="948"/>
      <point x="307" y="948" type="qcurve" smooth="yes"/>
      <point x="370" y="948"/>
      <point x="457" y="862"/>
      <point x="457" y="801" type="qcurve" smooth="yes"/>
      <point x="457" y="741"/>
      <point x="370" y="651"/>
    </contour>
  </outline>
</glyph>
<glyph name="cedilla" format="2">
  <advance width="561"/>
  <unicode hex="00B8"/>
  <anchor x="277" y="-500" name="b.uni0326_2"/>
  <outline>
    <contour>
      <point x="256" y="-522" type="qcurve" smooth="yes"/>
      <point x="191" y="-522"/>
      <point x="84" y="-449"/>
      <point x="59" y="-393" type="qcurve"/>
      <point x="195" y="-336" type="line"/>
      <point x="203" y="-356"/>
      <point x="238" y="-383"/>
      <point x="262" y="-383" type="qcurve" smooth="yes"/>
      <point x="297" y="-383"/>
      <point x="342" y="-339"/>
      <point x="342" y="-305" type="qcurve" smooth="yes"/>
      <point x="342" y="-256"/>
      <point x="247" y="-195"/>
      <point x="174" y="-195" type="qcurve" smooth="yes"/>
      <point x="104" y="-195" type="line"/>
      <point x="227" y="-2" type="line"/>
      <point x="371" y="-2" type="line"/>
      <point x="295" y="-100" type="line"/>
      <point x="391" y="-114"/>
      <point x="485" y="-219"/>
      <point x="485" y="-297" type="qcurve" smooth="yes"/>
      <point x="485" y="-398"/>
      <point x="349" y="-522"/>
    </contour>
  </outline>
</glyph>
<glyph name="onesuperior" format="2">
  <advance width="813"/>
  <unicode hex="00B9"/>
  <outline>
    <contour>
      <point x="558" y="486" type="line"/>
      <point x="370" y="486" type="line"/>
      <point x="370" y="1160" type="line"/>
      <point x="121" y="1160" type="line"/>
      <point x="121" y="1305" type="line"/>
      <point x="276" y="1305" type="line" smooth="yes"/>
      <point x="322" y="1305"/>
      <point x="377" y="1353"/>
      <point x="377" y="1403" type="qcurve" smooth="yes"/>
      <point x="377" y="1428" type="line"/>
      <point x="558" y="1428" type="line"/>
    </contour>
  </outline>
</glyph>
<glyph name="guillemotright" format="2">
  <advance width="956"/>
  <unicode hex="00BB"/>
  <outline>
    <contour>
      <point x="145" y="156" type="line"/>
      <point x="145" y="367" type="line"/>
      <point x="326" y="510" type="line"/>
      <point x="145" y="655" type="line"/>
      <point x="145" y="866" type="line"/>
      <point x="573" y="510" type="line"/>
    </contour>
    <contour>
      <point x="508" y="156" type="line"/>
      <point x="508" y="367" type="line"/>
      <point x="688" y="510" type="line"/>
      <point x="508" y="655" type="line"/>
      <point x="508" y="866" type="line"/>
      <point x="936" y="510" type="line"/>
    </contour>
  </outline>
</glyph>
<glyph name="AE" format="2">
  <advance width="1858"/>
  <unicode hex="00C6"/>
  <outline>
    <contour>
      <point x="1757" y="0" type="line"/>
      <point x="776" y="0" type="line"/>
      <point x="776" y="307" type="line"/>
      <point x="379" y="307" type="line"/>
      <point x="268" y="0" type="line"/>
      <point x="12" y="0" type="line"/>
      <point x="571" y="1413" type="line"/>
      <point x="1757" y="1413" type="line"/>
      <point x="1757" y="1200" type="line"/>
      <point x="1010" y="1200" type="line"/>
      <point x="1010" y="813" type="line"/>
      <point x="1669" y="813" type="line"/>
      <point x="1669" y="600" type="line"/>
      <point x="1010" y="600" type="line"/>
      <point x="1010" y="219" type="line"/>
      <point x="1757" y="219" type="line"/>
    </contour>
    <contour>
      <point x="776" y="504" type="line"/>
      <point x="776" y="1200" type="line"/>
      <point x="729" y="1200" type="line"/>
      <point x="459" y="504" type="line"/>
    </contour>
  </outline>
</glyph>
<glyph name="multiply" format="2">
  <advance width="1090"/>
  <unicode hex="00D7"/>
  <outline>
    <contour>
      <point x="221" y="172" type="line"/>
      <point x="92" y="301" type="line"/>
      <point x="414" y="625" type="line"/>
      <point x="113" y="926" type="line"/>
      <point x="244" y="1057" type="line"/>
      <point x="545" y="756" type="line"/>
      <point x="868" y="1077" type="line"/>
      <point x="997" y="948" type="line"/>
      <point x="676" y="625" type="line"/>
      <point x="977" y="324" type="line"/>
      <point x="846" y="193" type="line"/>
      <point x="545" y="494" type="line"/>
    </contour>
  </outline>
</glyph>
<glyph name="Thorn" format="2">
  <advance width="1151"/>
  <unicode hex="00DE"/>
  <outline>
    <contour>
      <point x="414" y="0" type="line"/>
      <point x="182" y="0" type="line"/>
      <point x="182" y="1413" type="line"/>
      <point x="414" y="1413" type="line"/>
      <point x="414" y="1219" type="line"/>
      <point x="670" y="1219" type="line" smooth="yes"/>
      <point x="813" y="1219"/>
      <point x="1006" y="1120"/>
      <point x="1104" y="940"/>
      <point x="1104" y="819" type="qcurve" smooth="yes"/>
      <point x="1104" y="677"/>
      <point x="978" y="490"/>
      <point x="757" y="397"/>
      <point x="614" y="397" type="qcurve" smooth="yes"/>
      <point x="414" y="397" type="line"/>
    </contour>
    <contour>
      <point x="614" y="608" type="line" smooth="yes"/>
      <point x="872" y="608"/>
      <point x="872" y="806" type="qcurve" smooth="yes"/>
      <point x="872" y="1020"/>
      <point x="614" y="1020" type="qcurve" smooth="yes"/>
      <point x="414" y="1020" type="line"/>
      <point x="414" y="608" type="line"/>
    </contour>
  </outline>
</glyph>
<glyph name="germandbls" format="2">
  <advance width="1186"/>
  <unicode hex="00DF"/>
  <outline>
    <contour>
      <point x="729" y="-18" type="qcurve" smooth="yes"/>
      <point x="631" y="-18"/>
      <point x="526" y="18" type="qcurve"/>
      <point x="610" y="225" type="line"/>
      <point x="666" y="203"/>
      <point x="723" y="203" type="qcurve" smooth="yes"/>
      <point x="789" y="203"/>
      <point x="860" y="271"/>
      <point x="860" y="319" type="qcurve" smooth="yes"/>
      <point x="860" y="368"/>
      <point x="795" y="448"/>
      <point x="732" y="499" type="qcurve" smooth="yes"/>
      <point x="678" y="544"/>
      <point x="610" y="615"/>
      <point x="565" y="705"/>
      <point x="565" y="762" type="qcurve" smooth="yes"/>
      <point x="565" y="833"/>
      <point x="629" y="914"/>
      <point x="687" y="952" type="qcurve" smooth="yes"/>
      <point x="737" y="985"/>
      <point x="782" y="1040"/>
      <point x="782" y="1081" type="qcurve" smooth="yes"/>
      <point x="782" y="1116"/>
      <point x="744" y="1182"/>
      <point x="662" y="1225"/>
      <point x="596" y="1225" type="qcurve" smooth="yes"/>
      <point x="489" y="1225"/>
      <point x="389" y="1110"/>
      <point x="389" y="1020" type="qcurve" smooth="yes"/>
      <point x="389" y="0" type="line"/>
      <point x="147" y="0" type="line"/>
      <point x="147" y="1020" type="line" smooth="yes"/>
      <point x="147" y="1152"/>
      <point x="270" y="1337"/>
      <point x="468" y="1434"/>
      <point x="582" y="1434" type="qcurve" smooth="yes"/>
      <point x="688" y="1434"/>
      <point x="892" y="1346"/>
      <point x="961" y="1258" type="qcurve"/>
      <point x="1024" y="1174"/>
      <point x="1024" y="1065" type="qcurve" smooth="yes"/>
      <point x="1024" y="996"/>
      <point x="977" y="904"/>
      <point x="911" y="854"/>
      <point x="870" y="829" type="qcurve" smooth="yes"/>
      <point x="828" y="803"/>
      <point x="791" y="772"/>
      <point x="791" y="752" type="qcurve" smooth="yes"/>
      <point x="791" y="729"/>
      <point x="835" y="685"/>
      <point x="888" y="649" type="qcurve" smooth="yes"/>
      <point x="955" y="604"/>
      <point x="999" y="563" type="qcurve" smooth="yes"/>
      <point x="1106" y="461"/>
      <point x="1106" y="322" type="qcurve" smooth="yes"/>
      <point x="1106" y="218"/>
      <point x="1004" y="65"/>
      <point x="832" y="-18"/>
    </contour>
  </outline>
</glyph>
<glyph name="ccedilla" format="2">
  <advance width="1004"/>
  <unicode hex="00E7"/>
  <outline>
    <contour>
      <point x="496" y="-522" type="qcurve" smooth="yes"/>
      <point x="431" y="-522"/>
      <point x="324" y="-449"/>
      <point x="299" y="-393" type="qcurve"/>
      <point x="435" y="-336" type="line"/>
      <point x="443" y="-356"/>
      <point x="478" y="-383"/>
      <point x="502" y="-383" type="qcurve" smooth="yes"/>
      <point x="537" y="-383"/>
      <point x="582" y="-339"/>
      <point x="582" y="-305" type="qcurve" smooth="yes"/>
      <point x="582" y="-256"/>
      <point x="487" y="-195"/>
      <point x="414" y="-195" type="qcurve" smooth="yes"/>
      <point x="344" y="-195" type="line"/>
      <point x="459" y="-14" type="line"/>
      <point x="326" y="6"/>
      <point x="147" y="155"/>
      <point x="57" y="375"/>
      <point x="57" y="498" type="qcurve" smooth="yes"/>
      <point x="57" y="628"/>
      <point x="161" y="865"/>
      <point x="274" y="944" type="qcurve"/>
      <point x="383" y="1016"/>
      <point x="539" y="1016" type="qcurve" smooth="yes"/>
      <point x="693" y="1016"/>
      <point x="915" y="856"/>
      <point x="971" y="725" type="qcurve"/>
      <point x="739" y="635" type="line"/>
      <point x="718" y="710"/>
      <point x="611" y="786"/>
      <point x="539" y="786" type="qcurve" smooth="yes"/>
      <point x="458" y="786"/>
      <point x="354" y="707"/>
      <point x="305" y="576"/>
      <point x="305" y="498" type="qcurve" smooth="yes"/>
      <point x="305" y="373"/>
      <point x="419" y="209"/>
      <point x="539" y="209" type="qcurve" smooth="yes"/>
      <point x="614" y="209"/>
      <point x="719" y="290"/>
      <point x="739" y="360" type="qcurve"/>
      <point x="961" y="276" type="line"/>
      <point x="863" y="18"/>
      <point x="600" y="-17" type="qcurve"/>
      <point x="535" y="-100" type="line"/>
      <point x="631" y="-114"/>
      <point x="725" y="-219"/>
      <point x="725" y="-297" type="qcurve" smooth="yes"/>
      <point x="725" y="-398"/>
      <point x="589" y="-522"/>
    </contour>
  </outline>
</glyph>
<glyph name="oslash" format="2">
  <advance width="1128"/>
  <unicode hex="00F8"/>
  <outline>
    <contour>
      <point x="563" y="-20" type="qcurve" smooth="yes"/>
      <point x="442" y="-20"/>
      <point x="340" y="27" type="qcurve"/>
      <point x="323" y="-1" type="line"/>
      <point x="194" y="-1" type="line"/>
      <point x="245" y="83" type="line"/>
      <point x="154" y="153"/>
      <point x="51" y="367"/>
      <point x="51" y="496" type="qcurve" smooth="yes"/>
      <point x="51" y="631"/>
      <point x="174" y="868"/>
      <point x="296" y="943" type="qcurve"/>
      <point x="412" y="1012"/>
      <point x="563" y="1012" type="qcurve" smooth="yes"/>
      <point x="680" y="1012"/>
      <point x="781" y="968" type="qcurve"/>
      <point x="800" y="999" type="line"/>
      <point x="929" y="999" type="line"/>
      <point x="876" y="912" type="line"/>
      <point x="970" y="841"/>
      <point x="1075" y="625"/>
      <point x="1075" y="496" type="qcurve" smooth="yes"/>
      <point x="1075" y="360"/>
      <point x="952" y="123"/>
      <point x="831" y="49" type="qcurve"/>
      <point x="714" y="-20"/>
    </contour>
    <contour>
      <point x="365" y="281" type="qcurve"/>
      <point x="668" y="782" type="line"/>
      <point x="621" y="801"/>
      <point x="563" y="801" type="qcurve" smooth="yes"/>
      <point x="473" y="801"/>
      <point x="359" y="719"/>
      <point x="305" y="580"/>
      <point x="305" y="496" type="qcurve" smooth="yes"/>
      <point x="305" y="364"/>
    </contour>
    <contour>
      <point x="563" y="190" type="qcurve" smooth="yes"/>
      <point x="694" y="190"/>
      <point x="821" y="362"/>
      <point x="821" y="496" type="qcurve" smooth="yes"/>
      <point x="821" y="632"/>
      <point x="757" y="715" type="qcurve"/>
      <point x="452" y="212" type="line"/>
      <point x="501" y="190"/>
    </contour>
  </outline>
</glyph>
<glyph name="aogonek" format="2">
  <advance width="1061"/>
  <unicode hex="0105"/>
  <outline>
    <contour>
      <point x="817" y="-451" type="qcurve" smooth="yes"/>
      <point x="753" y="-451"/>
      <point x="650" y="-399"/>
      <point x="592" y="-306"/>
      <point x="592" y="-246" type="qcurve" smooth="yes"/>
      <point x="592" y="-174"/>
      <point x="665" y="-65"/>
      <point x="711" y="-30" type="qcurve" smooth="yes"/>
      <point x="744" y="-4"/>
      <point x="752" y="0" type="qcurve"/>
      <point x="745" y="0" type="line"/>
      <point x="729" y="143" type="line"/>
      <point x="668" y="55"/>
      <point x="514" y="-20"/>
      <point x="418" y="-20" type="qcurve" smooth="yes"/>
      <point x="315" y="-20"/>
      <point x="143" y="58"/>
      <point x="43" y="207"/>
      <point x="43" y="307" type="qcurve" smooth="yes"/>
      <point x="43" y="460"/>
      <point x="269" y="596"/>
      <point x="453" y="596" type="qcurve" smooth="yes"/>
      <point x="713" y="596" type="line"/>
      <point x="713" y="694"/>
      <point x="611" y="803"/>
      <point x="516" y="803" type="qcurve" smooth="yes"/>
      <point x="435" y="803"/>
      <point x="317" y="728"/>
      <point x="281" y="666" type="qcurve"/>
      <point x="94" y="801" type="line"/>
      <point x="171" y="905"/>
      <point x="373" y="1016"/>
      <point x="512" y="1016" type="qcurve" smooth="yes"/>
      <point x="647" y="1016"/>
      <point x="843" y="914"/>
      <point x="946" y="728"/>
      <point x="946" y="606" type="qcurve" smooth="yes"/>
      <point x="946" y="0" type="line"/>
      <point x="923" y="-7"/>
      <point x="824" y="-62"/>
      <point x="737" y="-154"/>
      <point x="737" y="-213" type="qcurve" smooth="yes"/>
      <point x="737" y="-262"/>
      <point x="777" y="-301"/>
      <point x="811" y="-301" type="qcurve" smooth="yes"/>
      <point x="873" y="-301"/>
      <point x="914" y="-244" type="qcurve"/>
      <point x="1036" y="-328" type="line"/>
      <point x="955" y="-451"/>
    </contour>
    <contour>
      <point x="453" y="186" type="qcurve" smooth="yes"/>
      <point x="525" y="186"/>
      <point x="641" y="253"/>
      <point x="710" y="359"/>
      <point x="713" y="420" type="qcurve"/>
      <point x="467" y="420" type="line" smooth="yes"/>
      <point x="383" y="420"/>
      <point x="293" y="346"/>
      <point x="293" y="299" type="qcurve" smooth="yes"/>
      <point x="293" y="248"/>
      <point x="383" y="186"/>
    </contour>
  </outline>
</glyph>
<glyph name="dcaron" format="2">
  <advance width="1280"/>
  <unicode hex="010F"/>
  <outline>
    <contour>
      <point x="496" y="-20" type="qcurve" smooth="yes"/>
      <point x="355" y="-20"/>
      <point x="162" y="124"/>
      <point x="63" y="360"/>
      <point x="63" y="500" type="qcurve" smooth="yes"/>
      <point x="63" y="635"/>
      <point x="160" y="873"/>
      <point x="261" y="949" type="qcurve"/>
      <point x="358" y="1020"/>
      <point x="492" y="1020" type="qcurve" smooth="yes"/>
      <point x="572" y="1020"/>
      <point x="723" y="962"/>
      <point x="776" y="899" type="qcurve"/>
      <point x="776" y="1413" type="line"/>
      <point x="1024" y="1413" type="line"/>
      <point x="1024" y="0" type="line"/>
      <point x="776" y="0" type="line"/>
      <point x="776" y="100" type="line"/>
      <point x="724" y="36"/>
      <point x="578" y="-20"/>
    </contour>
    <contour>
      <point x="1278" y="958" type="line"/>
      <point x="1135" y="958" type="line"/>
      <point x="1249" y="1413" type="line"/>
      <point x="1505" y="1413" type="line"/>
    </contour>
    <contour>
      <point x="555" y="205" type="qcurve" smooth="yes"/>
      <point x="640" y="205"/>
      <point x="746" y="281"/>
      <point x="797" y="415"/>
      <point x="797" y="500" type="qcurve" smooth="yes"/>
      <point x="797" y="634"/>
      <point x="675" y="799"/>
      <point x="555" y="799" type="qcurve" smooth="yes"/>
      <point x="435" y="799"/>
      <point x="311" y="632"/>
      <point x="311" y="500" type="qcurve" smooth="yes"/>
      <point x="311" y="415"/>
      <point x="363" y="282"/>
      <point x="470" y="205"/>
    </contour>
  </outline>
</glyph>
<glyph name="eogonek" format="2">
  <advance width="1067"/>
  <unicode hex="0119"/>
  <outline>
    <contour>
      <point x="694" y="-404" type="qcurve" smooth="yes"/>
      <point x="596" y="-404"/>
      <point x="469" y="-291"/>
      <point x="469" y="-199" type="qcurve" smooth="yes"/>
      <point x="469" y="-93"/>
      <point x="554" y="-12" type="qcurve"/>
      <point x="430" y="-12"/>
      <point x="243" y="70"/>
      <point x="118" y="210"/>
      <point x="55" y="393"/>
      <point x="55" y="494" type="qcurve" smooth="yes"/>
      <point x="55" y="624"/>
      <point x="159" y="861"/>
      <point x="272" y="940" type="qcurve"/>
      <point x="381" y="1012"/>
      <point x="537" y="1012" type="qcurve" smooth="yes"/>
      <point x="709" y="1012"/>
      <point x="919" y="868"/>
      <point x="1008" y="637"/>
      <point x="1008" y="496" type="qcurve" smooth="yes"/>
      <point x="1008" y="445"/>
      <point x="999" y="420" type="qcurve"/>
      <point x="313" y="420" type="line"/>
      <point x="325" y="327"/>
      <point x="442" y="215"/>
      <point x="553" y="215" type="qcurve" smooth="yes"/>
      <point x="642" y="215"/>
      <point x="755" y="257"/>
      <point x="803" y="307" type="qcurve"/>
      <point x="971" y="160" type="line"/>
      <point x="880" y="63"/>
      <point x="767" y="22" type="qcurve"/>
      <point x="614" y="-62"/>
      <point x="614" y="-166" type="qcurve" smooth="yes"/>
      <point x="614" y="-214"/>
      <point x="653" y="-254"/>
      <point x="688" y="-254" type="qcurve" smooth="yes"/>
      <point x="749" y="-254"/>
      <point x="791" y="-197" type="qcurve"/>
      <point x="913" y="-281" type="line"/>
      <point x="832" y="-404"/>
    </contour>
    <contour>
      <point x="768" y="596" type="line"/>
      <point x="742" y="807"/>
      <point x="537" y="807" type="qcurve" smooth="yes"/>
      <point x="436" y="807"/>
      <point x="329" y="691"/>
      <point x="313" y="596" type="qcurve"/>
    </contour>
  </outline>
</glyph>
<glyph name="Hbar" format="2">
  <advance width="1491"/>
  <unicode hex="0126"/>
  <outline>
    <contour>
      <point x="1309" y="0" type="line"/>
      <point x="1055" y="0" type="line"/>
      <point x="1055" y="590" type="line"/>
      <point x="436" y="590" type="line"/>
      <point x="436" y="0" type="line"/>
      <point x="182" y="0" type="line"/>
      <point x="182" y="1043" type="line"/>
      <point x="79" y="1043" type="line"/>
      <point x="79" y="1186" type="line"/>
      <point x="182" y="1186" type="line"/>
      <point x="182" y="1413" type="line"/>
      <point x="436" y="1413" type="line"/>
      <point x="436" y="1186" type="line"/>
      <point x="1055" y="1186" type="line"/>
      <point x="1055" y="1413" type="line"/>
      <point x="1309" y="1413" type="line"/>
      <point x="1309" y="1186" type="line"/>
      <point x="1410" y="1186" type="line"/>
      <point x="1410" y="1043" type="line"/>
      <point x="1309" y="1043" type="line"/>
    </contour>
    <contour>
      <point x="1055" y="823" type="line"/>
      <point x="1055" y="1043" type="line"/>
      <point x="436" y="1043" type="line"/>
      <point x="436" y="823" type="line"/>
    </contour>
  </outline>
</glyph>
<glyph name="kgreenlandic" format="2">
  <advance width="1116"/>
  <unicode hex="0138"/>
  <outline>
    <contour>
      <point x="1124" y="0" type="line"/>
      <point x="836" y="0" type="line"/>
      <point x="543" y="463" type="line"/>
      <point x="389" y="293" type="line"/>
      <point x="389" y="0" type="line"/>
      <point x="145" y="0" type="line"/>
      <point x="145" y="999" type="line"/>
      <point x="389" y="999" type="line"/>
      <point x="389" y="584" type="line"/>
      <point x="766" y="999" type="line"/>
      <point x="1083" y="999" type="line"/>
      <point x="709" y="612" type="line"/>
    </contour>
  </outline>
</glyph>
<glyph name="Lcaron" format="2">
  <advance width="1100"/>
  <unicode hex="013D"/>
  <outline>
    <contour>
      <point x="1040" y="0" type="line"/>
      <point x="182" y="0" type="line"/>
      <point x="182" y="1413" type="line"/>
      <point x="436" y="1413" type="line"/>
      <point x="436" y="240" type="line"/>
      <point x="1040" y="240" type="line"/>
    </contour>
    <contour>
      <point x="813" y="958" type="line"/>
      <point x="670" y="958" type="line"/>
      <point x="784" y="1413" type="line"/>
      <point x="1040" y="1413" type="line"/>
    </contour>
  </outline>
</glyph>
<glyph name="eng" format="2">
  <advance width="1157"/>
  <unicode hex="014B"/>
  <outline>
    <contour>
      <point x="725" y="-369" type="qcurve" smooth="yes"/>
      <point x="604" y="-369" type="line"/>
      <point x="604" y="-168" type="line"/>
      <point x="680" y="-168" type="line" smooth="yes"/>
      <point x="736" y="-168"/>
      <point x="789" y="-120"/>
      <point x="801" y="-51"/>
      <point x="801" y="-2" type="qcurve" smooth="yes"/>
      <point x="801" y="571" type="line" smooth="yes"/>
      <point x="801" y="677"/>
      <point x="728" y="799"/>
      <point x="637" y="799" type="qcurve" smooth="yes"/>
      <point x="565" y="799"/>
      <point x="450" y="726"/>
      <point x="383" y="611"/>
      <point x="383" y="549" type="qcurve" smooth="yes"/>
      <point x="383" y="0" type="line"/>
      <point x="145" y="0" type="line"/>
      <point x="145" y="999" type="line"/>
      <point x="383" y="999" type="line"/>
      <point x="383" y="872" type="line"/>
      <point x="441" y="949"/>
      <point x="597" y="1016"/>
      <point x="676" y="1016" type="qcurve" smooth="yes"/>
      <point x="802" y="1016"/>
      <point x="962" y="900"/>
      <point x="1038" y="711"/>
      <point x="1038" y="602" type="qcurve" smooth="yes"/>
      <point x="1038" y="-66" type="line" smooth="yes"/>
      <point x="1038" y="-131"/>
      <point x="1004" y="-259"/>
      <point x="866" y="-369"/>
    </contour>
  </outline>
</glyph>
<glyph name="oe" format="2">
  <advance width="1829"/>
  <unicode hex="0153"/>
  <outline>
    <contour>
      <point x="563" y="-20" type="qcurve" smooth="yes"/>
      <point x="405" y="-20"/>
      <point x="175" y="123"/>
      <point x="51" y="358"/>
      <point x="51" y="496" type="qcurve" smooth="yes"/>
      <point x="51" y="631"/>
      <point x="172" y="868"/>
      <point x="295" y="943" type="qcurve"/>
      <point x="411" y="1012"/>
      <point x="563" y="1012" type="qcurve" smooth="yes"/>
      <point x="682" y="1012"/>
      <point x="870" y="918"/>
      <point x="934" y="842" type="qcurve"/>
      <point x="1066" y="1012"/>
      <point x="1288" y="1012" type="qcurve" smooth="yes"/>
      <point x="1461" y="1012"/>
      <point x="1673" y="868"/>
      <point x="1763" y="637"/>
      <point x="1763" y="498" type="qcurve" smooth="yes"/>
      <point x="1763" y="465"/>
      <point x="1757" y="421"/>
      <point x="1755" y="418" type="qcurve"/>
      <point x="1069" y="418" type="line"/>
      <point x="1083" y="332"/>
      <point x="1208" y="225"/>
      <point x="1317" y="225" type="qcurve" smooth="yes"/>
      <point x="1475" y="225"/>
      <point x="1573" y="332" type="qcurve"/>
      <point x="1749" y="176" type="line"/>
      <point x="1570" y="-12"/>
      <point x="1319" y="-12" type="qcurve" smooth="yes"/>
      <point x="1190" y="-12"/>
      <point x="996" y="79"/>
      <point x="938" y="154" type="qcurve"/>
      <point x="872" y="72"/>
      <point x="684" y="-20"/>
    </contour>
    <contour>
      <point x="557" y="186" type="qcurve" smooth="yes"/>
      <point x="686" y="186"/>
      <point x="815" y="356"/>
      <point x="815" y="496" type="qcurve" smooth="yes"/>
      <point x="815" y="636"/>
      <point x="692" y="803"/>
      <point x="563" y="803" type="qcurve" smooth="yes"/>
      <point x="434" y="803"/>
      <point x="305" y="634"/>
      <point x="305" y="494" type="qcurve" smooth="yes"/>
      <point x="305" y="353"/>
      <point x="428" y="186"/>
    </contour>
    <contour>
      <point x="1513" y="596" type="line"/>
      <point x="1498" y="700"/>
      <point x="1386" y="799"/>
      <point x="1288" y="799" type="qcurve" smooth="yes"/>
      <point x="1191" y="799"/>
      <point x="1087" y="687"/>
      <point x="1071" y="596" type="qcurve"/>
    </contour>
  </outline>
</glyph>
<glyph name="Scedilla" format="2">
  <advance width="1137"/>
  <unicode hex="015E"/>
  <outline>
    <contour>
      <point x="522" y="-522" type="qcurve" smooth="yes"/>
      <point x="457" y="-522"/>
      <point x="350" y="-449"/>
      <point x="325" y="-393" type="qcurve"/>
      <point x="461" y="-336" type="line"/>
      <point x="469" y="-356"/>
      <point x="504" y="-383"/>
      <point x="528" y="-383" type="qcurve" smooth="yes"/>
      <point x="563" y="-383"/>
      <point x="608" y="-339"/>
      <point x="608" y="-305" type="qcurve" smooth="yes"/>
      <point x="608" y="-256"/>
      <point x="513" y="-195"/>
      <point x="440" y="-195" type="qcurve" smooth="yes"/>
      <point x="370" y="-195" type="line"/>
      <point x="489" y="-9" type="line"/>
      <point x="327" y="13"/>
      <point x="79" y="214"/>
      <point x="45" y="399" type="qcurve"/>
      <point x="297" y="463" type="line"/>
      <point x="313" y="332"/>
      <point x="476" y="209"/>
      <point x="590" y="209" type="qcurve" smooth="yes"/>
      <point x="704" y="209"/>
      <point x="823" y="314"/>
      <point x="823" y="389" type="qcurve" smooth="yes"/>
      <point x="823" y="450"/>
      <point x="786" y="493" type="qcurve" smooth="yes"/>
      <point x="751" y="532"/>
      <point x="638" y="592"/>
      <point x="538" y="631" type="qcurve" smooth="yes"/>
      <point x="410" y="682"/>
      <point x="252" y="769"/>
      <point x="139" y="925"/>
      <point x="139" y="1044" type="qcurve" smooth="yes"/>
      <point x="139" y="1170"/>
      <point x="261" y="1344"/>
      <point x="461" y="1434"/>
      <point x="580" y="1434" type="qcurve" smooth="yes"/>
      <point x="709" y="1434"/>
      <point x="935" y="1316"/>
      <point x="1010" y="1186" type="qcurve"/>
      <point x="799" y="1057" type="line"/>
      <point x="760" y="1131"/>
      <point x="640" y="1208"/>
      <point x="571" y="1208" type="qcurve" smooth="yes"/>
      <point x="498" y="1208"/>
      <point x="393" y="1126"/>
      <point x="393" y="1057" type="qcurve" smooth="yes"/>
      <point x="393" y="1002"/>
      <point x="463" y="926"/>
      <point x="570" y="875"/>
      <point x="663" y="839" type="qcurve" smooth="yes"/>
      <point x="795" y="788"/>
      <point x="959" y="698"/>
      <point x="1077" y="536"/>
      <point x="1077" y="412" type="qcurve" smooth="yes"/>
      <point x="1077" y="285"/>
      <point x="956" y="100"/>
      <point x="754" y="-7"/>
      <point x="627" y="-15" type="qcurve"/>
      <point x="561" y="-100" type="line"/>
      <point x="657" y="-114"/>
      <point x="751" y="-219"/>
      <point x="751" y="-297" type="qcurve" smooth="yes"/>
      <point x="751" y="-398"/>
      <point x="615" y="-522"/>
    </contour>
  </outline>
</glyph>
<glyph name="tcedilla" format="2">
  <advance width="754"/>
  <unicode hex="0163"/>
  <outline>
    <contour>
      <point x="451" y="-522" type="qcurve" smooth="yes"/>
      <point x="386" y="-522"/>
      <point x="279" y="-449"/>
      <point x="254" y="-393" type="qcurve"/>
      <point x="390" y="-336" type="line"/>
      <point x="398" y="-356"/>
      <point x="433" y="-383"/>
      <point x="457" y="-383" type="qcurve" smooth="yes"/>
      <point x="492" y="-383"/>
      <point x="537" y="-339"/>
      <point x="537" y="-305" type="qcurve" smooth="yes"/>
      <point x="537" y="-256"/>
      <point x="442" y="-195"/>
      <point x="369" y="-195" type="qcurve" smooth="yes"/>
      <point x="299" y="-195" type="line"/>
      <point x="416" y="-12" type="line"/>
      <point x="307" y="9"/>
      <point x="186" y="158"/>
      <point x="186" y="276" type="qcurve" smooth="yes"/>
      <point x="186" y="795" type="line"/>
      <point x="25" y="795" type="line"/>
      <point x="25" y="999" type="line"/>
      <point x="190" y="999" type="line"/>
      <point x="190" y="1247" type="line"/>
      <point x="420" y="1421" type="line"/>
      <point x="420" y="999" type="line"/>
      <point x="680" y="999" type="line"/>
      <point x="680" y="795" type="line"/>
      <point x="420" y="795" type="line"/>
      <point x="420" y="319" type="line" smooth="yes"/>
      <point x="420" y="195"/>
      <point x="541" y="195" type="qcurve" smooth="yes"/>
      <point x="609" y="195"/>
      <point x="680" y="231" type="qcurve"/>
      <point x="680" y="10" type="line"/>
      <point x="632" y="-7"/>
      <point x="554" y="-17" type="qcurve"/>
      <point x="490" y="-100" type="line"/>
      <point x="586" y="-114"/>
      <point x="680" y="-219"/>
      <point x="680" y="-297" type="qcurve" smooth="yes"/>
      <point x="680" y="-398"/>
      <point x="544" y="-522"/>
    </contour>
  </outline>
</glyph>
<glyph name="tcaron" format="2">
  <advance width="760"/>
  <unicode hex="0165"/>
  <outline>
    <contour>
      <point x="674" y="1145" type="line"/>
      <point x="532" y="1145" type="line"/>
      <point x="668" y="1599" type="line"/>
      <point x="922" y="1599" type="line"/>
    </contour>
    <contour>
      <point x="479" y="-20" type="qcurve" smooth="yes"/>
      <point x="334" y="-20"/>
      <point x="188" y="143"/>
      <point x="188" y="276" type="qcurve" smooth="yes"/>
      <point x="188" y="778" type="line"/>
      <point x="27" y="778" type="line"/>
      <point x="27" y="999" type="line"/>
      <point x="193" y="999" type="line"/>
      <point x="193" y="1247" type="line"/>
      <point x="422" y="1421" type="line"/>
      <point x="422" y="999" type="line"/>
      <point x="682" y="999" type="line"/>
      <point x="682" y="778" type="line"/>
      <point x="422" y="778" type="line"/>
      <point x="422" y="279" type="line" smooth="yes"/>
      <point x="422" y="232"/>
      <point x="471" y="197"/>
      <point x="514" y="197" type="qcurve" smooth="yes"/>
      <point x="589" y="197"/>
      <point x="682" y="230"/>
      <point x="682" y="231" type="qcurve"/>
      <point x="682" y="10" type="line" smooth="yes"/>
      <point x="682" y="8"/>
      <point x="574" y="-20"/>
    </contour>
  </outline>
</glyph>
<glyph name="tbar" format="2">
  <advance width="754"/>
  <unicode hex="0167"/>
  <outline>
    <contour>
      <point x="500" y="-20" type="qcurve" smooth="yes"/>
      <point x="351" y="-20"/>
      <point x="186" y="141"/>
      <point x="186" y="276" type="qcurve" smooth="yes"/>
      <point x="186" y="418" type="line"/>
      <point x="40" y="418" type="line"/>
      <point x="40" y="582" type="line"/>
      <point x="186" y="582" type="line"/>
      <point x="186" y="795" type="line"/>
      <point x="25" y="795" type="line"/>
      <point x="25" y="999" type="line"/>
      <point x="190" y="999" type="line"/>
      <point x="190" y="1247" type="line"/>
      <point x="420" y="1421" type="line"/>
      <point x="420" y="999" type="line"/>
      <point x="680" y="999" type="line"/>
      <point x="680" y="795" type="line"/>
      <point x="420" y="795" type="line"/>
      <point x="420" y="582" type="line"/>
      <point x="675" y="582" type="line"/>
      <point x="675" y="418" type="line"/>
      <point x="420" y="418" type="line"/>
      <point x="420" y="319" type="line" smooth="yes"/>
      <point x="420" y="195"/>
      <point x="541" y="195" type="qcurve" smooth="yes"/>
      <point x="609" y="195"/>
      <point x="680" y="231" type="qcurve"/>
      <point x="680" y="10" type="line"/>
      <point x="649" y="-2"/>
      <point x="550" y="-20"/>
    </contour>
  </outline>
</glyph>
<glyph name="Uogonek" format="2">
  <advance width="1380"/>
  <unicode hex="0172"/>
  <outline>
    <contour>
      <point x="868" y="-400" type="qcurve" smooth="yes"/>
      <point x="770" y="-400"/>
      <point x="643" y="-287"/>
      <point x="643" y="-195" type="qcurve" smooth="yes"/>
      <point x="643" y="-100"/>
      <point x="717" y="-20" type="qcurve"/>
      <point x="690" y="-20" type="line" smooth="yes"/>
      <point x="415" y="-20"/>
      <point x="150" y="281"/>
      <point x="150" y="551" type="qcurve" smooth="yes"/>
      <point x="150" y="1413" type="line"/>
      <point x="403" y="1413" type="line"/>
      <point x="403" y="580" type="line" smooth="yes"/>
      <point x="403" y="454"/>
      <point x="457" y="303"/>
      <point x="517" y="266" type="qcurve"/>
      <point x="579" y="225"/>
      <point x="690" y="225" type="qcurve" smooth="yes"/>
      <point x="798" y="225"/>
      <point x="923" y="300"/>
      <point x="977" y="457"/>
      <point x="977" y="580" type="qcurve" smooth="yes"/>
      <point x="977" y="1413" type="line"/>
      <point x="1231" y="1413" type="line"/>
      <point x="1231" y="561" type="line" smooth="yes"/>
      <point x="1231" y="133"/>
      <point x="927" y="18" type="qcurve"/>
      <point x="788" y="-62"/>
      <point x="788" y="-162" type="qcurve" smooth="yes"/>
      <point x="788" y="-210"/>
      <point x="827" y="-250"/>
      <point x="862" y="-250" type="qcurve" smooth="yes"/>
      <point x="923" y="-250"/>
      <point x="965" y="-193" type="qcurve"/>
      <point x="1087" y="-277" type="line"/>
      <point x="1006" y="-400"/>
    </contour>
  </outline>
</glyph>
<glyph name="clickretroflex" format="2">
  <advance width="594"/>
  <unicode hex="01C3"/>
  <outline>
    <contour>
      <point x="389" y="428" type="line"/>
      <point x="205" y="428" type="line"/>
      <point x="176" y="1434" type="line"/>
      <point x="418" y="1434" type="line"/>
    </contour>
    <contour>
      <point x="430" y="0" type="line"/>
      <point x="164" y="0" type="line"/>
      <point x="164" y="264" type="line"/>
      <point x="430" y="264" type="line"/>
    </contour>
  </outline>
</glyph>
<glyph name="oogonek" format="2">
  <advance width="1128"/>
  <unicode hex="01EB"/>
  <outline>
    <contour>
      <point x="590" y="-451" type="qcurve" smooth="yes"/>
      <point x="492" y="-451"/>
      <point x="365" y="-338"/>
      <point x="365" y="-246" type="qcurve" smooth="yes"/>
      <point x="365" y="-167"/>
      <point x="450" y="-52"/>
      <point x="502" y="-17" type="qcurve"/>
      <point x="291" y="10"/>
      <point x="51" y="301"/>
      <point x="51" y="496" type="qcurve" smooth="yes"/>
      <point x="51" y="631"/>
      <point x="174" y="868"/>
      <point x="296" y="943" type="qcurve"/>
      <point x="412" y="1012"/>
      <point x="563" y="1012" type="qcurve" smooth="yes"/>
      <point x="721" y="1012"/>
      <point x="951" y="869"/>
      <point x="1075" y="634"/>
      <point x="1075" y="496" type="qcurve" smooth="yes"/>
      <point x="1075" y="313"/>
      <point x="877" y="48"/>
      <point x="713" y="0" type="qcurve"/>
      <point x="719" y="0" type="line"/>
      <point x="701" y="-5"/>
      <point x="633" y="-39"/>
      <point x="561" y="-93"/>
      <point x="510" y="-167"/>
      <point x="510" y="-213" type="qcurve" smooth="yes"/>
      <point x="510" y="-261"/>
      <point x="549" y="-301"/>
      <point x="584" y="-301" type="qcurve" smooth="yes"/>
      <point x="645" y="-301"/>
      <point x="687" y="-244" type="qcurve"/>
      <point x="809" y="-328" type="line"/>
      <point x="728" y="-451"/>
    </contour>
    <contour>
      <point x="563" y="190" type="qcurve" smooth="yes"/>
      <point x="694" y="190"/>
      <point x="821" y="362"/>
      <point x="821" y="496" type="qcurve" smooth="yes"/>
      <point x="821" y="629"/>
      <point x="694" y="801"/>
      <point x="563" y="801" type="qcurve" smooth="yes"/>
      <point x="473" y="801"/>
      <point x="359" y="719"/>
      <point x="305" y="580"/>
      <point x="305" y="496" type="qcurve" smooth="yes"/>
      <point x="305" y="362"/>
      <point x="433" y="190"/>
    </contour>
  </outline>
</glyph>
<glyph name="dotlessj" format="2">
  <advance width="530"/>
  <unicode hex="0237"/>
  <outline>
    <contour>
      <point x="88" y="-438" type="qcurve" smooth="yes"/>
      <point x="9" y="-438"/>
      <point x="-78" y="-406" type="qcurve"/>
      <point x="-23" y="-205" type="line"/>
      <point x="35" y="-219"/>
      <point x="82" y="-219" type="qcurve" smooth="yes"/>
      <point x="119" y="-219"/>
      <point x="150" y="-175"/>
      <point x="150" y="-123" type="qcurve" smooth="yes"/>
      <point x="150" y="999" type="line"/>
      <point x="383" y="999" type="line"/>
      <point x="383" y="-115" type="line" smooth="yes"/>
      <point x="383" y="-204"/>
      <point x="322" y="-350"/>
      <point x="192" y="-438"/>
    </contour>
  </outline>
</glyph>
<glyph name="aturned" format="2">
  <advance width="1096"/>
  <unicode hex="0250"/>
  <outline>
    <contour>
      <point x="578" y="-20" type="qcurve" smooth="yes"/>
      <point x="439" y="-20"/>
      <point x="245" y="85"/>
      <point x="145" y="269"/>
      <point x="145" y="389" type="qcurve" smooth="yes"/>
      <point x="145" y="995" type="line"/>
      <point x="336" y="995" type="line"/>
      <point x="362" y="852" type="line"/>
      <point x="421" y="937"/>
      <point x="575" y="1016"/>
      <point x="684" y="1016" type="qcurve" smooth="yes"/>
      <point x="776" y="1016"/>
      <point x="944" y="941"/>
      <point x="999" y="864" type="qcurve"/>
      <point x="1049" y="791"/>
      <point x="1049" y="696" type="qcurve" smooth="yes"/>
      <point x="1049" y="399"/>
      <point x="639" y="399" type="qcurve" smooth="yes"/>
      <point x="379" y="399" type="line"/>
      <point x="379" y="193"/>
      <point x="586" y="193" type="qcurve" smooth="yes"/>
      <point x="660" y="193"/>
      <point x="779" y="273"/>
      <point x="811" y="330" type="qcurve"/>
      <point x="997" y="195" type="line"/>
      <point x="916" y="83"/>
      <point x="709" y="-20"/>
    </contour>
    <contour>
      <point x="625" y="575" type="line" smooth="yes"/>
      <point x="706" y="575"/>
      <point x="799" y="649"/>
      <point x="799" y="696" type="qcurve" smooth="yes"/>
      <point x="799" y="747"/>
      <point x="708" y="809"/>
      <point x="639" y="809" type="qcurve" smooth="yes"/>
      <point x="567" y="809"/>
      <point x="451" y="742"/>
      <point x="382" y="636"/>
      <point x="379" y="575" type="qcurve"/>
    </contour>
  </outline>
</glyph>
<glyph name="colontriangularhalfmod" format="2">
  <advance width="561"/>
  <unicode hex="02D1"/>
  <outline>
    <contour>
      <point x="281" y="211" type="line"/>
      <point x="29" y="690" type="line"/>
      <point x="532" y="690" type="line"/>
    </contour>
  </outline>
</glyph>
<glyph name="uni02F6" format="2">
  <advance width="1049"/>
  <unicode hex="02F6"/>
  <outline>
    <contour>
      <point x="285" y="670" type="line"/>
      <point x="106" y="670" type="line"/>
      <point x="332" y="999" type="line"/>
      <point x="592" y="999" type="line"/>
    </contour>
    <contour>
      <point x="653" y="670" type="line"/>
      <point x="475" y="670" type="line"/>
      <point x="700" y="999" type="line"/>
      <point x="961" y="999" type="line"/>
    </contour>
  </outline>
</glyph>
<glyph name="gravecmb" format="2">
  <unicode hex="0300"/>
  <anchor x="-145" y="999" name="_t.ringcmb_1"/>
  <outline>
    <contour>
      <point x="-32" y="1104" type="line"/>
      <point x="-210" y="1104" type="line"/>
      <point x="-518" y="1413" type="line"/>
      <point x="-258" y="1413" type="line"/>
    </contour>
  </outline>
</glyph>
<glyph name="acutecmb" format="2">
  <unicode hex="0301"/>
  <anchor x="-342" y="999" name="_t.ringcmb_1"/>
  <outline>
    <contour>
      <point x="-326" y="1124" type="line"/>
      <point x="-504" y="1124" type="line"/>
      <point x="-279" y="1413" type="line"/>
      <point x="-19" y="1413" type="line"/>
    </contour>
  </outline>
</glyph>
<glyph name="circumflexcmb" format="2">
  <unicode hex="0302"/>
  <anchor x="-325" y="999" name="_t.ringcmb_1"/>
  <outline>
    <contour>
      <point x="-10" y="1098" type="line"/>
      <point x="-198" y="1098" type="line"/>
      <point x="-327" y="1243" type="line"/>
      <point x="-454" y="1098" type="line"/>
      <point x="-643" y="1098" type="line"/>
      <point x="-327" y="1450" type="line"/>
    </contour>
  </outline>
</glyph>
<glyph name="tildecmb" format="2">
  <unicode hex="0303"/>
  <anchor x="-436" y="1020" name="_t.ringcmb_1"/>
  <outline>
    <contour>
      <point x="-309" y="1126" type="qcurve" smooth="yes"/>
      <point x="-371" y="1126"/>
      <point x="-452" y="1176"/>
      <point x="-489" y="1218" type="qcurve"/>
      <point x="-515" y="1245"/>
      <point x="-550" y="1270"/>
      <point x="-569" y="1270" type="qcurve" smooth="yes"/>
      <point x="-633" y="1270"/>
      <point x="-634" y="1133" type="qcurve"/>
      <point x="-774" y="1133" type="line"/>
      <point x="-774" y="1277"/>
      <point x="-655" y="1419"/>
      <point x="-561" y="1419" type="qcurve" smooth="yes"/>
      <point x="-508" y="1419"/>
      <point x="-431" y="1374"/>
      <point x="-388" y="1330" type="qcurve" smooth="yes"/>
      <point x="-360" y="1302"/>
      <point x="-325" y="1278"/>
      <point x="-307" y="1278" type="qcurve" smooth="yes"/>
      <point x="-281" y="1278"/>
      <point x="-245" y="1346"/>
      <point x="-245" y="1413" type="qcurve"/>
      <point x="-100" y="1413" type="line"/>
      <point x="-100" y="1271"/>
      <point x="-214" y="1126"/>
    </contour>
  </outline>
</glyph>
<glyph name="caroncmb" format="2">
  <unicode hex="030C"/>
  <anchor x="-327" y="999" name="_t.ringcmb_1"/>
  <outline>
    <contour>
      <point x="-329" y="1079" type="line"/>
      <point x="-645" y="1411" type="line"/>
      <point x="-456" y="1411" type="line"/>
      <point x="-329" y="1276" type="line"/>
      <point x="-200" y="1411" type="line"/>
      <point x="-12" y="1411" type="line"/>
    </contour>
  </outline>
</glyph>
<glyph name="dblgravecmb" format="2">
  <unicode hex="030F"/>
  <anchor x="-342" y="999" name="_t.ringcmb_1"/>
  <outline>
    <contour>
      <point x="-403" y="1083" type="line"/>
      <point x="-581" y="1083" type="line"/>
      <point x="-889" y="1413" type="line"/>
      <point x="-629" y="1413" type="line"/>
    </contour>
    <contour>
      <point x="-35" y="1083" type="line"/>
      <point x="-213" y="1083" type="line"/>
      <point x="-520" y="1413" type="line"/>
      <point x="-260" y="1413" type="line"/>
    </contour>
  </outline>
</glyph>
<glyph name="horncmb" format="2">
  <unicode hex="031B"/>
  <anchor x="-224" y="999" name="_m.horncmb_3"/>
  <outline>
    <contour>
      <point x="-277" y="999" type="line"/>
      <point x="-418" y="999" type="line"/>
      <point x="-283" y="1413" type="line"/>
      <point x="-29" y="1413" type="line"/>
    </contour>
  </outline>
</glyph>
<glyph name="uni0326" format="2">
  <unicode hex="0326"/>
  <anchor x="-177" y="0" name="_b.uni0326"/>
  <anchor x="-177" y="0" name="_b.uni0326_2"/>
  <anchor x="-244" y="-459" name="b.uni0326_2"/>
  <outline>
    <contour>
      <point x="-277" y="-459" type="line"/>
      <point x="-418" y="-459" type="line"/>
      <point x="-283" y="-106" type="line"/>
      <point x="-29" y="-106" type="line"/>
    </contour>
  </outline>
</glyph>
<glyph name="ogonekcmb" format="2">
  <unicode hex="0328"/>
  <anchor x="-169" y="0" name="_b.ogonekcmb_2"/>
  <outline>
    <contour>
      <point x="-262" y="-451" type="qcurve" smooth="yes"/>
      <point x="-326" y="-451"/>
      <point x="-429" y="-399"/>
      <point x="-487" y="-306"/>
      <point x="-487" y="-246" type="qcurve" smooth="yes"/>
      <point x="-487" y="-174"/>
      <point x="-414" y="-65"/>
      <point x="-368" y="-30" type="qcurve" smooth="yes"/>
      <point x="-328" y="1"/>
      <point x="-324" y="1" type="qcurve"/>
      <point x="-323" y="0" type="line"/>
      <point x="-133" y="0" type="line"/>
      <point x="-156" y="-7"/>
      <point x="-255" y="-62"/>
      <point x="-342" y="-154"/>
      <point x="-342" y="-213" type="qcurve" smooth="yes"/>
      <point x="-342" y="-262"/>
      <point x="-302" y="-301"/>
      <point x="-268" y="-301" type="qcurve" smooth="yes"/>
      <point x="-206" y="-301"/>
      <point x="-165" y="-244" type="qcurve"/>
      <point x="-43" y="-328" type="line"/>
      <point x="-124" y="-451"/>
    </contour>
  </outline>
</glyph>
<glyph name="afii10051" format="2">
  <advance width="1610"/>
  <unicode hex="0402"/>
  <outline>
    <contour>
      <point x="1094" y="-20" type="qcurve" smooth="yes"/>
      <point x="1020" y="-20"/>
      <point x="836" y="56"/>
      <point x="776" y="106" type="qcurve"/>
      <point x="897" y="283" type="line"/>
      <point x="931" y="252"/>
      <point x="1014" y="219"/>
      <point x="1053" y="219" type="qcurve" smooth="yes"/>
      <point x="1161" y="219"/>
      <point x="1290" y="316"/>
      <point x="1290" y="414" type="qcurve" smooth="yes"/>
      <point x="1290" y="534"/>
      <point x="1235" y="680"/>
      <point x="1113" y="756"/>
      <point x="1004" y="756" type="qcurve" smooth="yes"/>
      <point x="821" y="756"/>
      <point x="717" y="637" type="qcurve"/>
      <point x="717" y="0" type="line"/>
      <point x="463" y="0" type="line"/>
      <point x="463" y="1184" type="line"/>
      <point x="20" y="1184" type="line"/>
      <point x="20" y="1411" type="line"/>
      <point x="1159" y="1411" type="line"/>
      <point x="1159" y="1184" type="line"/>
      <point x="717" y="1184" type="line"/>
      <point x="717" y="930" type="line"/>
      <point x="859" y="1001"/>
      <point x="1004" y="1001" type="qcurve" smooth="yes"/>
      <point x="1278" y="1001"/>
      <point x="1544" y="700"/>
      <point x="1544" y="430" type="qcurve" smooth="yes"/>
      <point x="1544" y="-20"/>
    </contour>
  </outline>
</glyph>
<glyph name="afii10052" format="2">
  <advance width="1065"/>
  <unicode hex="0403"/>
  <outline>
    <contour>
      <point x="639" y="1536" type="line"/>
      <point x="461" y="1536" type="line"/>
      <point x="686" y="1825" type="line"/>
      <point x="946" y="1825" type="line"/>
    </contour>
    <contour>
      <point x="436" y="0" type="line"/>
      <point x="182" y="0" type="line"/>
      <point x="182" y="1411" type="line"/>
      <point x="1044" y="1411" type="line"/>
      <point x="1044" y="1178" type="line"/>
      <point x="436" y="1178" type="line"/>
    </contour>
  </outline>
</glyph>
<glyph name="afii10056" format="2">
  <advance width="618"/>
  <unicode hex="0407"/>
  <outline>
    <contour>
      <point x="233" y="1567" type="line"/>
      <point x="29" y="1567" type="line"/>
      <point x="29" y="1761" type="line"/>
      <point x="233" y="1761" type="line"/>
    </contour>
    <contour>
      <point x="588" y="1567" type="line"/>
      <point x="383" y="1567" type="line"/>
      <point x="383" y="1761" type="line"/>
      <point x="588" y="1761" type="line"/>
    </contour>
    <contour>
      <point x="436" y="0" type="line"/>
      <point x="182" y="0" type="line"/>
      <point x="182" y="1411" type="line"/>
      <point x="436" y="1411" type="line"/>
    </contour>
  </outline>
</glyph>
<glyph name="afii10061" format="2">
  <advance width="1352"/>
  <unicode hex="040C"/>
  <outline>
    <contour>
      <point x="727" y="1536" type="line"/>
      <point x="549" y="1536" type="line"/>
      <point x="774" y="1825" type="line"/>
      <point x="1034" y="1825" type="line"/>
    </contour>
    <contour>
      <point x="1331" y="0" type="line"/>
      <point x="1016" y="0" type="line"/>
      <point x="850" y="473" type="line" smooth="yes"/>
      <point x="824" y="547"/>
      <point x="731" y="664"/>
      <point x="662" y="664" type="qcurve" smooth="yes"/>
      <point x="436" y="664" type="line"/>
      <point x="436" y="0" type="line"/>
      <point x="182" y="0" type="line"/>
      <point x="182" y="1411" type="line"/>
      <point x="436" y="1411" type="line"/>
      <point x="436" y="901" type="line"/>
      <point x="586" y="901" type="line"/>
      <point x="920" y="1411" type="line"/>
      <point x="1260" y="1411" type="line"/>
      <point x="838" y="834" type="line"/>
      <point x="959" y="834"/>
      <point x="1069" y="588" type="qcurve" smooth="yes"/>
    </contour>
  </outline>
</glyph>
<glyph name="afii10062" format="2">
  <advance width="1110"/>
  <unicode hex="040E"/>
  <outline>
    <contour>
      <point x="548" y="1554" type="qcurve" smooth="yes"/>
      <point x="541" y="1554" type="line" smooth="yes"/>
      <point x="225" y="1554"/>
      <point x="225" y="1825" type="qcurve"/>
      <point x="397" y="1825" type="line"/>
      <point x="397" y="1759"/>
      <point x="480" y="1698"/>
      <point x="541" y="1698" type="qcurve" smooth="yes"/>
      <point x="603" y="1698"/>
      <point x="684" y="1761"/>
      <point x="684" y="1825" type="qcurve"/>
      <point x="856" y="1825" type="line"/>
      <point x="856" y="1554"/>
    </contour>
    <contour>
      <point x="485" y="0" type="line"/>
      <point x="219" y="0" type="line"/>
      <point x="412" y="457" type="line"/>
      <point x="12" y="1411" type="line"/>
      <point x="281" y="1411" type="line"/>
      <point x="547" y="735" type="line"/>
      <point x="829" y="1411" type="line"/>
      <point x="1098" y="1411" type="line"/>
    </contour>
  </outline>
</glyph>
<glyph name="afii10145" format="2">
  <advance width="1491"/>
  <unicode hex="040F"/>
  <outline>
    <contour>
      <point x="872" y="-307" type="line"/>
      <point x="618" y="-307" type="line"/>
      <point x="618" y="0" type="line"/>
      <point x="182" y="0" type="line"/>
      <point x="182" y="1411" type="line"/>
      <point x="436" y="1411" type="line"/>
      <point x="436" y="233" type="line"/>
      <point x="1055" y="233" type="line"/>
      <point x="1055" y="1411" type="line"/>
      <point x="1309" y="1411" type="line"/>
      <point x="1309" y="0" type="line"/>
      <point x="872" y="0" type="line"/>
    </contour>
  </outline>
</glyph>
<glyph name="afii10018" format="2">
  <advance width="1274"/>
  <unicode hex="0411"/>
  <outline>
    <contour>
      <point x="733" y="0" type="qcurve" smooth="yes"/>
      <point x="182" y="0" type="line"/>
      <point x="182" y="1411" type="line"/>
      <point x="1006" y="1411" type="line"/>
      <point x="1006" y="1182" type="line"/>
      <point x="436" y="1182" type="line"/>
      <point x="436" y="844" type="line"/>
      <point x="737" y="844" type="line" smooth="yes"/>
      <point x="894" y="844"/>
      <point x="1097" y="733"/>
      <point x="1194" y="537"/>
      <point x="1194" y="410" type="qcurve" smooth="yes"/>
      <point x="1194" y="277"/>
      <point x="1063" y="94"/>
      <point x="852" y="0"/>
    </contour>
    <contour>
      <point x="737" y="242" type="line" smooth="yes"/>
      <point x="832" y="242"/>
      <point x="944" y="335"/>
      <point x="944" y="438" type="qcurve" smooth="yes"/>
      <point x="944" y="515"/>
      <point x="826" y="625"/>
      <point x="727" y="625" type="qcurve" smooth="yes"/>
      <point x="436" y="625" type="line"/>
      <point x="436" y="242" type="line"/>
    </contour>
  </outline>
</glyph>
<glyph name="afii10033" format="2">
  <advance width="1491"/>
  <unicode hex="041F"/>
  <outline>
    <contour>
      <point x="1309" y="0" type="line"/>
      <point x="1055" y="0" type="line"/>
      <point x="1055" y="1178" type="line"/>
      <point x="436" y="1178" type="line"/>
      <point x="436" y="0" type="line"/>
      <point x="182" y="0" type="line"/>
      <point x="182" y="1411" type="line"/>
      <point x="1309" y="1411" type="line"/>
    </contour>
  </outline>
</glyph>
<glyph name="afii10035" format="2">
  <advance width="1432"/>
  <unicode hex="0421"/>
  <outline>
    <contour>
      <point x="766" y="-20" type="qcurve" smooth="yes"/>
      <point x="542" y="-20"/>
      <point x="388" y="78" type="qcurve" smooth="yes"/>
      <point x="281" y="147"/>
      <point x="145" y="344"/>
      <point x="82" y="580"/>
      <point x="82" y="707" type="qcurve" smooth="yes"/>
      <point x="82" y="834"/>
      <point x="145" y="1070"/>
      <point x="280" y="1267"/>
      <point x="387" y="1337" type="qcurve" smooth="yes"/>
      <point x="541" y="1436"/>
      <point x="764" y="1436" type="qcurve" smooth="yes"/>
      <point x="965" y="1436"/>
      <point x="1290" y="1236"/>
      <point x="1382" y="1030" type="qcurve"/>
      <point x="1145" y="936" type="line"/>
      <point x="1069" y="1194"/>
      <point x="762" y="1194" type="qcurve" smooth="yes"/>
      <point x="616" y="1194"/>
      <point x="426" y="1068"/>
      <point x="334" y="852"/>
      <point x="334" y="717" type="qcurve" smooth="yes"/>
      <point x="334" y="576"/>
      <point x="424" y="351"/>
      <point x="615" y="221"/>
      <point x="766" y="221" type="qcurve" smooth="yes"/>
      <point x="911" y="221"/>
      <point x="1096" y="350"/>
      <point x="1149" y="483" type="qcurve"/>
      <point x="1384" y="387" type="line"/>
      <point x="1295" y="181"/>
      <point x="968" y="-20"/>
    </contour>
  </outline>
</glyph>
<glyph name="afii10037" format="2">
  <advance width="1110"/>
  <unicode hex="0423"/>
  <outline>
    <contour>
      <point x="485" y="0" type="line"/>
      <point x="219" y="0" type="line"/>
      <point x="412" y="457" type="line"/>
      <point x="12" y="1411" type="line"/>
      <point x="281" y="1411" type="line"/>
      <point x="547" y="735" type="line"/>
      <point x="829" y="1411" type="line"/>
      <point x="1098" y="1411" type="line"/>
    </contour>
  </outline>
</glyph>
<glyph name="afii10039" format="2">
  <advance width="1343"/>
  <unicode hex="0425"/>
  <outline>
    <contour>
      <point x="1319" y="0" type="line"/>
      <point x="1016" y="0" type="line"/>
      <point x="670" y="537" type="line"/>
      <point x="328" y="0" type="line"/>
      <point x="25" y="0" type="line"/>
      <point x="498" y="707" type="line"/>
      <point x="27" y="1413" type="line"/>
      <point x="330" y="1413" type="line"/>
      <point x="672" y="868" type="line"/>
      <point x="1014" y="1413" type="line"/>
      <point x="1317" y="1413" type="line"/>
      <point x="846" y="707" type="line"/>
    </contour>
  </outline>
</glyph>
<glyph name="afii10042" format="2">
  <advance width="1802"/>
  <unicode hex="0428"/>
  <outline>
    <contour>
      <point x="1620" y="0" type="line"/>
      <point x="182" y="0" type="line"/>
      <point x="182" y="1411" type="line"/>
      <point x="436" y="1411" type="line"/>
      <point x="436" y="233" type="line"/>
      <point x="774" y="233" type="line"/>
      <point x="774" y="1411" type="line"/>
      <point x="1028" y="1411" type="line"/>
      <point x="1028" y="233" type="line"/>
      <point x="1366" y="233" type="line"/>
      <point x="1366" y="1411" type="line"/>
      <point x="1620" y="1411" type="line"/>
    </contour>
  </outline>
</glyph>
<glyph name="afii10043" format="2">
  <advance width="1839"/>
  <unicode hex="0429"/>
  <outline>
    <contour>
      <point x="1772" y="-307" type="line"/>
      <point x="1518" y="-307" type="line"/>
      <point x="1518" y="0" type="line"/>
      <point x="182" y="0" type="line"/>
      <point x="182" y="1411" type="line"/>
      <point x="436" y="1411" type="line"/>
      <point x="436" y="233" type="line"/>
      <point x="774" y="233" type="line"/>
      <point x="774" y="1411" type="line"/>
      <point x="1028" y="1411" type="line"/>
      <point x="1028" y="233" type="line"/>
      <point x="1366" y="233" type="line"/>
      <point x="1366" y="1411" type="line"/>
      <point x="1620" y="1411" type="line"/>
      <point x="1620" y="233" type="line"/>
      <point x="1772" y="233" type="line"/>
    </contour>
  </outline>
</glyph>
<glyph name="afii10045" format="2">
  <advance width="1745"/>
  <unicode hex="042B"/>
  <outline>
    <contour>
      <point x="625" y="0" type="qcurve" smooth="yes"/>
      <point x="182" y="0" type="line"/>
      <point x="182" y="1411" type="line"/>
      <point x="434" y="1411" type="line"/>
      <point x="434" y="825" type="line"/>
      <point x="625" y="825" type="line" smooth="yes"/>
      <point x="766" y="825"/>
      <point x="992" y="732"/>
      <point x="1124" y="550"/>
      <point x="1124" y="416" type="qcurve" smooth="yes"/>
      <point x="1124" y="283"/>
      <point x="993" y="97"/>
      <point x="768" y="0"/>
    </contour>
    <contour>
      <point x="1563" y="0" type="line"/>
      <point x="1309" y="0" type="line"/>
      <point x="1309" y="1411" type="line"/>
      <point x="1563" y="1411" type="line"/>
    </contour>
    <contour>
      <point x="625" y="238" type="line" smooth="yes"/>
      <point x="872" y="238"/>
      <point x="872" y="416" type="qcurve" smooth="yes"/>
      <point x="872" y="506"/>
      <point x="747" y="588"/>
      <point x="625" y="588" type="qcurve" smooth="yes"/>
      <point x="434" y="588" type="line"/>
      <point x="434" y="238" type="line"/>
    </contour>
  </outline>
</glyph>
<glyph name="afii10066" format="2">
  <advance width="1192"/>
  <unicode hex="0431"/>
  <outline>
    <contour>
      <point x="616" y="-20" type="qcurve" smooth="yes"/>
      <point x="469" y="-20"/>
      <point x="230" y="101"/>
      <point x="160" y="227" type="qcurve" smooth="yes"/>
      <point x="94" y="347"/>
      <point x="94" y="516" type="qcurve" smooth="yes"/>
      <point x="94" y="684" type="line" smooth="yes"/>
      <point x="94" y="912"/>
      <point x="160" y="1037" type="qcurve" smooth="yes"/>
      <point x="220" y="1150"/>
      <point x="372" y="1282"/>
      <point x="477" y="1322" type="qcurve" smooth="yes"/>
      <point x="567" y="1357"/>
      <point x="777" y="1406"/>
      <point x="938" y="1434" type="qcurve"/>
      <point x="938" y="1194" type="line"/>
      <point x="802" y="1178"/>
      <point x="529" y="1105"/>
      <point x="479" y="1081" type="qcurve"/>
      <point x="399" y="1047"/>
      <point x="312" y="920"/>
      <point x="309" y="772" type="qcurve"/>
      <point x="366" y="856"/>
      <point x="560" y="961"/>
      <point x="688" y="961" type="qcurve" smooth="yes"/>
      <point x="839" y="961"/>
      <point x="1040" y="840"/>
      <point x="1139" y="630"/>
      <point x="1139" y="496" type="qcurve" smooth="yes"/>
      <point x="1139" y="357"/>
      <point x="1009" y="122"/>
      <point x="887" y="50" type="qcurve" smooth="yes"/>
      <point x="767" y="-20"/>
    </contour>
    <contour>
      <point x="616" y="190" type="qcurve" smooth="yes"/>
      <point x="699" y="190"/>
      <point x="814" y="265"/>
      <point x="874" y="394"/>
      <point x="874" y="475" type="qcurve" smooth="yes"/>
      <point x="874" y="558"/>
      <point x="821" y="682"/>
      <point x="707" y="750"/>
      <point x="616" y="750" type="qcurve" smooth="yes"/>
      <point x="535" y="750"/>
      <point x="419" y="665"/>
      <point x="358" y="537"/>
      <point x="358" y="475" type="qcurve" smooth="yes"/>
      <point x="358" y="344"/>
      <point x="484" y="190"/>
    </contour>
  </outline>
</glyph>
<glyph name="afii10068" format="2">
  <advance width="907"/>
  <unicode hex="0433"/>
  <outline>
    <contour>
      <point x="453" y="-20" type="qcurve" smooth="yes"/>
      <point x="382" y="-20"/>
      <point x="243" y="19"/>
      <point x="131" y="100"/>
      <point x="63" y="226"/>
      <point x="63" y="313" type="qcurve" smooth="yes"/>
      <point x="63" y="417"/>
      <point x="162" y="543"/>
      <point x="296" y="604"/>
      <point x="399" y="633" type="qcurve" smooth="yes"/>
      <point x="489" y="658"/>
      <point x="571" y="701"/>
      <point x="571" y="741" type="qcurve" smooth="yes"/>
      <point x="571" y="777"/>
      <point x="502" y="821"/>
      <point x="442" y="821" type="qcurve" smooth="yes"/>
      <point x="369" y="821"/>
      <point x="275" y="756"/>
      <point x="244" y="700" type="qcurve"/>
      <point x="70" y="795" type="line"/>
      <point x="124" y="891"/>
      <point x="315" y="1014"/>
      <point x="444" y="1014" type="qcurve" smooth="yes"/>
      <point x="534" y="1014"/>
      <point x="699" y="950"/>
      <point x="805" y="815"/>
      <point x="805" y="709" type="qcurve" smooth="yes"/>
      <point x="805" y="613"/>
      <point x="759" y="556" type="qcurve" smooth="yes"/>
      <point x="716" y="502"/>
      <point x="587" y="443"/>
      <point x="486" y="418" type="qcurve" smooth="yes"/>
      <point x="391" y="394"/>
      <point x="303" y="347"/>
      <point x="303" y="301" type="qcurve" smooth="yes"/>
      <point x="303" y="274"/>
      <point x="338" y="219"/>
      <point x="410" y="182"/>
      <point x="465" y="182" type="qcurve" smooth="yes"/>
      <point x="554" y="182"/>
      <point x="652" y="276"/>
      <point x="678" y="346" type="qcurve"/>
      <point x="872" y="260" type="line"/>
      <point x="847" y="182"/>
      <point x="730" y="56"/>
      <point x="559" y="-20"/>
    </contour>
  </outline>
</glyph>
<glyph name="afii10074" format="2">
  <advance width="1167"/>
  <unicode hex="0438"/>
  <outline>
    <contour>
      <point x="485" y="-23" type="qcurve" smooth="yes"/>
      <point x="360" y="-23"/>
      <point x="277" y="38" type="qcurve"/>
      <point x="191" y="104"/>
      <point x="115" y="302"/>
      <point x="115" y="412" type="qcurve" smooth="yes"/>
      <point x="115" y="999" type="line"/>
      <point x="362" y="999" type="line"/>
      <point x="362" y="424" type="line" smooth="yes"/>
      <point x="362" y="321"/>
      <point x="440" y="209"/>
      <point x="543" y="209" type="qcurve" smooth="yes"/>
      <point x="645" y="209"/>
      <point x="774" y="339"/>
      <point x="774" y="508" type="qcurve" smooth="yes"/>
      <point x="774" y="999" type="line"/>
      <point x="1022" y="999" type="line"/>
      <point x="1022" y="0" type="line"/>
      <point x="774" y="0" type="line"/>
      <point x="774" y="117" type="line"/>
      <point x="717" y="45"/>
      <point x="565" y="-23"/>
    </contour>
  </outline>
</glyph>
<glyph name="afii10075" format="2">
  <advance width="1198"/>
  <unicode hex="0439"/>
  <outline>
    <contour>
      <point x="606" y="1143" type="qcurve" smooth="yes"/>
      <point x="291" y="1143"/>
      <point x="291" y="1413" type="qcurve"/>
      <point x="463" y="1413" type="line"/>
      <point x="463" y="1347"/>
      <point x="545" y="1286"/>
      <point x="606" y="1286" type="qcurve" smooth="yes"/>
      <point x="668" y="1286"/>
      <point x="750" y="1349"/>
      <point x="750" y="1413" type="qcurve"/>
      <point x="922" y="1413" type="line"/>
      <point x="922" y="1143"/>
    </contour>
    <contour>
      <point x="516" y="-23" type="qcurve" smooth="yes"/>
      <point x="391" y="-23"/>
      <point x="308" y="39" type="qcurve" smooth="yes"/>
      <point x="221" y="105"/>
      <point x="145" y="303"/>
      <point x="145" y="412" type="qcurve" smooth="yes"/>
      <point x="145" y="999" type="line"/>
      <point x="393" y="999" type="line"/>
      <point x="393" y="424" type="line" smooth="yes"/>
      <point x="393" y="322"/>
      <point x="464" y="209"/>
      <point x="553" y="209" type="qcurve" smooth="yes"/>
      <point x="625" y="209"/>
      <point x="739" y="279"/>
      <point x="805" y="387"/>
      <point x="805" y="446" type="qcurve" smooth="yes"/>
      <point x="805" y="999" type="line"/>
      <point x="1053" y="999" type="line"/>
      <point x="1053" y="0" type="line"/>
      <point x="805" y="0" type="line"/>
      <point x="805" y="117" type="line"/>
      <point x="748" y="45"/>
      <point x="596" y="-23"/>
    </contour>
  </outline>
</glyph>
<glyph name="afii10084" format="2">
  <advance width="1743"/>
  <unicode hex="0442"/>
  <outline>
    <contour>
      <point x="1626" y="0" type="line"/>
      <point x="1378" y="0" type="line"/>
      <point x="1378" y="569" type="line" smooth="yes"/>
      <point x="1378" y="672"/>
      <point x="1305" y="791"/>
      <point x="1217" y="791" type="qcurve" smooth="yes"/>
      <point x="1150" y="791"/>
      <point x="1056" y="724"/>
      <point x="1008" y="614"/>
      <point x="1008" y="549" type="qcurve" smooth="yes"/>
      <point x="1008" y="0" type="line"/>
      <point x="760" y="0" type="line"/>
      <point x="760" y="573" type="line" smooth="yes"/>
      <point x="760" y="675"/>
      <point x="689" y="791"/>
      <point x="600" y="791" type="qcurve" smooth="yes"/>
      <point x="535" y="791"/>
      <point x="441" y="725"/>
      <point x="391" y="615"/>
      <point x="391" y="549" type="qcurve" smooth="yes"/>
      <point x="391" y="0" type="line"/>
      <point x="145" y="0" type="line"/>
      <point x="145" y="999" type="line"/>
      <point x="391" y="999" type="line"/>
      <point x="391" y="895" type="line"/>
      <point x="441" y="961"/>
      <point x="572" y="1018"/>
      <point x="639" y="1018" type="qcurve" smooth="yes"/>
      <point x="823" y="1018"/>
      <point x="926" y="864" type="qcurve"/>
      <point x="987" y="942"/>
      <point x="1162" y="1016"/>
      <point x="1255" y="1016" type="qcurve" smooth="yes"/>
      <point x="1382" y="1016"/>
      <point x="1546" y="899"/>
      <point x="1626" y="709"/>
      <point x="1626" y="600" type="qcurve" smooth="yes"/>
    </contour>
  </outline>
</glyph>
<glyph name="afii10087" format="2">
  <advance width="1030"/>
  <unicode hex="0445"/>
  <outline>
    <contour>
      <point x="1020" y="0" type="line"/>
      <point x="721" y="0" type="line"/>
      <point x="514" y="336" type="line"/>
      <point x="307" y="0" type="line"/>
      <point x="10" y="0" type="line"/>
      <point x="352" y="504" type="line"/>
      <point x="10" y="999" type="line"/>
      <point x="307" y="999" type="line"/>
      <point x="514" y="670" type="line"/>
      <point x="721" y="999" type="line"/>
      <point x="1020" y="999" type="line"/>
      <point x="676" y="504" type="line"/>
    </contour>
  </outline>
</glyph>
<glyph name="afii10088" format="2">
  <advance width="1198"/>
  <unicode hex="0446"/>
  <outline>
    <contour>
      <point x="1133" y="-307" type="line"/>
      <point x="926" y="-307" type="line"/>
      <point x="926" y="-23" type="line"/>
      <point x="880" y="-23"/>
      <point x="791" y="52"/>
      <point x="774" y="117" type="qcurve"/>
      <point x="717" y="45"/>
      <point x="565" y="-23"/>
      <point x="485" y="-23" type="qcurve" smooth="yes"/>
      <point x="360" y="-23"/>
      <point x="277" y="38" type="qcurve"/>
      <point x="191" y="104"/>
      <point x="115" y="302"/>
      <point x="115" y="412" type="qcurve" smooth="yes"/>
      <point x="115" y="999" type="line"/>
      <point x="362" y="999" type="line"/>
      <point x="362" y="424" type="line" smooth="yes"/>
      <point x="362" y="322"/>
      <point x="433" y="209"/>
      <point x="522" y="209" type="qcurve" smooth="yes"/>
      <point x="594" y="209"/>
      <point x="708" y="279"/>
      <point x="774" y="387"/>
      <point x="774" y="446" type="qcurve" smooth="yes"/>
      <point x="774" y="999" type="line"/>
      <point x="1022" y="999" type="line"/>
      <point x="1022" y="244" type="line" smooth="yes"/>
      <point x="1022" y="172"/>
      <point x="1110" y="98"/>
      <point x="1174" y="98" type="qcurve"/>
    </contour>
  </outline>
</glyph>
<glyph name="afii10089" format="2">
  <advance width="1116"/>
  <unicode hex="0447"/>
  <outline>
    <contour>
      <point x="971" y="0" type="line"/>
      <point x="723" y="0" type="line"/>
      <point x="723" y="381" type="line"/>
      <point x="667" y="309"/>
      <point x="514" y="242"/>
      <point x="434" y="242" type="qcurve" smooth="yes"/>
      <point x="306" y="242"/>
      <point x="142" y="364"/>
      <point x="63" y="562"/>
      <point x="63" y="676" type="qcurve" smooth="yes"/>
      <point x="63" y="999" type="line"/>
      <point x="311" y="999" type="line"/>
      <point x="311" y="688" type="line" smooth="yes"/>
      <point x="311" y="586"/>
      <point x="382" y="473"/>
      <point x="471" y="473" type="qcurve" smooth="yes"/>
      <point x="542" y="473"/>
      <point x="656" y="543"/>
      <point x="723" y="652"/>
      <point x="723" y="711" type="qcurve" smooth="yes"/>
      <point x="723" y="999" type="line"/>
      <point x="971" y="999" type="line"/>
    </contour>
  </outline>
</glyph>
<glyph name="afii10093" format="2">
  <advance width="1487"/>
  <unicode hex="044B"/>
  <outline>
    <contour>
      <point x="592" y="-20" type="qcurve" smooth="yes"/>
      <point x="373" y="-20"/>
      <point x="150" y="229"/>
      <point x="150" y="446" type="qcurve" smooth="yes"/>
      <point x="150" y="999" type="line"/>
      <point x="375" y="999" type="line"/>
      <point x="375" y="739" type="line"/>
      <point x="437" y="785"/>
      <point x="556" y="827"/>
      <point x="625" y="827" type="qcurve" smooth="yes"/>
      <point x="777" y="827"/>
      <point x="976" y="717"/>
      <point x="1073" y="526"/>
      <point x="1073" y="403" type="qcurve" smooth="yes"/>
      <point x="1073" y="286"/>
      <point x="965" y="94"/>
      <point x="751" y="-20"/>
    </contour>
    <contour>
      <point x="1434" y="0" type="line"/>
      <point x="1208" y="0" type="line"/>
      <point x="1208" y="999" type="line"/>
      <point x="1434" y="999" type="line"/>
    </contour>
    <contour>
      <point x="592" y="190" type="qcurve" smooth="yes"/>
      <point x="665" y="190"/>
      <point x="761" y="246"/>
      <point x="809" y="343"/>
      <point x="809" y="403" type="qcurve" smooth="yes"/>
      <point x="809" y="456"/>
      <point x="759" y="554"/>
      <point x="662" y="616"/>
      <point x="592" y="616" type="qcurve" smooth="yes"/>
      <point x="487" y="616"/>
      <point x="375" y="500"/>
      <point x="375" y="416" type="qcurve" smooth="yes"/>
      <point x="375" y="362"/>
      <point x="399" y="283"/>
      <point x="432" y="249" type="qcurve" smooth="yes"/>
      <point x="488" y="190"/>
    </contour>
  </outline>
</glyph>
<glyph name="afii10094" format="2">
  <advance width="1126"/>
  <unicode hex="044C"/>
  <outline>
    <contour>
      <point x="582" y="-20" type="qcurve" smooth="yes"/>
      <point x="432" y="-20"/>
      <point x="236" y="96"/>
      <point x="139" y="305"/>
      <point x="139" y="446" type="qcurve" smooth="yes"/>
      <point x="139" y="999" type="line"/>
      <point x="365" y="999" type="line"/>
      <point x="365" y="739" type="line"/>
      <point x="476" y="827"/>
      <point x="614" y="827" type="qcurve" smooth="yes"/>
      <point x="767" y="827"/>
      <point x="966" y="717"/>
      <point x="1063" y="526"/>
      <point x="1063" y="403" type="qcurve" smooth="yes"/>
      <point x="1063" y="286"/>
      <point x="955" y="94"/>
      <point x="741" y="-20"/>
    </contour>
    <contour>
      <point x="582" y="190" type="qcurve" smooth="yes"/>
      <point x="655" y="190"/>
      <point x="751" y="246"/>
      <point x="799" y="343"/>
      <point x="799" y="403" type="qcurve" smooth="yes"/>
      <point x="799" y="456"/>
      <point x="749" y="554"/>
      <point x="652" y="616"/>
      <point x="582" y="616" type="qcurve" smooth="yes"/>
      <point x="477" y="616"/>
      <point x="365" y="500"/>
      <point x="365" y="416" type="qcurve" smooth="yes"/>
      <point x="365" y="362"/>
      <point x="389" y="283"/>
      <point x="421" y="249" type="qcurve" smooth="yes"/>
      <point x="477" y="190"/>
    </contour>
  </outline>
</glyph>
<glyph name="afii10097" format="2">
  <advance width="1075"/>
  <unicode hex="044F"/>
  <outline>
    <contour>
      <point x="930" y="0" type="line"/>
      <point x="686" y="0" type="line"/>
      <point x="686" y="401" type="line"/>
      <point x="594" y="401" type="line" smooth="yes"/>
      <point x="500" y="401"/>
      <point x="463" y="291" type="qcurve"/>
      <point x="342" y="0" type="line"/>
      <point x="53" y="0" type="line"/>
      <point x="160" y="291" type="line"/>
      <point x="186" y="348"/>
      <point x="277" y="449"/>
      <point x="328" y="449" type="qcurve"/>
      <point x="259" y="467"/>
      <point x="163" y="520"/>
      <point x="96" y="621"/>
      <point x="96" y="709" type="qcurve" smooth="yes"/>
      <point x="96" y="782"/>
      <point x="167" y="912"/>
      <point x="350" y="999"/>
      <point x="506" y="999" type="qcurve" smooth="yes"/>
      <point x="930" y="999" type="line"/>
    </contour>
    <contour>
      <point x="686" y="582" type="line"/>
      <point x="686" y="784" type="line"/>
      <point x="461" y="784" type="line" smooth="yes"/>
      <point x="405" y="784"/>
      <point x="350" y="723"/>
      <point x="350" y="686" type="qcurve" smooth="yes"/>
      <point x="350" y="644"/>
      <point x="403" y="582"/>
      <point x="465" y="582" type="qcurve" smooth="yes"/>
    </contour>
  </outline>
</glyph>
<glyph name="afii10101" format="2">
  <advance width="997"/>
  <unicode hex="0454"/>
  <outline>
    <contour>
      <point x="535" y="-20" type="qcurve" smooth="yes"/>
      <point x="414" y="-20"/>
      <point x="232" y="65"/>
      <point x="111" y="211"/>
      <point x="51" y="397"/>
      <point x="51" y="498" type="qcurve" smooth="yes"/>
      <point x="51" y="628"/>
      <point x="155" y="865"/>
      <point x="268" y="944" type="qcurve"/>
      <point x="377" y="1016"/>
      <point x="532" y="1016" type="qcurve" smooth="yes"/>
      <point x="686" y="1016"/>
      <point x="909" y="856"/>
      <point x="965" y="725" type="qcurve"/>
      <point x="733" y="635" type="line"/>
      <point x="712" y="710"/>
      <point x="605" y="786"/>
      <point x="532" y="786" type="qcurve" smooth="yes"/>
      <point x="465" y="786"/>
      <point x="373" y="733"/>
      <point x="318" y="642"/>
      <point x="307" y="584" type="qcurve"/>
      <point x="657" y="584" type="line"/>
      <point x="657" y="401" type="line"/>
      <point x="309" y="401" type="line"/>
      <point x="327" y="316"/>
      <point x="434" y="209"/>
      <point x="532" y="209" type="qcurve" smooth="yes"/>
      <point x="606" y="209"/>
      <point x="713" y="289"/>
      <point x="733" y="360" type="qcurve"/>
      <point x="954" y="276" type="line"/>
      <point x="905" y="138"/>
      <point x="688" y="-20"/>
    </contour>
  </outline>
</glyph>
<glyph name="afii10103" format="2">
  <advance width="532"/>
  <unicode hex="0456"/>
  <outline>
    <contour>
      <point x="395" y="1186" type="line"/>
      <point x="139" y="1186" type="line"/>
      <point x="139" y="1411" type="line"/>
      <point x="395" y="1411" type="line"/>
    </contour>
    <contour>
      <point x="387" y="0" type="line"/>
      <point x="145" y="0" type="line"/>
      <point x="145" y="999" type="line"/>
      <point x="387" y="999" type="line"/>
    </contour>
  </outline>
</glyph>
<glyph name="afii10106" format="2">
  <advance width="1692"/>
  <unicode hex="0459"/>
  <outline>
    <contour>
      <point x="229" y="-20" type="qcurve" smooth="yes"/>
      <point x="122" y="-20"/>
      <point x="12" y="35" type="qcurve"/>
      <point x="78" y="190" type="line"/>
      <point x="91" y="181"/>
      <point x="134" y="168"/>
      <point x="150" y="168" type="qcurve" smooth="yes"/>
      <point x="208" y="168"/>
      <point x="244" y="432"/>
      <point x="244" y="612" type="qcurve" smooth="yes"/>
      <point x="244" y="999" type="line"/>
      <point x="1028" y="999" type="line"/>
      <point x="1028" y="705" type="line"/>
      <point x="1176" y="705" type="line" smooth="yes"/>
      <point x="1417" y="705"/>
      <point x="1628" y="536"/>
      <point x="1628" y="362" type="qcurve" smooth="yes"/>
      <point x="1628" y="173"/>
      <point x="1399" y="0"/>
      <point x="1178" y="0" type="qcurve" smooth="yes"/>
      <point x="780" y="0" type="line"/>
      <point x="780" y="817" type="line"/>
      <point x="492" y="817" type="line"/>
      <point x="492" y="616" type="line" smooth="yes"/>
      <point x="492" y="270"/>
      <point x="374" y="-20"/>
    </contour>
    <contour>
      <point x="1176" y="211" type="line" smooth="yes"/>
      <point x="1262" y="211"/>
      <point x="1360" y="277"/>
      <point x="1360" y="362" type="qcurve" smooth="yes"/>
      <point x="1360" y="434"/>
      <point x="1261" y="494"/>
      <point x="1176" y="494" type="qcurve" smooth="yes"/>
      <point x="1028" y="494" type="line"/>
      <point x="1028" y="211" type="line"/>
    </contour>
  </outline>
</glyph>
<glyph name="afii10107" format="2">
  <advance width="1716"/>
  <unicode hex="045A"/>
  <outline>
    <contour>
      <point x="1202" y="0" type="qcurve" smooth="yes"/>
      <point x="805" y="0" type="line"/>
      <point x="805" y="463" type="line"/>
      <point x="393" y="463" type="line"/>
      <point x="393" y="0" type="line"/>
      <point x="145" y="0" type="line"/>
      <point x="145" y="999" type="line"/>
      <point x="393" y="999" type="line"/>
      <point x="393" y="645" type="line"/>
      <point x="805" y="645" type="line"/>
      <point x="805" y="999" type="line"/>
      <point x="1053" y="999" type="line"/>
      <point x="1053" y="645" type="line"/>
      <point x="1200" y="645" type="line" smooth="yes"/>
      <point x="1366" y="645"/>
      <point x="1560" y="581"/>
      <point x="1605" y="515" type="qcurve" smooth="yes"/>
      <point x="1653" y="445"/>
      <point x="1653" y="326" type="qcurve" smooth="yes"/>
      <point x="1653" y="151"/>
      <point x="1442" y="0"/>
    </contour>
    <contour>
      <point x="1200" y="211" type="line" smooth="yes"/>
      <point x="1292" y="211"/>
      <point x="1384" y="257"/>
      <point x="1384" y="326" type="qcurve" smooth="yes"/>
      <point x="1384" y="372"/>
      <point x="1343" y="419"/>
      <point x="1261" y="434"/>
      <point x="1200" y="434" type="qcurve" smooth="yes"/>
      <point x="1053" y="434" type="line"/>
      <point x="1053" y="211" type="line"/>
    </contour>
  </outline>
</glyph>
<glyph name="afii10110" format="2">
  <advance width="1032"/>
  <unicode hex="045E"/>
  <outline>
    <contour>
      <point x="516" y="1143" type="qcurve" smooth="yes"/>
      <point x="201" y="1143"/>
      <point x="201" y="1413" type="qcurve"/>
      <point x="373" y="1413" type="line"/>
      <point x="373" y="1347"/>
      <point x="455" y="1286"/>
      <point x="516" y="1286" type="qcurve" smooth="yes"/>
      <point x="578" y="1286"/>
      <point x="659" y="1349"/>
      <point x="659" y="1413" type="qcurve"/>
      <point x="831" y="1413" type="line"/>
      <point x="831" y="1143"/>
    </contour>
    <contour>
      <point x="467" y="-430" type="line"/>
      <point x="201" y="-430" type="line"/>
      <point x="385" y="27" type="line"/>
      <point x="-6" y="999" type="line"/>
      <point x="262" y="999" type="line"/>
      <point x="514" y="305" type="line"/>
      <point x="770" y="999" type="line"/>
      <point x="1038" y="999" type="line"/>
    </contour>
  </outline>
</glyph>
<glyph name="eiotifiedcyrillic" format="2">
  <advance width="1495"/>
  <unicode hex="0465"/>
  <outline>
    <contour>
      <point x="1032" y="-20" type="qcurve" smooth="yes"/>
      <point x="892" y="-20"/>
      <point x="692" y="93"/>
      <point x="573" y="282"/>
      <point x="555" y="401" type="qcurve"/>
      <point x="393" y="401" type="line"/>
      <point x="393" y="0" type="line"/>
      <point x="145" y="0" type="line"/>
      <point x="145" y="999" type="line"/>
      <point x="393" y="999" type="line"/>
      <point x="393" y="584" type="line"/>
      <point x="555" y="584" type="line"/>
      <point x="579" y="766"/>
      <point x="693" y="884" type="qcurve" smooth="yes"/>
      <point x="819" y="1016"/>
      <point x="1030" y="1016" type="qcurve" smooth="yes"/>
      <point x="1184" y="1016"/>
      <point x="1406" y="856"/>
      <point x="1462" y="725" type="qcurve"/>
      <point x="1231" y="635" type="line"/>
      <point x="1209" y="710"/>
      <point x="1102" y="786"/>
      <point x="1030" y="786" type="qcurve" smooth="yes"/>
      <point x="963" y="786"/>
      <point x="870" y="733"/>
      <point x="815" y="642"/>
      <point x="805" y="584" type="qcurve"/>
      <point x="1155" y="584" type="line"/>
      <point x="1155" y="401" type="line"/>
      <point x="807" y="401" type="line"/>
      <point x="824" y="316"/>
      <point x="931" y="209"/>
      <point x="1030" y="209" type="qcurve" smooth="yes"/>
      <point x="1106" y="209"/>
      <point x="1211" y="291"/>
      <point x="1231" y="360" type="qcurve"/>
      <point x="1452" y="276" type="line"/>
      <point x="1401" y="135"/>
      <point x="1182" y="-20"/>
    </contour>
  </outline>
</glyph>
<glyph name="yuslittlecyrillic" format="2">
  <advance width="975"/>
  <unicode hex="0467"/>
  <outline>
    <contour>
      <point x="963" y="0" type="line"/>
      <point x="729" y="0" type="line"/>
      <point x="682" y="162" type="line"/>
      <point x="575" y="162" type="line"/>
      <point x="575" y="0" type="line"/>
      <point x="403" y="0" type="line"/>
      <point x="403" y="162" type="line"/>
      <point x="297" y="162" type="line"/>
      <point x="248" y="0" type="line"/>
      <point x="12" y="0" type="line"/>
      <point x="393" y="999" type="line"/>
      <point x="584" y="999" type="line"/>
    </contour>
    <contour>
      <point x="627" y="338" type="line"/>
      <point x="489" y="709" type="line"/>
      <point x="352" y="338" type="line"/>
    </contour>
  </outline>
</glyph>
<glyph name="yuslittleiotifiedcyrillic" format="2">
  <advance width="1438"/>
  <unicode hex="0469"/>
  <outline>
    <contour>
      <point x="1425" y="0" type="line"/>
      <point x="1192" y="0" type="line"/>
      <point x="1145" y="162" type="line"/>
      <point x="1038" y="162" type="line"/>
      <point x="1038" y="0" type="line"/>
      <point x="866" y="0" type="line"/>
      <point x="866" y="162" type="line"/>
      <point x="760" y="162" type="line"/>
      <point x="711" y="0" type="line"/>
      <point x="475" y="0" type="line"/>
      <point x="627" y="401" type="line"/>
      <point x="393" y="401" type="line"/>
      <point x="393" y="0" type="line"/>
      <point x="145" y="0" type="line"/>
      <point x="145" y="999" type="line"/>
      <point x="393" y="999" type="line"/>
      <point x="393" y="584" type="line"/>
      <point x="696" y="584" type="line"/>
      <point x="856" y="999" type="line"/>
      <point x="1047" y="999" type="line"/>
    </contour>
    <contour>
      <point x="1090" y="338" type="line"/>
      <point x="952" y="709" type="line"/>
      <point x="815" y="338" type="line"/>
    </contour>
  </outline>
</glyph>
<glyph name="afii10195" format="2">
  <advance width="1149"/>
  <unicode hex="0473"/>
  <outline>
    <contour>
      <point x="573" y="-20" type="qcurve" smooth="yes"/>
      <point x="414" y="-20"/>
      <point x="180" y="123"/>
      <point x="51" y="358"/>
      <point x="51" y="496" type="qcurve" smooth="yes"/>
      <point x="51" y="640"/>
      <point x="185" y="874"/>
      <point x="421" y="1012"/>
      <point x="573" y="1012" type="qcurve" smooth="yes"/>
      <point x="732" y="1012"/>
      <point x="967" y="868"/>
      <point x="1096" y="633"/>
      <point x="1096" y="496" type="qcurve" smooth="yes"/>
      <point x="1096" y="357"/>
      <point x="966" y="122"/>
      <point x="844" y="50" type="qcurve" smooth="yes"/>
      <point x="724" y="-20"/>
    </contour>
    <contour>
      <point x="821" y="588" type="line"/>
      <point x="809" y="651"/>
      <point x="748" y="746"/>
      <point x="647" y="801"/>
      <point x="573" y="801" type="qcurve" smooth="yes"/>
      <point x="499" y="801"/>
      <point x="397" y="746"/>
      <point x="336" y="650"/>
      <point x="324" y="588" type="qcurve"/>
    </contour>
    <contour>
      <point x="573" y="190" type="qcurve" smooth="yes"/>
      <point x="646" y="190"/>
      <point x="748" y="245"/>
      <point x="809" y="341"/>
      <point x="821" y="403" type="qcurve"/>
      <point x="324" y="403" type="line"/>
      <point x="336" y="341"/>
      <point x="397" y="245"/>
      <point x="499" y="190"/>
    </contour>
  </outline>
</glyph>
<glyph name="afii10148" format="2">
  <advance width="1354"/>
  <unicode hex="0474"/>
  <outline>
    <contour>
      <point x="768" y="0" type="line"/>
      <point x="578" y="0" type="line"/>
      <point x="12" y="1413" type="line"/>
      <point x="293" y="1413" type="line"/>
      <point x="674" y="412" type="line"/>
      <point x="899" y="1006" type="line" smooth="yes"/>
      <point x="958" y="1161"/>
      <point x="1085" y="1340"/>
      <point x="1236" y="1413"/>
      <point x="1331" y="1413" type="qcurve"/>
      <point x="1331" y="1180" type="line"/>
      <point x="1278" y="1167"/>
      <point x="1184" y="1050"/>
      <point x="1137" y="930" type="qcurve" smooth="yes"/>
    </contour>
  </outline>
</glyph>
<glyph name="afii10196" format="2">
  <advance width="999"/>
  <unicode hex="0475"/>
  <outline>
    <contour>
      <point x="600" y="0" type="line"/>
      <point x="399" y="0" type="line"/>
      <point x="-8" y="999" type="line"/>
      <point x="258" y="999" type="line"/>
      <point x="500" y="315" type="line"/>
      <point x="618" y="649" type="line" smooth="yes"/>
      <point x="665" y="781"/>
      <point x="787" y="923"/>
      <point x="915" y="980"/>
      <point x="1008" y="999" type="qcurve"/>
      <point x="1008" y="774" type="line"/>
      <point x="955" y="756"/>
      <point x="884" y="695"/>
      <point x="856" y="627" type="qcurve" smooth="yes"/>
    </contour>
  </outline>
</glyph>
<glyph name="afii10050" format="2">
  <advance width="1065"/>
  <unicode hex="0490"/>
  <outline>
    <contour>
      <point x="436" y="0" type="line"/>
      <point x="182" y="0" type="line"/>
      <point x="182" y="1411" type="line"/>
      <point x="791" y="1411" type="line"/>
      <point x="791" y="1718" type="line"/>
      <point x="1044" y="1718" type="line"/>
      <point x="1044" y="1178" type="line"/>
      <point x="436" y="1178" type="line"/>
    </contour>
  </outline>
</glyph>
<glyph name="afii10098" format="2">
  <advance width="797"/>
  <unicode hex="0491"/>
  <outline>
    <contour>
      <point x="387" y="0" type="line"/>
      <point x="139" y="0" type="line"/>
      <point x="139" y="999" type="line"/>
      <point x="551" y="999" type="line"/>
      <point x="551" y="1307" type="line"/>
      <point x="799" y="1307" type="line"/>
      <point x="799" y="817" type="line"/>
      <point x="387" y="817" type="line"/>
    </contour>
  </outline>
</glyph>
<glyph name="Ghestrokecyrillic" format="2">
  <advance width="1276"/>
  <unicode hex="0492"/>
  <outline>
    <contour>
      <point x="645" y="0" type="line"/>
      <point x="391" y="0" type="line"/>
      <point x="391" y="633" type="line"/>
      <point x="28" y="633" type="line"/>
      <point x="28" y="846" type="line"/>
      <point x="391" y="846" type="line"/>
      <point x="391" y="1411" type="line"/>
      <point x="1253" y="1411" type="line"/>
      <point x="1253" y="1178" type="line"/>
      <point x="645" y="1178" type="line"/>
      <point x="645" y="846" type="line"/>
      <point x="786" y="846" type="line"/>
      <point x="786" y="633" type="line"/>
      <point x="645" y="633" type="line"/>
    </contour>
  </outline>
</glyph>
<glyph name="ghestrokecyrillic" format="2">
  <advance width="801"/>
  <unicode hex="0493"/>
  <outline>
    <contour>
      <point x="393" y="0" type="line"/>
      <point x="145" y="0" type="line"/>
      <point x="145" y="999" type="line"/>
      <point x="805" y="999" type="line"/>
      <point x="805" y="817" type="line"/>
      <point x="393" y="817" type="line"/>
    </contour>
  </outline>
</glyph>
<glyph name="Kadescendercyrillic" format="2">
  <advance width="1352"/>
  <unicode hex="049A"/>
  <outline>
    <contour>
      <point x="1432" y="-238" type="line"/>
      <point x="1190" y="-238" type="line"/>
      <point x="1190" y="0" type="line"/>
      <point x="1016" y="0" type="line"/>
      <point x="850" y="473" type="line" smooth="yes"/>
      <point x="824" y="547"/>
      <point x="731" y="664"/>
      <point x="662" y="664" type="qcurve" smooth="yes"/>
      <point x="436" y="664" type="line"/>
      <point x="436" y="0" type="line"/>
      <point x="182" y="0" type="line"/>
      <point x="182" y="1411" type="line"/>
      <point x="436" y="1411" type="line"/>
      <point x="436" y="901" type="line"/>
      <point x="586" y="901" type="line"/>
      <point x="920" y="1411" type="line"/>
      <point x="1260" y="1411" type="line"/>
      <point x="838" y="834" type="line"/>
      <point x="959" y="834"/>
      <point x="1069" y="588" type="qcurve" smooth="yes"/>
      <point x="1256" y="168" type="line"/>
      <point x="1432" y="168" type="line"/>
    </contour>
  </outline>
</glyph>
<glyph name="Endescendercyrillic" format="2">
  <advance width="1491"/>
  <unicode hex="04A2"/>
  <outline>
    <contour>
      <point x="1489" y="-238" type="line"/>
      <point x="1247" y="-238" type="line"/>
      <point x="1247" y="0" type="line"/>
      <point x="1055" y="0" type="line"/>
      <point x="1055" y="590" type="line"/>
      <point x="436" y="590" type="line"/>
      <point x="436" y="0" type="line"/>
      <point x="182" y="0" type="line"/>
      <point x="182" y="1413" type="line"/>
      <point x="436" y="1413" type="line"/>
      <point x="436" y="823" type="line"/>
      <point x="1055" y="823" type="line"/>
      <point x="1055" y="1413" type="line"/>
      <point x="1309" y="1413" type="line"/>
      <point x="1309" y="168" type="line"/>
      <point x="1489" y="168" type="line"/>
    </contour>
  </outline>
</glyph>
<glyph name="Ustraightstrokecyrillic" format="2">
  <advance width="1319"/>
  <unicode hex="04B0"/>
  <outline>
    <contour>
      <point x="793" y="0" type="line"/>
      <point x="528" y="0" type="line"/>
      <point x="528" y="264" type="line"/>
      <point x="137" y="264" type="line"/>
      <point x="137" y="477" type="line"/>
      <point x="528" y="477" type="line"/>
      <point x="528" y="551" type="line"/>
      <point x="-2" y="1413" type="line"/>
      <point x="305" y="1413" type="line"/>
      <point x="657" y="795" type="line"/>
      <point x="1012" y="1413" type="line"/>
      <point x="1321" y="1413" type="line"/>
      <point x="793" y="551" type="line"/>
      <point x="793" y="477" type="line"/>
      <point x="895" y="477" type="line"/>
      <point x="895" y="264" type="line"/>
      <point x="793" y="264" type="line"/>
    </contour>
  </outline>
</glyph>
<glyph name="ustraightstrokecyrillic" format="2">
  <advance width="1079"/>
  <unicode hex="04B1"/>
  <outline>
    <contour>
      <point x="627" y="0" type="line"/>
      <point x="385" y="0" type="line"/>
      <point x="385" y="160" type="line"/>
      <point x="39" y="160" type="line"/>
      <point x="39" y="373" type="line"/>
      <point x="385" y="373" type="line"/>
      <point x="385" y="428" type="line"/>
      <point x="-2" y="999" type="line"/>
      <point x="283" y="999" type="line"/>
      <point x="506" y="647" type="line"/>
      <point x="729" y="999" type="line"/>
      <point x="1014" y="999" type="line"/>
      <point x="627" y="428" type="line"/>
      <point x="627" y="373" type="line"/>
      <point x="797" y="373" type="line"/>
      <point x="797" y="160" type="line"/>
      <point x="627" y="160" type="line"/>
    </contour>
  </outline>
</glyph>
<glyph name="Shhacyrillic" format="2">
  <advance width="1352"/>
  <unicode hex="04BA"/>
  <outline>
    <contour>
      <point x="1264" y="2" type="line"/>
      <point x="1010" y="2" type="line"/>
      <point x="1010" y="403" type="line" smooth="yes"/>
      <point x="1010" y="530"/>
      <point x="957" y="681"/>
      <point x="897" y="718" type="qcurve" smooth="yes"/>
      <point x="834" y="758"/>
      <point x="723" y="758" type="qcurve" smooth="yes"/>
      <point x="541" y="758"/>
      <point x="437" y="639" type="qcurve"/>
      <point x="437" y="2" type="line"/>
      <point x="183" y="2" type="line"/>
      <point x="183" y="1413" type="line"/>
      <point x="437" y="1413" type="line"/>
      <point x="437" y="932" type="line"/>
      <point x="577" y="1003"/>
      <point x="723" y="1003" type="qcurve" smooth="yes"/>
      <point x="998" y="1003"/>
      <point x="1264" y="702"/>
      <point x="1264" y="432" type="qcurve" smooth="yes"/>
    </contour>
  </outline>
</glyph>
<glyph name="endash" format="2">
  <advance width="1051"/>
  <unicode hex="2013"/>
  <outline>
    <contour>
      <point x="909" y="508" type="line"/>
      <point x="141" y="508" type="line"/>
      <point x="141" y="692" type="line"/>
      <point x="909" y="692" type="line"/>
    </contour>
  </outline>
</glyph>
<glyph name="quotedblright" format="2">
  <advance width="963"/>
  <unicode hex="201D"/>
  <outline>
    <contour>
      <point x="266" y="856" type="line"/>
      <point x="104" y="856" type="line"/>
      <point x="242" y="1413" type="line"/>
      <point x="518" y="1413" type="line"/>
    </contour>
    <contour>
      <point x="655" y="856" type="line"/>
      <point x="494" y="856" type="line"/>
      <point x="631" y="1413" type="line"/>
      <point x="907" y="1413" type="line"/>
    </contour>
  </outline>
</glyph>
<glyph name="quotedblbase" format="2">
  <advance width="901"/>
  <unicode hex="201E"/>
  <outline>
    <contour>
      <point x="248" y="-225" type="line"/>
      <point x="106" y="-225" type="line"/>
      <point x="240" y="264" type="line"/>
      <point x="494" y="264" type="line"/>
    </contour>
    <contour>
      <point x="596" y="-225" type="line"/>
      <point x="455" y="-225" type="line"/>
      <point x="588" y="264" type="line"/>
      <point x="842" y="264" type="line"/>
    </contour>
  </outline>
</glyph>
<glyph name="twodotenleader" format="2">
  <advance width="1061"/>
  <unicode hex="2025"/>
  <outline>
    <contour>
      <point x="446" y="0" type="line"/>
      <point x="201" y="0" type="line"/>
      <point x="201" y="264" type="line"/>
      <point x="446" y="264" type="line"/>
    </contour>
    <contour>
      <point x="860" y="0" type="line"/>
      <point x="614" y="0" type="line"/>
      <point x="614" y="264" type="line"/>
      <point x="860" y="264" type="line"/>
    </contour>
  </outline>
</glyph>
<glyph name="guilsinglright" format="2">
  <advance width="594"/>
  <unicode hex="203A"/>
  <outline>
    <contour>
      <point x="145" y="156" type="line"/>
      <point x="145" y="367" type="line"/>
      <point x="326" y="510" type="line"/>
      <point x="145" y="655" type="line"/>
      <point x="145" y="866" type="line"/>
      <point x="573" y="510" type="line"/>
    </contour>
  </outline>
</glyph>
<glyph name="foursuperior" format="2">
  <advance width="813"/>
  <unicode hex="2074"/>
  <outline>
    <contour>
      <point x="628" y="486" type="line"/>
      <point x="441" y="486" type="line"/>
      <point x="441" y="699" type="line"/>
      <point x="5" y="699" type="line"/>
      <point x="5" y="810" type="line"/>
      <point x="468" y="1428" type="line"/>
      <point x="628" y="1428" type="line"/>
      <point x="628" y="874" type="line"/>
      <point x="779" y="874" type="line"/>
      <point x="779" y="699" type="line"/>
      <point x="628" y="699" type="line"/>
    </contour>
    <contour>
      <point x="441" y="874" type="line"/>
      <point x="441" y="1171" type="line"/>
      <point x="223" y="874" type="line"/>
    </contour>
  </outline>
</glyph>
<glyph name="fivesuperior" format="2">
  <advance width="813"/>
  <unicode hex="2075"/>
  <outline>
    <contour>
      <point x="401" y="473" type="qcurve" smooth="yes"/>
      <point x="310" y="473"/>
      <point x="164" y="555"/>
      <point x="69" y="688"/>
      <point x="51" y="767" type="qcurve"/>
      <point x="207" y="806" type="line"/>
      <point x="223" y="737"/>
      <point x="312" y="645"/>
      <point x="390" y="645" type="qcurve" smooth="yes"/>
      <point x="443" y="645"/>
      <point x="521" y="694"/>
      <point x="564" y="771"/>
      <point x="564" y="811" type="qcurve" smooth="yes"/>
      <point x="564" y="874"/>
      <point x="475" y="969"/>
      <point x="390" y="969" type="qcurve" smooth="yes"/>
      <point x="345" y="969"/>
      <point x="258" y="928"/>
      <point x="231" y="890" type="qcurve"/>
      <point x="78" y="925" type="line"/>
      <point x="169" y="1428" type="line"/>
      <point x="710" y="1428" type="line"/>
      <point x="710" y="1253" type="line"/>
      <point x="303" y="1253" type="line"/>
      <point x="269" y="1098" type="line"/>
      <point x="342" y="1140"/>
      <point x="422" y="1140" type="qcurve" smooth="yes"/>
      <point x="518" y="1140"/>
      <point x="670" y="1047"/>
      <point x="758" y="897"/>
      <point x="758" y="810" type="qcurve" smooth="yes"/>
      <point x="758" y="714"/>
      <point x="657" y="562"/>
      <point x="494" y="473"/>
    </contour>
  </outline>
</glyph>
<glyph name="sixsuperior" format="2">
  <advance width="833"/>
  <unicode hex="2076"/>
  <outline>
    <contour>
      <point x="417" y="473" type="qcurve" smooth="yes"/>
      <point x="312" y="473"/>
      <point x="148" y="563"/>
      <point x="54" y="712"/>
      <point x="54" y="798" type="qcurve" smooth="yes"/>
      <point x="54" y="890"/>
      <point x="108" y="964" type="qcurve"/>
      <point x="408" y="1428" type="line"/>
      <point x="603" y="1428" type="line"/>
      <point x="399" y="1132" type="line"/>
      <point x="459" y="1132"/>
      <point x="552" y="1116"/>
      <point x="602" y="1091" type="qcurve" smooth="yes"/>
      <point x="682" y="1050"/>
      <point x="782" y="905"/>
      <point x="782" y="810" type="qcurve" smooth="yes"/>
      <point x="782" y="721"/>
      <point x="688" y="567"/>
      <point x="524" y="473"/>
    </contour>
    <contour>
      <point x="419" y="651" type="qcurve" smooth="yes"/>
      <point x="496" y="651"/>
      <point x="597" y="747"/>
      <point x="597" y="810" type="qcurve" smooth="yes"/>
      <point x="597" y="878"/>
      <point x="489" y="968"/>
      <point x="419" y="968" type="qcurve" smooth="yes"/>
      <point x="340" y="968"/>
      <point x="240" y="870"/>
      <point x="240" y="810" type="qcurve" smooth="yes"/>
      <point x="240" y="742"/>
      <point x="348" y="651"/>
    </contour>
  </outline>
</glyph>
<glyph name="sevensuperior" format="2">
  <advance width="792"/>
  <unicode hex="2077"/>
  <outline>
    <contour>
      <point x="323" y="486" type="line"/>
      <point x="136" y="486" type="line"/>
      <point x="536" y="1255" type="line"/>
      <point x="61" y="1255" type="line"/>
      <point x="61" y="1428" type="line"/>
      <point x="741" y="1428" type="line"/>
      <point x="741" y="1331" type="line"/>
    </contour>
  </outline>
</glyph>
<glyph name="eightsuperior" format="2">
  <advance width="867"/>
  <unicode hex="2078"/>
  <outline>
    <contour>
      <point x="434" y="463" type="qcurve" smooth="yes"/>
      <point x="332" y="463"/>
      <point x="156" y="527"/>
      <point x="48" y="656"/>
      <point x="48" y="753" type="qcurve" smooth="yes"/>
      <point x="48" y="837"/>
      <point x="132" y="959"/>
      <point x="202" y="996" type="qcurve"/>
      <point x="101" y="1073"/>
      <point x="101" y="1190" type="qcurve" smooth="yes"/>
      <point x="101" y="1275"/>
      <point x="196" y="1391"/>
      <point x="348" y="1451"/>
      <point x="434" y="1451" type="qcurve" smooth="yes"/>
      <point x="517" y="1451"/>
      <point x="670" y="1390"/>
      <point x="766" y="1274"/>
      <point x="766" y="1191" type="qcurve" smooth="yes"/>
      <point x="766" y="1131"/>
      <point x="712" y="1032"/>
      <point x="665" y="996" type="qcurve"/>
      <point x="742" y="955"/>
      <point x="819" y="830"/>
      <point x="819" y="754" type="qcurve" smooth="yes"/>
      <point x="819" y="656"/>
      <point x="710" y="527"/>
      <point x="534" y="463"/>
    </contour>
    <contour>
      <point x="437" y="1067" type="qcurve" smooth="yes"/>
      <point x="500" y="1067"/>
      <point x="584" y="1125"/>
      <point x="584" y="1179" type="qcurve" smooth="yes"/>
      <point x="584" y="1234"/>
      <point x="499" y="1292"/>
      <point x="437" y="1292" type="qcurve" smooth="yes"/>
      <point x="377" y="1292"/>
      <point x="289" y="1238"/>
      <point x="289" y="1182" type="qcurve" smooth="yes"/>
      <point x="289" y="1129"/>
      <point x="370" y="1067"/>
    </contour>
    <contour>
      <point x="432" y="626" type="qcurve" smooth="yes"/>
      <point x="486" y="626"/>
      <point x="576" y="656"/>
      <point x="630" y="717"/>
      <point x="630" y="764" type="qcurve" smooth="yes"/>
      <point x="630" y="832"/>
      <point x="518" y="905"/>
      <point x="432" y="905" type="qcurve" smooth="yes"/>
      <point x="379" y="905"/>
      <point x="288" y="874"/>
      <point x="234" y="813"/>
      <point x="234" y="766" type="qcurve" smooth="yes"/>
      <point x="234" y="719"/>
      <point x="288" y="657"/>
      <point x="378" y="626"/>
    </contour>
  </outline>
</glyph>
<glyph name="ninesuperior" format="2">
  <advance width="833"/>
  <unicode hex="2079"/>
  <outline>
    <contour>
      <point x="425" y="486" type="line"/>
      <point x="231" y="486" type="line"/>
      <point x="435" y="782" type="line"/>
      <point x="375" y="782"/>
      <point x="283" y="798"/>
      <point x="232" y="824" type="qcurve" smooth="yes"/>
      <point x="151" y="865"/>
      <point x="51" y="1009"/>
      <point x="51" y="1104" type="qcurve" smooth="yes"/>
      <point x="51" y="1189"/>
      <point x="141" y="1345"/>
      <point x="229" y="1396" type="qcurve"/>
      <point x="313" y="1442"/>
      <point x="415" y="1442" type="qcurve" smooth="yes"/>
      <point x="522" y="1442"/>
      <point x="686" y="1350"/>
      <point x="779" y="1202"/>
      <point x="779" y="1117" type="qcurve" smooth="yes"/>
      <point x="779" y="1023"/>
      <point x="725" y="950" type="qcurve"/>
    </contour>
    <contour>
      <point x="414" y="946" type="qcurve" smooth="yes"/>
      <point x="493" y="946"/>
      <point x="593" y="1043"/>
      <point x="593" y="1104" type="qcurve" smooth="yes"/>
      <point x="593" y="1173"/>
      <point x="485" y="1263"/>
      <point x="414" y="1263" type="qcurve" smooth="yes"/>
      <point x="336" y="1263"/>
      <point x="237" y="1165"/>
      <point x="237" y="1104" type="qcurve" smooth="yes"/>
      <point x="237" y="1035"/>
      <point x="346" y="946"/>
    </contour>
  </outline>
</glyph>
<glyph name="uni20B1" format="2">
  <advance width="1352"/>
  <unicode hex="20B1"/>
  <anchor x="655" y="0" name="b.uni0326"/>
  <anchor x="655" y="1411" name="t.ringcmb_1"/>
  <anchor x="1" y="0" name="b.ogonekcmb_2"/>
  <anchor x="1" y="0" name="m.horncmb_3"/>
  <outline>
    <contour>
      <point x="504" y="0" type="line"/>
      <point x="252" y="0" type="line"/>
      <point x="252" y="946" type="line"/>
      <point x="133" y="946" type="line"/>
      <point x="133" y="1055" type="line"/>
      <point x="252" y="1055" type="line"/>
      <point x="252" y="1413" type="line"/>
      <point x="695" y="1413" type="line" smooth="yes"/>
      <point x="887" y="1413"/>
      <point x="1164" y="1233"/>
      <point x="1190" y="1055" type="qcurve"/>
      <point x="1284" y="1055" type="line"/>
      <point x="1284" y="946" type="line"/>
      <point x="1191" y="946" type="line"/>
      <point x="1169" y="770"/>
      <point x="896" y="586"/>
      <point x="695" y="586" type="qcurve" smooth="yes"/>
      <point x="504" y="586" type="line"/>
    </contour>
    <contour>
      <point x="934" y="1055" type="line"/>
      <point x="897" y="1176"/>
      <point x="695" y="1176" type="qcurve" smooth="yes"/>
      <point x="504" y="1176" type="line"/>
      <point x="504" y="1055" type="line"/>
    </contour>
    <contour>
      <point x="695" y="823" type="line" smooth="yes"/>
      <point x="910" y="823"/>
      <point x="936" y="946" type="qcurve"/>
      <point x="504" y="946" type="line"/>
      <point x="504" y="823" type="line"/>
    </contour>
  </outline>
</glyph>
<glyph name="uni20B8" format="2">
  <advance width="1376"/>
  <unicode hex="20B8"/>
  <outline>
    <contour>
      <point x="1257" y="1186" type="line"/>
      <point x="119" y="1186" type="line"/>
      <point x="119" y="1413" type="line"/>
      <point x="1257" y="1413" type="line"/>
    </contour>
    <contour>
      <point x="815" y="0" type="line"/>
      <point x="561" y="0" type="line"/>
      <point x="561" y="854" type="line"/>
      <point x="119" y="854" type="line"/>
      <point x="119" y="1081" type="line"/>
      <point x="1257" y="1081" type="line"/>
      <point x="1257" y="854" type="line"/>
      <point x="815" y="854" type="line"/>
    </contour>
  </outline>
</glyph>
<glyph name="uni20BD" format="2">
  <advance width="1354"/>
  <unicode hex="20BD"/>
  <outline>
    <contour>
      <point x="569" y="0" type="line"/>
      <point x="317" y="0" type="line"/>
      <point x="317" y="262" type="line"/>
      <point x="139" y="262" type="line"/>
      <point x="139" y="459" type="line"/>
      <point x="317" y="459" type="line"/>
      <point x="317" y="606" type="line"/>
      <point x="139" y="606" type="line"/>
      <point x="139" y="823" type="line"/>
      <point x="317" y="823" type="line"/>
      <point x="317" y="1413" type="line"/>
      <point x="760" y="1413" type="line" smooth="yes"/>
      <point x="900" y="1413"/>
      <point x="1127" y="1318"/>
      <point x="1260" y="1132"/>
      <point x="1260" y="995" type="qcurve" smooth="yes"/>
      <point x="1260" y="864"/>
      <point x="1132" y="692"/>
      <point x="906" y="606"/>
      <point x="760" y="606" type="qcurve" smooth="yes"/>
      <point x="569" y="606" type="line"/>
      <point x="569" y="459" type="line"/>
      <point x="903" y="459" type="line"/>
      <point x="903" y="262" type="line"/>
      <point x="569" y="262" type="line"/>
    </contour>
    <contour>
      <point x="760" y="823" type="line" smooth="yes"/>
      <point x="883" y="823"/>
      <point x="1008" y="906"/>
      <point x="1008" y="995" type="qcurve" smooth="yes"/>
      <point x="1008" y="1176"/>
      <point x="760" y="1176" type="qcurve" smooth="yes"/>
      <point x="569" y="1176" type="line"/>
      <point x="569" y="823" type="line"/>
    </contour>
  </outline>
</glyph>
<glyph name="afii61352" format="2">
  <advance width="2376"/>
  <unicode hex="2116"/>
  <anchor x="1873" y="348" name="b.uni0326"/>
  <anchor x="1873" y="1170" name="t.ringcmb_1"/>
  <anchor x="2002" y="348" name="b.ogonekcmb_2"/>
  <anchor x="2320" y="1170" name="m.horncmb_3"/>
  <outline>
    <contour>
      <point x="1272" y="0" type="line"/>
      <point x="1018" y="0" type="line"/>
      <point x="426" y="991" type="line"/>
      <point x="426" y="0" type="line"/>
      <point x="182" y="0" type="line"/>
      <point x="182" y="1413" type="line"/>
      <point x="434" y="1413" type="line"/>
      <point x="1028" y="424" type="line"/>
      <point x="1028" y="1413" type="line"/>
      <point x="1272" y="1413" type="line"/>
    </contour>
    <contour>
      <point x="1872" y="332" type="qcurve" smooth="yes"/>
      <point x="1742" y="332"/>
      <point x="1554" y="449"/>
      <point x="1451" y="641"/>
      <point x="1451" y="756" type="qcurve" smooth="yes"/>
      <point x="1451" y="868"/>
      <point x="1553" y="1063"/>
      <point x="1653" y="1124" type="qcurve" smooth="yes"/>
      <point x="1748" y="1181"/>
      <point x="1872" y="1181" type="qcurve" smooth="yes"/>
      <point x="2002" y="1181"/>
      <point x="2190" y="1063"/>
      <point x="2293" y="870"/>
      <point x="2293" y="756" type="qcurve" smooth="yes"/>
      <point x="2293" y="642"/>
      <point x="2191" y="449"/>
      <point x="2002" y="332"/>
    </contour>
    <contour>
      <point x="1872" y="504" type="qcurve" smooth="yes"/>
      <point x="1979" y="504"/>
      <point x="2084" y="646"/>
      <point x="2084" y="756" type="qcurve" smooth="yes"/>
      <point x="2084" y="865"/>
      <point x="1979" y="1007"/>
      <point x="1872" y="1007" type="qcurve" smooth="yes"/>
      <point x="1765" y="1007"/>
      <point x="1660" y="865"/>
      <point x="1660" y="756" type="qcurve" smooth="yes"/>
      <point x="1660" y="646"/>
      <point x="1765" y="504"/>
    </contour>
    <contour>
      <point x="2279" y="0" type="line"/>
      <point x="1452" y="0" type="line"/>
      <point x="1452" y="184" type="line"/>
      <point x="2279" y="184" type="line"/>
    </contour>
  </outline>
</glyph>
<glyph name="trademark" format="2">
  <advance width="1405"/>
  <unicode hex="2122"/>
  <outline>
    <contour>
      <point x="430" y="877" type="line"/>
      <point x="279" y="877" type="line"/>
      <point x="279" y="1274" type="line"/>
      <point x="133" y="1274" type="line"/>
      <point x="133" y="1413" type="line"/>
      <point x="575" y="1413" type="line"/>
      <point x="575" y="1274" type="line"/>
      <point x="430" y="1274" type="line"/>
    </contour>
    <contour>
      <point x="1188" y="877" type="line"/>
      <point x="1036" y="877" type="line"/>
      <point x="1036" y="1143" type="line"/>
      <point x="975" y="958" type="line"/>
      <point x="879" y="958" type="line"/>
      <point x="813" y="1147" type="line"/>
      <point x="813" y="877" type="line"/>
      <point x="662" y="877" type="line"/>
      <point x="662" y="1413" type="line"/>
      <point x="811" y="1413" type="line"/>
      <point x="926" y="1098" type="line"/>
      <point x="1040" y="1413" type="line"/>
      <point x="1188" y="1413" type="line"/>
    </contour>
  </outline>
</glyph>
<glyph name="Ohm" format="2">
  <advance width="1673"/>
  <unicode hex="2126"/>
  <outline>
    <contour>
      <point x="1528" y="0" type="line"/>
      <point x="948" y="0" type="line"/>
      <point x="948" y="188" type="line"/>
      <point x="1121" y="217"/>
      <point x="1311" y="504"/>
      <point x="1311" y="713" type="qcurve" smooth="yes"/>
      <point x="1311" y="813"/>
      <point x="1250" y="988"/>
      <point x="1198" y="1042" type="qcurve" smooth="yes"/>
      <point x="1125" y="1119"/>
      <point x="930" y="1202"/>
      <point x="836" y="1202" type="qcurve" smooth="yes"/>
      <point x="737" y="1202"/>
      <point x="544" y="1114"/>
      <point x="473" y="1042" type="qcurve" smooth="yes"/>
      <point x="421" y="988"/>
      <point x="360" y="813"/>
      <point x="360" y="713" type="qcurve" smooth="yes"/>
      <point x="360" y="490"/>
      <point x="559" y="212"/>
      <point x="723" y="188" type="qcurve"/>
      <point x="723" y="0" type="line"/>
      <point x="143" y="0" type="line"/>
      <point x="143" y="203" type="line"/>
      <point x="416" y="203" type="line"/>
      <point x="292" y="303"/>
      <point x="147" y="581"/>
      <point x="147" y="721" type="qcurve" smooth="yes"/>
      <point x="147" y="849"/>
      <point x="243" y="1100"/>
      <point x="328" y="1190" type="qcurve"/>
      <point x="428" y="1291"/>
      <point x="699" y="1407"/>
      <point x="836" y="1407" type="qcurve" smooth="yes"/>
      <point x="975" y="1407"/>
      <point x="1245" y="1288"/>
      <point x="1343" y="1188" type="qcurve"/>
      <point x="1425" y="1102"/>
      <point x="1524" y="851"/>
      <point x="1524" y="715" type="qcurve" smooth="yes"/>
      <point x="1524" y="568"/>
      <point x="1390" y="292"/>
      <point x="1276" y="195" type="qcurve"/>
      <point x="1528" y="195" type="line"/>
    </contour>
  </outline>
</glyph>
<glyph name="arrowleft" format="2">
  <advance width="2228"/>
  <unicode hex="2190"/>
  <outline>
    <contour>
      <point x="1053" y="72" type="line"/>
      <point x="43" y="639" type="line"/>
      <point x="1053" y="1196" type="line"/>
      <point x="1165" y="999" type="line"/>
      <point x="590" y="737" type="line"/>
      <point x="2148" y="737" type="line"/>
      <point x="2148" y="532" type="line"/>
      <point x="600" y="532" type="line"/>
      <point x="1165" y="268" type="line"/>
    </contour>
  </outline>
</glyph>
<glyph name="partialdiff" format="2">
  <advance width="1282"/>
  <unicode hex="2202"/>
  <outline>
    <contour>
      <point x="561" y="-12" type="qcurve" smooth="yes"/>
      <point x="412" y="-12"/>
      <point x="205" y="109"/>
      <point x="98" y="319"/>
      <point x="98" y="451" type="qcurve" smooth="yes"/>
      <point x="98" y="578"/>
      <point x="189" y="782"/>
      <point x="341" y="928"/>
      <point x="531" y="1006"/>
      <point x="631" y="1006" type="qcurve" smooth="yes"/>
      <point x="783" y="1006"/>
      <point x="913" y="915" type="qcurve"/>
      <point x="913" y="1030"/>
      <point x="840" y="1179"/>
      <point x="714" y="1251"/>
      <point x="635" y="1251" type="qcurve" smooth="yes"/>
      <point x="463" y="1251"/>
      <point x="397" y="1094" type="qcurve"/>
      <point x="219" y="1149" type="line"/>
      <point x="276" y="1287"/>
      <point x="507" y="1430"/>
      <point x="657" y="1430" type="qcurve" smooth="yes"/>
      <point x="827" y="1430"/>
      <point x="939" y="1343" type="qcurve"/>
      <point x="1053" y="1251"/>
      <point x="1155" y="949"/>
      <point x="1155" y="764" type="qcurve" smooth="yes"/>
      <point x="1155" y="546"/>
      <point x="1019" y="191"/>
      <point x="879" y="86" type="qcurve"/>
      <point x="745" y="-12"/>
    </contour>
    <contour>
      <point x="575" y="197" type="qcurve" smooth="yes"/>
      <point x="658" y="197"/>
      <point x="813" y="280"/>
      <point x="913" y="437"/>
      <point x="913" y="547" type="qcurve" smooth="yes"/>
      <point x="913" y="622"/>
      <point x="860" y="740"/>
      <point x="749" y="807"/>
      <point x="662" y="807" type="qcurve" smooth="yes"/>
      <point x="550" y="807"/>
      <point x="400" y="701"/>
      <point x="324" y="538"/>
      <point x="324" y="453" type="qcurve" smooth="yes"/>
      <point x="324" y="367"/>
      <point x="394" y="254"/>
      <point x="508" y="197"/>
    </contour>
  </outline>
</glyph>
<glyph name="radical" format="2">
  <advance width="1184"/>
  <unicode hex="221A"/>
  <outline>
    <contour>
      <point x="492" y="-242" type="line"/>
      <point x="211" y="541" type="line"/>
      <point x="53" y="541" type="line"/>
      <point x="53" y="745" type="line"/>
      <point x="358" y="745" type="line"/>
      <point x="504" y="285" type="line"/>
      <point x="946" y="1427" type="line"/>
      <point x="1137" y="1356" type="line"/>
    </contour>
  </outline>
</glyph>
<glyph name="infinity" format="2">
  <advance width="1880"/>
  <unicode hex="221E"/>
  <outline>
    <contour>
      <point x="1346" y="354" type="qcurve" smooth="yes"/>
      <point x="1244" y="354"/>
      <point x="1029" y="460"/>
      <point x="940" y="569" type="qcurve"/>
      <point x="850" y="460"/>
      <point x="636" y="354"/>
      <point x="535" y="354" type="qcurve" smooth="yes"/>
      <point x="408" y="354"/>
      <point x="230" y="453"/>
      <point x="137" y="625"/>
      <point x="137" y="735" type="qcurve" smooth="yes"/>
      <point x="137" y="842"/>
      <point x="228" y="1015"/>
      <point x="405" y="1116"/>
      <point x="535" y="1116" type="qcurve" smooth="yes"/>
      <point x="637" y="1116"/>
      <point x="851" y="1010"/>
      <point x="940" y="901" type="qcurve"/>
      <point x="1030" y="1010"/>
      <point x="1244" y="1116"/>
      <point x="1346" y="1116" type="qcurve" smooth="yes"/>
      <point x="1472" y="1116"/>
      <point x="1650" y="1017"/>
      <point x="1743" y="845"/>
      <point x="1743" y="735" type="qcurve" smooth="yes"/>
      <point x="1743" y="627"/>
      <point x="1652" y="455"/>
      <point x="1474" y="354"/>
    </contour>
    <contour>
      <point x="565" y="551" type="qcurve" smooth="yes"/>
      <point x="626" y="551"/>
      <point x="774" y="643"/>
      <point x="831" y="735" type="qcurve"/>
      <point x="773" y="829"/>
      <point x="626" y="920"/>
      <point x="565" y="920" type="qcurve" smooth="yes"/>
      <point x="472" y="920"/>
      <point x="354" y="827"/>
      <point x="354" y="735" type="qcurve" smooth="yes"/>
      <point x="354" y="643"/>
      <point x="472" y="551"/>
    </contour>
    <contour>
      <point x="1315" y="551" type="qcurve" smooth="yes"/>
      <point x="1408" y="551"/>
      <point x="1526" y="643"/>
      <point x="1526" y="735" type="qcurve" smooth="yes"/>
      <point x="1526" y="827"/>
      <point x="1408" y="920"/>
      <point x="1315" y="920" type="qcurve" smooth="yes"/>
      <point x="1253" y="920"/>
      <point x="1105" y="826"/>
      <point x="1049" y="735" type="qcurve"/>
      <point x="1107" y="641"/>
      <point x="1254" y="551"/>
    </contour>
  </outline>
</glyph>
<glyph name="notequal" format="2">
  <advance width="1163"/>
  <unicode hex="2260"/>
  <outline>
    <contour>
      <point x="299" y="0" type="line"/>
      <point x="90" y="0" type="line"/>
      <point x="317" y="406" type="line"/>
      <point x="172" y="406" type="line"/>
      <point x="172" y="592" type="line"/>
      <point x="418" y="592" type="line"/>
      <point x="504" y="752" type="line"/>
      <point x="172" y="752" type="line"/>
      <point x="172" y="938" type="line"/>
      <point x="604" y="938" type="line"/>
      <point x="868" y="1413" type="line"/>
      <point x="1077" y="1413" type="line"/>
      <point x="813" y="938" type="line"/>
      <point x="981" y="938" type="line"/>
      <point x="981" y="752" type="line"/>
      <point x="713" y="752" type="line"/>
      <point x="627" y="592" type="line"/>
      <point x="981" y="592" type="line"/>
      <point x="981" y="406" type="line"/>
      <point x="526" y="406" type="line"/>
    </contour>
  </outline>
</glyph>
<glyph name="lozenge" format="2">
  <advance width="1098"/>
  <unicode hex="25CA"/>
  <outline>
    <contour>
      <point x="651" y="0" type="line"/>
      <point x="446" y="0" type="line"/>
      <point x="61" y="717" type="line"/>
      <point x="446" y="1434" type="line"/>
      <point x="651" y="1434" type="line"/>
      <point x="1036" y="717" type="line"/>
    </contour>
    <contour>
      <point x="549" y="227" type="line"/>
      <point x="795" y="717" type="line"/>
      <point x="549" y="1206" type="line"/>
      <point x="303" y="717" type="line"/>
    </contour>
  </outline>
</glyph>
<glyph name="fi" format="2">
  <advance width="1106"/>
  <unicode hex="FB01"/>
  <outline>
    <contour>
      <point x="968" y="0" type="line"/>
      <point x="732" y="0" type="line"/>
      <point x="732" y="795" type="line"/>
      <point x="417" y="795" type="line"/>
      <point x="417" y="0" type="line"/>
      <point x="175" y="0" type="line"/>
      <point x="175" y="795" type="line"/>
      <point x="19" y="795" type="line"/>
      <point x="19" y="999" type="line"/>
      <point x="175" y="999" type="line"/>
      <point x="175" y="1124"/>
      <point x="262" y="1321"/>
      <point x="451" y="1434"/>
      <point x="603" y="1434" type="qcurve" smooth="yes"/>
      <point x="696" y="1434"/>
      <point x="819" y="1396"/>
      <point x="897" y="1345"/>
      <point x="922" y="1324" type="qcurve" smooth="yes"/>
      <point x="937" y="1311" type="line"/>
      <point x="808" y="1124" type="line"/>
      <point x="789" y="1144"/>
      <point x="737" y="1184"/>
      <point x="660" y="1212"/>
      <point x="601" y="1212" type="qcurve" smooth="yes"/>
      <point x="497" y="1212"/>
      <point x="417" y="1101"/>
      <point x="417" y="999" type="qcurve"/>
      <point x="968" y="999" type="line"/>
    </contour>
  </outline>
</glyph>
<glyph name="c.001" format="2">
  <advance width="1004"/>
  <outline>
    <contour>
      <point x="541" y="-20" type="qcurve" smooth="yes"/>
      <point x="420" y="-20"/>
      <point x="238" y="65"/>
      <point x="117" y="211"/>
      <point x="57" y="397"/>
      <point x="57" y="498" type="qcurve" smooth="yes"/>
      <point x="57" y="628"/>
      <point x="161" y="867"/>
      <point x="275" y="947" type="qcurve"/>
      <point x="383" y="1020"/>
      <point x="539" y="1020" type="qcurve" smooth="yes"/>
      <point x="692" y="1020"/>
      <point x="915" y="857"/>
      <point x="971" y="725" type="qcurve"/>
      <point x="739" y="635" type="line"/>
      <point x="719" y="707"/>
      <point x="616" y="799"/>
      <point x="539" y="799" type="qcurve" smooth="yes"/>
      <point x="457" y="799"/>
      <point x="354" y="714"/>
      <point x="305" y="576"/>
      <point x="305" y="498" type="qcurve" smooth="yes"/>
      <point x="305" y="419"/>
      <point x="352" y="284"/>
      <point x="455" y="201"/>
      <point x="539" y="201" type="qcurve" smooth="yes"/>
      <point x="614" y="201"/>
      <point x="719" y="289"/>
      <point x="739" y="360" type="qcurve"/>
      <point x="961" y="276" type="line"/>
      <point x="909" y="133"/>
      <point x="687" y="-20"/>
    </contour>
  </outline>
</glyph>
<glyph name="f_f" format="2">
  <advance width="1281"/>
  <outline>
    <contour>
      <point x="427" y="795" type="line"/>
      <point x="427" y="0" type="line"/>
      <point x="181" y="0" type="line"/>
      <point x="181" y="795" type="line"/>
      <point x="19" y="795" type="line"/>
      <point x="19" y="999" type="line"/>
      <point x="183" y="999" type="line"/>
      <point x="183" y="1092" type="line" smooth="yes"/>
      <point x="183" y="1183"/>
      <point x="217" y="1248" type="qcurve" smooth="yes"/>
      <point x="283" y="1373"/>
      <point x="441" y="1415" type="qcurve" smooth="yes"/>
      <point x="515" y="1434"/>
      <point x="595" y="1434" type="qcurve" smooth="yes"/>
      <point x="681" y="1434"/>
      <point x="764" y="1408" type="qcurve" smooth="yes"/>
      <point x="825" y="1389"/>
      <point x="883" y="1347" type="qcurve"/>
      <point x="917" y="1379"/>
      <point x="960" y="1400" type="qcurve" smooth="yes"/>
      <point x="1033" y="1434"/>
      <point x="1117" y="1434" type="qcurve" smooth="yes"/>
      <point x="1206" y="1434"/>
      <point x="1298" y="1393" type="qcurve"/>
      <point x="1218" y="1192" type="line"/>
      <point x="1177" y="1217"/>
      <point x="1140" y="1217" type="qcurve" smooth="yes"/>
      <point x="1102" y="1217"/>
      <point x="1048" y="1166"/>
      <point x="1048" y="1108" type="qcurve" smooth="yes"/>
      <point x="1048" y="999" type="line"/>
      <point x="1281" y="999" type="line"/>
      <point x="1281" y="795" type="line"/>
      <point x="1048" y="795" type="line"/>
      <point x="1048" y="0" type="line"/>
      <point x="796" y="0" type="line"/>
      <point x="796" y="795" type="line"/>
    </contour>
    <contour>
      <point x="798" y="1141" type="line"/>
      <point x="787" y="1152"/>
      <point x="764" y="1170" type="qcurve"/>
      <point x="705" y="1212"/>
      <point x="607" y="1212" type="qcurve" smooth="yes"/>
      <point x="509" y="1212"/>
      <point x="427" y="1131"/>
      <point x="427" y="1071" type="qcurve" smooth="yes"/>
      <point x="427" y="999" type="line"/>
      <point x="797" y="999" type="line"/>
    </contour>
  </outline>
</glyph>
<glyph name="f_f_l" format="2">
  <advance width="1812"/>
  <outline>
    <contour>
      <point x="1601" y="-20" type="qcurve" smooth="yes"/>
      <point x="1400" y="-20"/>
      <point x="1400" y="199" type="qcurve" smooth="yes"/>
      <point x="1400" y="1169" type="line"/>
      <point x="1343" y="1212"/>
      <point x="1236" y="1212" type="qcurve" smooth="yes"/>
      <point x="1039" y="1212"/>
      <point x="1039" y="1057" type="qcurve" smooth="yes"/>
      <point x="1039" y="999" type="line"/>
      <point x="1236" y="999" type="line"/>
      <point x="1236" y="795" type="line"/>
      <point x="1039" y="795" type="line"/>
      <point x="1039" y="0" type="line"/>
      <point x="794" y="0" type="line"/>
      <point x="794" y="795" type="line"/>
      <point x="427" y="795" type="line"/>
      <point x="427" y="0" type="line"/>
      <point x="181" y="0" type="line"/>
      <point x="181" y="795" type="line"/>
      <point x="19" y="795" type="line"/>
      <point x="19" y="999" type="line"/>
      <point x="183" y="999" type="line"/>
      <point x="183" y="1092" type="line" smooth="yes"/>
      <point x="183" y="1183"/>
      <point x="217" y="1248" type="qcurve" smooth="yes"/>
      <point x="283" y="1373"/>
      <point x="441" y="1415" type="qcurve" smooth="yes"/>
      <point x="515" y="1434"/>
      <point x="595" y="1434" type="qcurve" smooth="yes"/>
      <point x="681" y="1434"/>
      <point x="846" y="1382"/>
      <point x="923" y="1315" type="qcurve"/>
      <point x="961" y="1362"/>
      <point x="1071" y="1414"/>
      <point x="1193" y="1434"/>
      <point x="1248" y="1434" type="qcurve" smooth="yes"/>
      <point x="1491" y="1434"/>
      <point x="1637" y="1276" type="qcurve"/>
      <point x="1637" y="266" type="line" smooth="yes"/>
      <point x="1637" y="223"/>
      <point x="1681" y="199"/>
      <point x="1707" y="199" type="qcurve" smooth="yes"/>
      <point x="1739" y="199"/>
      <point x="1768" y="205" type="qcurve"/>
      <point x="1768" y="0" type="line"/>
      <point x="1667" y="-20"/>
    </contour>
    <contour>
      <point x="796" y="999" type="line"/>
      <point x="796" y="1091"/>
      <point x="798" y="1141" type="qcurve"/>
      <point x="787" y="1152"/>
      <point x="764" y="1170" type="qcurve"/>
      <point x="705" y="1212"/>
      <point x="607" y="1212" type="qcurve" smooth="yes"/>
      <point x="509" y="1212"/>
      <point x="427" y="1131"/>
      <point x="427" y="1071" type="qcurve" smooth="yes"/>
      <point x="427" y="999" type="line"/>
    </contour>
  </outline>
</glyph>
<glyph name="g.ss01" format="2">
  <advance width="1165"/>
  <outline>
    <contour>
      <point x="549" y="-438" type="qcurve" smooth="yes"/>
      <point x="393" y="-438"/>
      <point x="177" y="-324"/>
      <point x="104" y="-223" type="qcurve"/>
      <point x="291" y="-88" type="line"/>
      <point x="322" y="-145"/>
      <point x="453" y="-225"/>
      <point x="553" y="-225" type="qcurve" smooth="yes"/>
      <point x="772" y="-225"/>
      <point x="772" y="0" type="qcurve" smooth="yes"/>
      <point x="772" y="121" type="line"/>
      <point x="719" y="57"/>
      <point x="572" y="0"/>
      <point x="492" y="0" type="qcurve" smooth="yes"/>
      <point x="387" y="0"/>
      <point x="226" y="83"/>
      <point x="116" y="225"/>
      <point x="59" y="409"/>
      <point x="59" y="510" type="qcurve" smooth="yes"/>
      <point x="59" y="640"/>
      <point x="156" y="874"/>
      <point x="257" y="950" type="qcurve"/>
      <point x="354" y="1020"/>
      <point x="487" y="1020" type="qcurve" smooth="yes"/>
      <point x="567" y="1020"/>
      <point x="718" y="962"/>
      <point x="772" y="899" type="qcurve"/>
      <point x="772" y="999" type="line"/>
      <point x="1018" y="999" type="line"/>
      <point x="1018" y="0" type="line" smooth="yes"/>
      <point x="1018" y="-209"/>
      <point x="767" y="-438"/>
    </contour>
    <contour>
      <point x="551" y="225" type="qcurve" smooth="yes"/>
      <point x="671" y="225"/>
      <point x="793" y="383"/>
      <point x="793" y="510" type="qcurve" smooth="yes"/>
      <point x="793" y="590"/>
      <point x="742" y="721"/>
      <point x="635" y="799"/>
      <point x="551" y="799" type="qcurve" smooth="yes"/>
      <point x="468" y="799"/>
      <point x="360" y="721"/>
      <point x="307" y="590"/>
      <point x="307" y="510" type="qcurve" smooth="yes"/>
      <point x="307" y="384"/>
      <point x="431" y="225"/>
    </contour>
  </outline>
</glyph>
<glyph name="strokecy" format="2">
  <advance width="1036"/>
  <outline>
    <contour>
      <point x="897" y="264" type="line"/>
      <point x="139" y="264" type="line"/>
      <point x="139" y="477" type="line"/>
      <point x="897" y="477" type="line"/>
    </contour>
  </outline>
</glyph>
<glyph name="u1D4B6" format="2">
  <advance width="1110"/>
  <outline>
    <contour>
      <point x="965" y="0" type="line"/>
      <point x="145" y="0" type="line"/>
      <point x="145" y="954" type="line"/>
      <point x="965" y="954" type="line"/>
    </contour>
    <contour>
      <point x="862" y="102" type="line"/>
      <point x="862" y="852" type="line"/>
      <point x="248" y="852" type="line"/>
      <point x="248" y="102" type="line"/>
    </contour>
  </outline>
</glyph>
<glyph name="uni0431.loclSRB" format="2">
  <advance width="1149"/>
  <outline>
    <contour>
      <point x="563" y="-16" type="qcurve" smooth="yes"/>
      <point x="406" y="-16"/>
      <point x="173" y="119"/>
      <point x="45" y="345"/>
      <point x="45" y="481" type="qcurve" smooth="yes"/>
      <point x="45" y="624"/>
      <point x="199" y="881"/>
      <point x="379" y="958" type="qcurve"/>
      <point x="288" y="993"/>
      <point x="168" y="1118"/>
      <point x="168" y="1208" type="qcurve" smooth="yes"/>
      <point x="168" y="1310"/>
      <point x="324" y="1434"/>
      <point x="459" y="1434" type="qcurve" smooth="yes"/>
      <point x="531" y="1434"/>
      <point x="715" y="1392"/>
      <point x="815" y="1341" type="qcurve"/>
      <point x="739" y="1112" type="line"/>
      <point x="688" y="1161"/>
      <point x="543" y="1225"/>
      <point x="487" y="1225" type="qcurve" smooth="yes"/>
      <point x="456" y="1225"/>
      <point x="418" y="1198"/>
      <point x="418" y="1169" type="qcurve" smooth="yes"/>
      <point x="418" y="1086"/>
      <point x="616" y="1026" type="qcurve"/>
      <point x="852" y="957"/>
      <point x="1090" y="701"/>
      <point x="1090" y="502" type="qcurve" smooth="yes"/>
      <point x="1090" y="343"/>
      <point x="946" y="111"/>
      <point x="707" y="-16"/>
    </contour>
    <contour>
      <point x="567" y="190" type="qcurve" smooth="yes"/>
      <point x="664" y="190"/>
      <point x="779" y="293"/>
      <point x="825" y="431"/>
      <point x="825" y="492" type="qcurve" smooth="yes"/>
      <point x="825" y="583"/>
      <point x="726" y="710"/>
      <point x="617" y="772"/>
      <point x="549" y="801" type="qcurve"/>
      <point x="465" y="785"/>
      <point x="359" y="688"/>
      <point x="309" y="554"/>
      <point x="309" y="485" type="qcurve" smooth="yes"/>
      <point x="309" y="416"/>
      <point x="361" y="280"/>
      <point x="475" y="190"/>
    </contour>
  </outline>
</glyph>
<glyph name="uni0432.loclRUS" format="2">
  <advance width="1083"/>
  <outline>
    <contour>
      <point x="578" y="0" type="qcurve" smooth="yes"/>
      <point x="139" y="0" type="line"/>
      <point x="139" y="999" type="line"/>
      <point x="580" y="999" type="line" smooth="yes"/>
      <point x="714" y="999"/>
      <point x="888" y="950"/>
      <point x="989" y="826"/>
      <point x="989" y="709" type="qcurve" smooth="yes"/>
      <point x="989" y="651"/>
      <point x="924" y="543"/>
      <point x="856" y="518" type="qcurve"/>
      <point x="1020" y="485"/>
      <point x="1020" y="287" type="qcurve" smooth="yes"/>
      <point x="1020" y="180"/>
      <point x="921" y="54"/>
      <point x="724" y="0"/>
    </contour>
    <contour>
      <point x="625" y="612" type="line" smooth="yes"/>
      <point x="692" y="612"/>
      <point x="748" y="654"/>
      <point x="748" y="692" type="qcurve" smooth="yes"/>
      <point x="748" y="729"/>
      <point x="691" y="768"/>
      <point x="623" y="768" type="qcurve" smooth="yes"/>
      <point x="387" y="768" type="line"/>
      <point x="387" y="612" type="line"/>
    </contour>
    <contour>
      <point x="618" y="227" type="line" smooth="yes"/>
      <point x="698" y="227"/>
      <point x="768" y="267"/>
      <point x="768" y="311" type="qcurve" smooth="yes"/>
      <point x="768" y="397"/>
      <point x="628" y="397" type="qcurve" smooth="yes"/>
      <point x="387" y="397" type="line"/>
      <point x="387" y="227" type="line"/>
    </contour>
  </outline>
</glyph>
<glyph name="uni0434.loclRUS" format="2">
  <advance width="1243"/>
  <outline>
    <contour>
      <point x="1204" y="-307" type="line"/>
      <point x="956" y="-307" type="line"/>
      <point x="956" y="0" type="line"/>
      <point x="244" y="0" type="line"/>
      <point x="244" y="-307" type="line"/>
      <point x="-4" y="-307" type="line"/>
      <point x="-4" y="182" type="line"/>
      <point x="145" y="182" type="line"/>
      <point x="192" y="232"/>
      <point x="238" y="368"/>
      <point x="252" y="527"/>
      <point x="252" y="612" type="qcurve" smooth="yes"/>
      <point x="252" y="999" type="line"/>
      <point x="1057" y="999" type="line"/>
      <point x="1057" y="182" type="line"/>
      <point x="1204" y="182" type="line"/>
    </contour>
    <contour>
      <point x="809" y="182" type="line"/>
      <point x="809" y="817" type="line"/>
      <point x="500" y="817" type="line"/>
      <point x="500" y="616" type="line" smooth="yes"/>
      <point x="500" y="528"/>
      <point x="486" y="367"/>
      <point x="439" y="231"/>
      <point x="393" y="182" type="qcurve"/>
    </contour>
  </outline>
</glyph>
<glyph name="uni0436.loclSRB" format="2">
  <advance width="1530"/>
  <outline>
    <contour>
      <point x="1520" y="0" type="line"/>
      <point x="1231" y="0" type="line"/>
      <point x="1110" y="352" type="line"/>
      <point x="1073" y="463"/>
      <point x="979" y="463" type="qcurve" smooth="yes"/>
      <point x="887" y="463" type="line"/>
      <point x="887" y="0" type="line"/>
      <point x="643" y="0" type="line"/>
      <point x="643" y="463" type="line"/>
      <point x="551" y="463" type="line" smooth="yes"/>
      <point x="457" y="463"/>
      <point x="420" y="352" type="qcurve"/>
      <point x="299" y="0" type="line"/>
      <point x="10" y="0" type="line"/>
      <point x="186" y="455" type="line"/>
      <point x="213" y="512"/>
      <point x="304" y="612"/>
      <point x="354" y="612" type="qcurve"/>
      <point x="61" y="999" type="line"/>
      <point x="344" y="999" type="line"/>
      <point x="578" y="643" type="line"/>
      <point x="643" y="643" type="line"/>
      <point x="643" y="999" type="line"/>
      <point x="887" y="999" type="line"/>
      <point x="887" y="643" type="line"/>
      <point x="952" y="643" type="line"/>
      <point x="1186" y="999" type="line"/>
      <point x="1468" y="999" type="line"/>
      <point x="1176" y="612" type="line"/>
      <point x="1226" y="612"/>
      <point x="1317" y="511"/>
      <point x="1343" y="455" type="qcurve"/>
    </contour>
  </outline>
</glyph>
<glyph name="uni0439.loclSRB" format="2">
  <advance width="1198"/>
  <outline>
    <contour>
      <point x="606" y="1143" type="qcurve" smooth="yes"/>
      <point x="291" y="1143"/>
      <point x="291" y="1413" type="qcurve"/>
      <point x="463" y="1413" type="line"/>
      <point x="463" y="1347"/>
      <point x="545" y="1286"/>
      <point x="606" y="1286" type="qcurve" smooth="yes"/>
      <point x="668" y="1286"/>
      <point x="750" y="1349"/>
      <point x="750" y="1413" type="qcurve"/>
      <point x="922" y="1413" type="line"/>
      <point x="922" y="1143"/>
    </contour>
    <contour>
      <point x="1053" y="0" type="line"/>
      <point x="805" y="0" type="line"/>
      <point x="805" y="528" type="line" smooth="yes"/>
      <point x="805" y="585"/>
      <point x="815" y="653" type="qcurve"/>
      <point x="805" y="653" type="line"/>
      <point x="414" y="0" type="line"/>
      <point x="145" y="0" type="line"/>
      <point x="145" y="999" type="line"/>
      <point x="393" y="999" type="line"/>
      <point x="393" y="471" type="line" smooth="yes"/>
      <point x="393" y="414"/>
      <point x="383" y="346" type="qcurve"/>
      <point x="393" y="346" type="line"/>
      <point x="784" y="999" type="line"/>
      <point x="1053" y="999" type="line"/>
    </contour>
  </outline>
</glyph>
<glyph name="uni0442.loclRUS" format="2">
  <advance width="899"/>
  <outline>
    <contour>
      <point x="573" y="0" type="line"/>
      <point x="326" y="0" type="line"/>
      <point x="326" y="817" type="line"/>
      <point x="-4" y="817" type="line"/>
      <point x="-4" y="999" type="line"/>
      <point x="903" y="999" type="line"/>
      <point x="903" y="817" type="line"/>
      <point x="573" y="817" type="line"/>
    </contour>
  </outline>
</glyph>
<glyph name="uni0446.loclRUS" format="2">
  <advance width="1253"/>
  <outline>
    <contour>
      <point x="1237" y="-307" type="line"/>
      <point x="989" y="-307" type="line"/>
      <point x="989" y="0" type="line"/>
      <point x="145" y="0" type="line"/>
      <point x="145" y="999" type="line"/>
      <point x="393" y="999" type="line"/>
      <point x="393" y="182" type="line"/>
      <point x="805" y="182" type="line"/>
      <point x="805" y="999" type="line"/>
      <point x="1053" y="999" type="line"/>
      <point x="1053" y="182" type="line"/>
      <point x="1237" y="182" type="line"/>
    </contour>
  </outline>
</glyph>
<glyph name="uni0448.loclRUS" format="2">
  <advance width="1692"/>
  <outline>
    <contour>
      <point x="1546" y="0" type="line"/>
      <point x="145" y="0" type="line"/>
      <point x="145" y="999" type="line"/>
      <point x="393" y="999" type="line"/>
      <point x="393" y="182" type="line"/>
      <point x="721" y="182" type="line"/>
      <point x="721" y="999" type="line"/>
      <point x="969" y="999" type="line"/>
      <point x="969" y="182" type="line"/>
      <point x="1298" y="182" type="line"/>
      <point x="1298" y="999" type="line"/>
      <point x="1546" y="999" type="line"/>
    </contour>
  </outline>
</glyph>
<glyph name="uni044B.loclRUS" format="2">
  <advance width="1462"/>
  <outline>
    <contour>
      <point x="543" y="0" type="qcurve" smooth="yes"/>
      <point x="145" y="0" type="line"/>
      <point x="145" y="999" type="line"/>
      <point x="393" y="999" type="line"/>
      <point x="393" y="705" type="line"/>
      <point x="541" y="705" type="line" smooth="yes"/>
      <point x="782" y="705"/>
      <point x="993" y="536"/>
      <point x="993" y="362" type="qcurve" smooth="yes"/>
      <point x="993" y="173"/>
      <point x="764" y="0"/>
    </contour>
    <contour>
      <point x="1317" y="0" type="line"/>
      <point x="1092" y="0" type="line"/>
      <point x="1092" y="999" type="line"/>
      <point x="1317" y="999" type="line"/>
    </contour>
    <contour>
      <point x="541" y="211" type="line" smooth="yes"/>
      <point x="627" y="211"/>
      <point x="725" y="277"/>
      <point x="725" y="362" type="qcurve" smooth="yes"/>
      <point x="725" y="434"/>
      <point x="626" y="494"/>
      <point x="541" y="494" type="qcurve" smooth="yes"/>
      <point x="393" y="494" type="line"/>
      <point x="393" y="211" type="line"/>
    </contour>
  </outline>
</glyph>
